<?xml version="1.0" standalone="no"?>
<!DOCTYPE svg PUBLIC "-//W3C//DTD SVG 20010904//EN"
 "http://www.w3.org/TR/2001/REC-SVG-20010904/DTD/svg10.dtd">
<svg version="1.0" xmlns="http://www.w3.org/2000/svg"
 width="298.000000pt" height="432.000000pt" viewBox="0 0 298.000000 432.000000"
 preserveAspectRatio="xMidYMid meet">

<g transform="translate(0.000000,432.000000) scale(0.100000,-0.100000)"
fill="#000000" stroke="none">
<path d="M1388 4266 c-32 -29 -58 -58 -58 -65 0 -6 -4 -11 -10 -11 -5 0 -10
-6 -10 -12 0 -7 -14 -30 -29 -51 -36 -47 -35 -73 4 -69 22 3 26 0 21 -14 -6
-14 -1 -16 34 -10 23 3 49 11 58 16 61 35 183 64 282 67 l105 4 32 -30 c38
-37 37 -37 63 -11 25 25 25 32 0 55 -11 10 -17 22 -13 28 3 5 0 8 -8 5 -12 -4
-101 43 -144 77 -11 9 -41 26 -67 38 -27 12 -48 25 -48 29 0 5 -35 8 -77 8
l-78 0 -57 -54z"/>
<path d="M1742 4013 c-27 -30 -28 -49 -3 -89 15 -25 29 -33 77 -43 33 -7 70
-19 83 -26 24 -12 23 -13 -27 -20 -55 -7 -128 1 -138 16 -3 5 -13 9 -22 9 -10
0 -25 9 -35 20 -18 22 -33 25 -41 11 -6 -10 -37 -5 -71 9 -49 22 -133 36 -153
27 -28 -13 -31 -65 -4 -73 9 -3 42 -18 72 -32 46 -22 71 -27 159 -31 l104 -3
-54 -25 c-66 -31 -145 -52 -218 -59 -77 -7 -118 16 -145 82 -11 27 -22 51 -25
54 -4 3 -7 16 -9 30 -6 57 -13 68 -51 87 l-40 20 -5 -21 c-10 -35 -7 -39 24
-33 42 9 60 -1 60 -32 -1 -24 -2 -25 -14 -8 -14 18 -16 18 -40 2 -14 -10 -26
-22 -27 -29 0 -6 -4 -2 -9 9 -7 19 -8 18 -14 -5 -7 -27 -5 -37 39 -205 15 -55
29 -110 32 -122 3 -12 -17 -83 -45 -160 -55 -154 -102 -351 -85 -361 9 -6 4
-111 -11 -209 -4 -29 -2 -31 32 -38 63 -11 135 -68 257 -204 117 -131 117
-131 189 -153 39 -12 97 -32 130 -45 32 -13 63 -22 70 -20 6 3 2 8 -9 13 -11
4 -39 20 -62 36 -23 15 -46 28 -52 28 -6 0 -11 7 -11 16 0 8 -5 12 -10 9 -18
-11 -41 16 -34 39 6 20 6 20 -9 2 -14 -19 -16 -18 -40 21 -14 23 -30 43 -34
44 -14 6 -43 102 -43 140 0 44 79 301 108 354 6 11 19 37 28 58 9 20 22 37 29
37 20 0 47 31 41 46 -3 7 3 30 14 51 10 21 16 41 13 46 -2 4 3 10 11 13 9 3
16 13 16 20 0 8 6 17 14 20 7 3 19 24 26 47 21 66 96 158 152 186 29 15 48 44
22 34 -19 -7 -18 5 6 51 15 27 18 41 10 51 -10 12 -4 46 9 44 12 -1 50 -56 54
-80 2 -13 9 -37 15 -52 7 -16 12 -35 12 -43 0 -8 6 -14 13 -14 19 0 123 -54
164 -86 52 -39 83 -117 93 -233 5 -64 4 -100 -3 -109 -7 -9 -7 -19 1 -35 6
-12 13 -51 16 -87 4 -36 11 -90 18 -122 20 -98 -16 -231 -91 -336 -17 -22 -73
-75 -126 -119 -54 -43 -108 -87 -121 -97 -19 -16 -39 -20 -94 -20 -38 0 -67
-3 -64 -8 8 -12 149 -1 175 13 27 14 49 5 49 -21 0 -15 -15 -28 -54 -47 l-54
-26 1 -84 c1 -69 4 -83 17 -83 17 0 81 -60 64 -60 -5 0 0 -7 10 -15 10 -8 19
-27 20 -44 1 -16 5 -27 10 -24 9 6 0 -48 -16 -89 -5 -15 -18 -30 -28 -33 -11
-3 -84 -70 -164 -149 -80 -79 -148 -141 -151 -138 -3 3 -5 0 -5 -7 0 -7 -5 -9
-10 -6 -8 5 -7 11 1 21 9 11 9 13 -2 9 -11 -4 -14 5 -15 37 -1 24 -5 79 -9
124 -5 57 -4 83 4 88 14 9 15 128 0 143 -6 6 -9 17 -6 25 3 9 7 7 13 -7 4 -11
10 -22 13 -25 4 -3 19 -22 34 -42 15 -21 32 -38 37 -38 15 0 -4 40 -59 125
-51 78 -60 111 -18 65 24 -27 87 -127 87 -138 0 -4 9 -15 20 -25 11 -9 20 -12
20 -6 0 18 -66 122 -94 148 -14 14 -26 28 -26 33 0 5 -16 32 -35 61 -27 40
-35 62 -35 98 0 45 -1 46 -41 59 -29 10 -48 11 -67 4 -20 -8 -40 -6 -77 5 -47
14 -170 20 -181 8 -3 -2 2 -48 11 -101 8 -53 15 -111 15 -129 0 -43 -26 -79
-53 -75 -23 3 -28 14 -79 212 -29 114 -92 256 -116 264 -13 4 -93 -113 -84
-123 4 -5 0 -6 -9 -3 -10 4 -21 -4 -33 -26 -9 -18 -16 -37 -15 -42 6 -33 -16
-48 -24 -16 -3 9 -5 4 -4 -13 1 -39 -12 -77 -24 -70 -5 4 -9 4 -9 0 0 -10 47
-24 90 -27 22 -1 40 -5 40 -9 0 -4 9 -9 20 -12 11 -3 20 -12 20 -21 0 -22 -56
-30 -167 -23 l-94 5 -25 -40 c-14 -22 -41 -68 -60 -102 -33 -60 -34 -65 -19
-92 8 -16 20 -54 26 -84 7 -30 16 -60 20 -65 13 -18 14 -94 1 -107 -7 -7 -12
-20 -12 -29 0 -9 -13 -22 -29 -29 -16 -6 -42 -25 -58 -41 -15 -15 -34 -29 -41
-29 -8 0 -33 -20 -58 -44 -44 -45 -58 -88 -31 -100 9 -5 9 -7 0 -12 -9 -4 -13
-30 -13 -81 0 -66 2 -75 20 -80 16 -4 20 -14 20 -44 0 -32 3 -39 20 -39 17 0
20 -7 20 -40 0 -22 5 -40 10 -40 6 0 10 -18 10 -40 0 -36 -2 -40 -26 -40 -23
0 -25 -3 -22 -37 2 -24 8 -37 16 -35 8 1 12 -12 12 -43 0 -38 -3 -45 -20 -45
-19 0 -20 -7 -20 -120 0 -113 1 -120 20 -120 17 0 20 -7 20 -40 0 -33 -3 -40
-20 -40 -17 0 -20 -7 -20 -43 l0 -43 -60 1 -60 1 0 -78 0 -78 -30 0 c-28 0
-30 -2 -30 -40 0 -22 -4 -40 -10 -40 -5 0 -10 -18 -10 -40 l0 -40 320 0 320 0
12 25 c6 14 14 22 17 18 3 -5 26 -15 51 -23 36 -11 143 -15 516 -17 l472 -4
156 36 c182 41 321 89 353 121 20 20 21 27 12 51 -10 26 -1 63 33 126 5 10 6
42 3 71 -5 39 -2 66 13 111 15 42 23 55 27 43 4 -9 3 -22 -1 -29 -4 -7 -3 -9
2 -6 6 3 17 -15 25 -41 14 -46 14 -46 17 -15 2 17 -6 60 -18 95 -75 229 -77
302 -16 773 16 116 16 216 1 337 -7 52 -5 60 15 76 20 16 21 21 9 40 -8 12
-20 22 -28 22 -11 0 -12 3 -4 11 15 15 -6 77 -42 123 -14 18 -25 38 -25 45 0
7 -4 9 -10 6 -6 -3 -7 1 -4 10 5 12 9 13 20 4 8 -6 14 -17 14 -24 0 -6 9 -20
20 -30 40 -36 17 14 -40 90 -47 62 -64 116 -44 142 7 10 14 34 14 54 0 19 4
39 10 45 12 12 -4 168 -25 250 -8 32 -15 74 -15 94 0 20 -4 40 -9 45 -16 17
-62 208 -57 231 4 13 2 26 -4 29 -5 3 -10 30 -10 58 1 146 -24 420 -45 497 -6
23 -4 23 27 -10 19 -19 59 -56 90 -82 l55 -47 44 13 c117 36 140 54 169 130 9
25 8 27 -10 21 -17 -5 -20 -2 -20 24 0 37 7 40 20 9 8 -21 9 -19 10 12 1 28 3
31 9 15 7 -17 10 -14 20 20 14 52 14 90 -1 116 -10 17 -10 23 0 26 6 3 11 14
11 26 -1 17 -2 18 -6 5 -2 -10 -11 -18 -19 -18 -8 0 -13 3 -12 8 1 4 -2 29 -6
55 -7 44 -11 50 -44 64 -20 8 -65 28 -100 45 -123 58 -250 96 -333 99 -52 2
-119 -17 -119 -33 0 -5 -6 -8 -14 -8 -13 0 -31 -27 -28 -41 1 -4 -3 -21 -8
-39 -8 -28 -7 -33 10 -37 11 -3 20 -11 20 -18 0 -14 53 -38 108 -50 18 -4 45
-13 60 -21 15 -8 33 -14 40 -14 6 0 12 -5 12 -11 0 -6 -8 -8 -17 -5 -10 3 -43
12 -73 20 -30 8 -75 25 -100 37 -25 13 -90 33 -145 44 -60 13 -99 26 -98 33 2
6 -3 9 -10 6 -7 -2 -22 4 -32 16 -10 11 -24 20 -32 20 -7 0 -13 4 -13 8 0 5
-18 14 -41 21 -45 14 -56 30 -39 61 17 31 8 33 -18 3z m65 -219 c-3 -3 -12 -4
-19 -1 -8 3 -5 6 6 6 11 1 17 -2 13 -5z m360 -220 c-3 -3 -12 -4 -19 -1 -8 3
-5 6 6 6 11 1 17 -2 13 -5z m-484 -304 c-3 -12 -8 -19 -11 -16 -5 6 5 36 12
36 2 0 2 -9 -1 -20z m-137 -99 c-9 -16 -16 -37 -16 -45 0 -24 -82 -236 -92
-236 -8 0 -13 65 -9 135 5 72 67 184 95 168 6 -3 8 -3 4 1 -3 4 1 17 10 27 17
20 17 20 20 0 2 -11 -4 -33 -12 -50z m124 19 c0 -5 -2 -10 -4 -10 -3 0 -8 5
-11 10 -3 6 -1 10 4 10 6 0 11 -4 11 -10z m-366 -66 c3 -9 2 -12 -5 -9 -6 4
-19 -1 -30 -11 -18 -16 -19 -27 -15 -103 4 -74 4 -79 -5 -36 -19 106 -22 145
-9 160 16 20 56 19 64 -1z m13 -99 c-2 -11 -8 -29 -12 -40 -6 -16 -5 -18 5 -8
9 8 19 9 31 2 15 -8 17 -13 7 -34 -6 -13 -15 -22 -19 -19 -5 3 -9 0 -9 -6 0
-7 8 -14 18 -17 10 -2 22 -14 28 -26 5 -12 15 -21 22 -20 8 2 12 -13 12 -47 0
-41 -3 -50 -17 -51 -35 -2 -58 3 -74 17 -19 17 -53 120 -44 134 4 6 9 34 11
63 3 29 10 68 16 87 11 34 11 34 20 10 5 -14 7 -34 5 -45z m-50 23 c-3 -8 -6
-5 -6 6 -1 11 2 17 5 13 3 -3 4 -12 1 -19z m123 -119 c0 -5 -4 -9 -10 -9 -5 0
-10 7 -10 16 0 8 5 12 10 9 6 -3 10 -10 10 -16z m1059 -329 c0 -9 -4 -8 -9 5
-5 11 -9 27 -9 35 0 9 4 8 9 -5 5 -11 9 -27 9 -35z m-142 -167 c-3 -10 -5 -2
-5 17 0 19 2 27 5 18 2 -10 2 -26 0 -35z m-20 -25 c-3 -8 -6 -5 -6 6 -1 11 2
17 5 13 3 -3 4 -12 1 -19z m180 -8 c-2 8 -2 12 0 7 3 -4 8 -5 13 -2 8 5 -24
-92 -33 -102 -2 -2 -5 24 -5 58 -1 55 1 60 14 43 10 -13 13 -14 11 -4z m-6
-136 c-9 -28 -9 -29 -10 -3 -1 14 2 29 6 32 11 12 13 2 4 -29z m-74 -56 c-3
-7 -5 -2 -5 12 0 14 2 19 5 13 2 -7 2 -19 0 -25z m7 -363 c5 -22 4 -26 -4 -15
-5 8 -10 24 -10 34 0 26 6 18 14 -19z m-90 -1 c3 -8 2 -12 -4 -9 -6 3 -10 10
-10 16 0 14 7 11 14 -7z m153 -6 c-3 -8 -6 -5 -6 6 -1 11 2 17 5 13 3 -3 4
-12 1 -19z m134 -61 c7 -12 8 -19 4 -15 -4 4 -19 2 -34 -3 -24 -8 -25 -8 -7 5
11 9 16 22 12 31 -8 23 12 8 25 -18z m-1653 -19 c-2 -7 7 -14 20 -16 18 -3 21
-8 16 -30 -12 -48 -87 -221 -95 -216 -4 2 -5 -5 -2 -16 3 -11 0 -20 -6 -20 -6
0 -11 -7 -11 -16 0 -30 -32 -114 -42 -108 -5 3 -7 13 -3 22 3 8 1 18 -4 21 -5
3 -12 23 -16 45 l-8 38 27 -17 c26 -17 36 -9 14 13 -8 8 -8 15 1 26 8 9 8 16
2 20 -6 4 -7 15 -1 30 4 12 11 38 14 57 3 18 12 39 20 45 9 6 16 20 16 30 0
15 -2 16 -9 5 -5 -8 -11 -9 -15 -3 -3 5 1 15 9 22 10 8 12 17 5 29 -5 10 -5
23 1 32 5 9 9 10 9 2 0 -9 8 -8 28 3 33 17 33 17 30 2z m1218 -24 c-3 -9 -6
-28 -6 -43 0 -15 -6 -35 -13 -44 -10 -15 -12 -10 -9 30 4 59 8 73 23 73 6 0 8
-7 5 -16z m314 -19 c5 3 10 -1 10 -9 0 -9 -4 -16 -9 -16 -21 0 -41 13 -41 27
0 12 3 13 15 3 8 -6 19 -9 25 -5z m133 -15 c3 -11 1 -18 -4 -14 -5 3 -9 12 -9
20 0 20 7 17 13 -6z m-422 -20 c5 0 9 7 9 15 0 8 4 15 8 15 5 0 8 -8 7 -18 -2
-28 -26 -82 -37 -82 -5 0 -7 -4 -4 -9 3 -4 0 -16 -7 -25 -11 -15 -12 -11 -9
26 2 24 6 50 9 58 3 8 6 24 5 35 -1 16 0 17 4 3 3 -10 10 -18 15 -18z m-1411
5 c0 -8 -4 -15 -8 -15 -5 0 -9 7 -9 15 0 8 4 15 9 15 4 0 8 -7 8 -15z m1810
-22 c15 -55 32 -171 27 -186 -2 -6 0 -20 5 -30 6 -11 6 -51 2 -95 -6 -68 -8
-73 -17 -47 -5 17 -13 104 -17 194 -5 93 -13 168 -19 174 -14 14 -14 27 -1 27
5 0 14 -17 20 -37z m-103 -30 c-3 -10 -5 -2 -5 17 0 19 2 27 5 18 2 -10 2 -26
0 -35z m-1097 3 c0 -8 -4 -18 -10 -21 -5 -3 -10 3 -10 14 0 12 5 21 10 21 6 0
10 -6 10 -14z m930 4 c0 -5 -4 -10 -10 -10 -5 0 -10 5 -10 10 0 6 5 10 10 10
6 0 10 -4 10 -10z m-179 -43 c-10 -9 -11 -8 -5 6 3 10 9 15 12 12 3 -3 0 -11
-7 -18z m170 0 c-10 -9 -11 -8 -5 6 3 10 9 15 12 12 3 -3 0 -11 -7 -18z m34
-44 c-9 -26 -23 -64 -33 -83 -9 -19 -17 -37 -17 -40 -20 -79 -29 -100 -39 -89
-8 8 -8 13 2 16 6 3 10 9 6 14 -3 5 11 51 32 101 20 51 40 104 45 117 17 44
21 14 4 -36z m-953 -88 l-6 -50 -6 52 c-3 29 -3 72 -1 95 l5 43 7 -45 c4 -25
5 -67 1 -95z m95 48 c-3 -10 -5 -4 -5 12 0 17 2 24 5 18 2 -7 2 -21 0 -30z
m1027 -154 c-7 -136 -8 -142 -21 -110 -16 38 -17 58 -8 156 8 98 14 120 26
108 7 -7 8 -60 3 -154z m-173 94 c-12 -20 -14 -14 -5 12 4 9 9 14 11 11 3 -2
0 -13 -6 -23z m116 -5 c-3 -8 -6 -5 -6 6 -1 11 2 17 5 13 3 -3 4 -12 1 -19z
m-1097 -14 c0 -8 -5 -12 -10 -9 -6 4 -8 11 -5 16 9 14 15 11 15 -7z m97 -16
c-3 -8 -6 -5 -6 6 -1 11 2 17 5 13 3 -3 4 -12 1 -19z m103 2 c0 -5 -5 -10 -11
-10 -5 0 -7 5 -4 10 3 6 8 10 11 10 2 0 4 -4 4 -10z m-167 -45 c-7 -21 -13
-19 -13 6 0 11 4 18 10 14 5 -3 7 -12 3 -20z m161 -15 c-6 -6 -10 -2 -11 12
-2 16 1 18 10 9 7 -7 8 -14 1 -21z m221 -59 c-6 -5 -25 47 -25 67 1 9 7 -1 15
-23 8 -21 12 -41 10 -44z m-238 -3 c-3 -7 -5 -2 -5 12 0 14 2 19 5 13 2 -7 2
-19 0 -25z m20 -10 c-3 -7 -5 -2 -5 12 0 14 2 19 5 13 2 -7 2 -19 0 -25z m840
-65 c-2 -16 -4 -5 -4 22 0 28 2 40 4 28 2 -13 2 -35 0 -50z m-253 44 c-2 -7
-19 -21 -37 -31 l-32 -18 34 31 c37 34 43 37 35 18z m-567 -219 c-3 -8 -6 -5
-6 6 -1 11 2 17 5 13 3 -3 4 -12 1 -19z m30 -240 c-3 -8 -6 -5 -6 6 -1 11 2
17 5 13 3 -3 4 -12 1 -19z m-1097 -608 c0 -22 -4 -40 -10 -40 -5 0 -10 18 -10
40 0 22 5 40 10 40 6 0 10 -18 10 -40z"/>
<path d="M1316 3861 c-4 -7 -5 -15 -2 -18 9 -9 19 4 14 18 -4 11 -6 11 -12 0z"/>
<path d="M2193 3123 c9 -2 25 -2 35 0 9 3 1 5 -18 5 -19 0 -27 -2 -17 -5z"/>
<path d="M1630 3055 c0 -6 39 -19 86 -29 81 -18 88 -18 99 -3 16 22 23 21 45
-5 10 -13 22 -19 27 -15 13 14 -49 57 -82 58 -147 4 -175 3 -175 -6z"/>
<path d="M2170 3021 c-39 -11 -38 -38 2 -49 41 -11 58 -5 58 19 0 25 14 24 32
-2 10 -16 20 -20 36 -15 30 10 28 21 -5 34 -40 16 -94 22 -123 13z"/>
<path d="M1566 2828 c-23 -81 -31 -166 -18 -198 8 -20 9 -13 5 30 -3 38 2 81
17 139 25 97 22 120 -4 29z"/>
<path d="M1948 2733 c6 -2 18 -2 25 0 6 3 1 5 -13 5 -14 0 -19 -2 -12 -5z"/>
<path d="M1784 2595 c11 -8 25 -15 30 -16 12 -1 27 -3 101 -12 28 -4 43 -4 35
-1 -8 3 -24 9 -35 14 -32 14 -98 30 -125 30 -24 -1 -24 -1 -6 -15z"/>
<path d="M2035 2561 l-70 -6 55 -6 c34 -3 67 -1 85 7 17 7 23 12 15 11 -8 0
-46 -3 -85 -6z"/>
<path d="M2561 2284 c0 -11 3 -14 6 -6 3 7 2 16 -1 19 -3 4 -6 -2 -5 -13z"/>
<path d="M614 1765 c-11 -11 -24 -25 -28 -32 -7 -13 60 -108 68 -95 2 4 -4 32
-13 62 -12 35 -15 57 -8 61 5 4 8 11 6 15 -2 5 -13 0 -25 -11z"/>
<path d="M463 1195 c0 -44 2 -61 4 -37 2 23 2 59 0 80 -2 20 -4 1 -4 -43z"/>
<path d="M290 280 c0 -38 2 -40 30 -40 28 0 30 2 30 38 0 35 -2 38 -30 40 -29
2 -30 1 -30 -38z"/>
<path d="M240 120 c0 -29 -4 -40 -15 -40 -11 0 -15 -11 -15 -40 0 -29 4 -40
15 -40 11 0 15 11 15 40 l0 40 40 0 40 0 0 40 0 40 -40 0 -40 0 0 -40z"/>
</g>
</svg>
