<svg version="1.1" id="Layer_1" xmlns="http://www.w3.org/2000/svg" xmlns:xlink="http://www.w3.org/1999/xlink" x="0px" y="0px"
	 width="100%" viewBox="0 0 284 300" enable-background="new 0 0 284 300" xml:space="preserve">
<path fill="#FFFFFF" opacity="1.000000" stroke="none" 
	d="
M181.000000,301.000000 
	C178.299988,301.000000 175.599976,301.000000 172.739471,300.694641 
	C164.396729,295.766235 156.116928,291.304718 148.075409,286.448639 
	C144.322327,284.182220 141.310104,284.324951 137.643448,286.643951 
	C132.928085,289.626190 127.721146,291.820129 122.901840,294.652893 
	C119.772255,296.492462 116.956413,298.865814 114.000000,301.000000 
	C111.299988,301.000000 108.599968,301.000000 105.739441,300.694885 
	C105.128792,299.939697 104.750183,299.366241 104.217979,299.057709 
	C93.449089,292.814362 82.589500,286.723999 71.899376,280.349274 
	C60.337410,273.454620 48.930351,266.300201 36.999866,258.979370 
	C36.999866,247.868515 36.883106,236.061676 37.069973,224.259644 
	C37.127129,220.650040 35.683216,218.726700 32.695843,216.882263 
	C25.326506,212.332352 18.283125,207.258102 11.001152,202.561417 
	C7.802409,200.498337 4.341739,198.841370 0.999999,197.000000 
	C1.000000,168.312439 1.000000,139.624878 1.288546,110.756393 
	C11.540029,103.365562 21.573145,96.248634 31.387392,88.841705 
	C32.798542,87.776695 33.817543,85.338005 33.883877,83.494232 
	C34.159161,75.842628 34.588253,68.118202 33.851231,60.528263 
	C32.919430,50.932518 34.603424,43.474625 44.999352,40.496395 
	C45.138031,40.456665 45.215050,40.237000 45.352108,40.151329 
	C61.980774,29.756996 78.660942,19.443684 95.204948,8.916363 
	C98.724144,6.677022 101.747955,3.659175 105.000000,0.999999 
	C107.370560,1.000000 109.741112,1.000000 112.267807,1.291563 
	C122.023926,8.623150 131.575119,15.732508 141.308731,22.582680 
	C142.165543,23.185686 144.484924,22.500523 145.667130,21.720083 
	C152.242691,17.379210 158.770798,12.951889 165.116852,8.284550 
	C167.981110,6.177978 170.386444,3.447441 173.000000,1.000000 
	C175.370560,1.000000 177.741104,1.000000 180.267303,1.298570 
	C186.863525,5.813851 193.246750,10.121499 199.756027,14.229370 
	C216.076904,24.529146 232.496735,34.673138 248.742844,45.088692 
	C250.308167,46.092251 251.809586,48.534290 251.856964,50.347351 
	C252.144104,61.331413 251.889572,72.328934 252.107315,83.316177 
	C252.144165,85.176102 253.084625,87.664764 254.475662,88.741898 
	C261.370850,94.081146 268.518066,99.100166 275.659485,104.113800 
	C278.667755,106.225746 281.880310,108.046745 285.000000,110.000000 
	C285.000000,138.687561 285.000000,167.375122 284.629089,196.532837 
	C283.000671,197.673187 281.716797,198.298630 280.490021,199.021057 
	C273.666626,203.039139 266.857086,207.080734 259.922485,210.841156 
	C256.931000,212.364120 254.059799,214.160263 251.188614,215.956406 
	C251.496216,216.319366 251.803802,216.682327 251.959930,217.390259 
	C250.872345,219.845428 249.174225,221.938583 249.126572,224.068649 
	C248.862579,235.872772 249.000092,247.685898 249.000092,259.201569 
	C242.436432,263.114349 236.142853,266.912476 229.804932,270.635101 
	C214.645706,279.539001 199.445633,288.373688 184.328018,297.347443 
	C182.973312,298.151581 182.097977,299.763336 181.000000,301.000000 
M250.900940,135.999481 
	C252.545074,135.666519 254.189209,135.333542 255.987778,135.827087 
	C256.417969,140.505310 254.709915,144.066284 250.390625,146.112595 
	C245.912231,148.234283 241.309006,147.690094 237.591309,144.875824 
	C233.669388,141.906952 232.120407,137.513092 233.791016,132.545456 
	C227.066315,127.436684 220.458405,122.206947 213.633606,117.277519 
	C201.202042,108.298462 188.617371,99.531403 176.181168,90.558678 
	C175.176773,89.834007 174.822815,88.207832 174.723816,86.951332 
	C175.149216,86.634224 175.574600,86.317108 176.778809,85.998901 
	C177.557449,85.985168 178.336105,85.971443 179.851273,85.997154 
	C180.489380,86.103477 181.282288,86.002563 181.742828,86.346596 
	C191.856873,93.901855 201.934052,101.506462 211.943207,109.045074 
	C222.558243,101.685089 233.048386,94.487495 243.417587,87.119682 
	C244.621552,86.264206 245.859039,84.479736 245.887222,83.101555 
	C246.094986,72.940422 246.060959,62.772221 245.917099,52.608875 
	C245.900192,51.413658 245.061600,49.739624 244.080612,49.130978 
	C239.073853,46.024506 233.770081,43.391903 228.799667,40.232536 
	C212.813751,30.071329 196.982285,19.666037 180.936172,9.602122 
	C178.955109,8.359628 176.575851,7.182805 173.501938,9.666138 
	C165.855545,15.843447 157.581131,21.245134 149.538712,26.929710 
	C145.852402,29.535288 142.294266,31.540895 137.767517,28.040203 
	C130.087616,22.101044 122.073845,16.595539 114.312027,10.759321 
	C111.411285,8.578217 108.498505,7.395146 105.183006,9.355888 
	C100.638191,12.043637 96.219574,14.945100 91.751709,17.762634 
	C76.826370,27.174887 62.008945,36.765148 46.919353,45.906178 
	C41.924725,48.931843 39.260132,52.067711 39.828545,58.380939 
	C40.542950,66.315605 39.845879,74.368851 40.126339,82.357994 
	C40.185101,84.031784 41.446907,86.205345 42.834286,87.204002 
	C53.146439,94.626839 63.630165,101.811325 74.016785,109.040527 
	C76.304016,107.251167 78.434158,105.487305 80.662971,103.858444 
	C88.889046,97.846664 97.178146,91.920364 105.349579,85.835724 
	C106.215958,85.190605 106.915298,83.721008 106.928810,82.624489 
	C107.049736,72.814194 106.999321,63.001793 106.999321,53.213142 
	C101.557510,52.898232 99.546715,49.673050 98.492668,45.105701 
	C97.231926,39.642700 99.904655,33.815426 104.912796,32.019859 
	C110.233749,30.112141 118.462387,32.489380 119.823463,36.679016 
	C122.295731,44.289097 120.565147,50.397511 115.093613,52.697292 
	C112.069252,53.968487 111.989929,55.425659 111.993912,57.771179 
	C112.009476,66.936661 112.103271,76.104355 111.909729,85.265778 
	C111.872871,87.010811 111.164215,89.359558 109.911415,90.356918 
	C103.585129,95.393364 97.026939,100.145340 90.455994,104.866119 
	C77.683075,114.042610 64.847404,123.131729 52.114624,132.202255 
	C53.838577,138.167206 51.455399,143.746826 46.350574,146.151352 
	C40.357841,148.974106 35.164108,147.553085 31.569246,142.107147 
	C29.263901,138.614731 29.355619,131.842789 31.749826,128.775101 
	C34.695831,125.000381 40.752411,123.713890 46.119308,125.606339 
	C47.184624,125.981987 48.763786,126.473900 49.490601,125.989273 
	C55.812771,121.773766 61.994587,117.347771 68.562553,112.742867 
	C59.099583,106.253639 50.347824,100.704208 42.156921,94.423363 
	C38.645538,91.730812 36.037598,92.347618 33.262627,94.439293 
	C25.282465,100.454460 17.639261,106.936317 9.457210,112.653076 
	C6.678791,114.594337 5.952323,116.432472 5.962959,119.428230 
	C6.033952,139.425446 6.367245,159.433029 5.823888,179.415726 
	C5.597928,187.725723 6.370137,194.501968 15.193254,197.704010 
	C15.333980,197.755081 15.410520,197.961349 15.546162,198.051193 
	C24.758532,204.153183 33.973892,210.250656 42.478226,215.878174 
	C52.630310,209.223099 62.134544,203.180023 71.380661,196.764923 
	C73.116035,195.560883 74.760742,192.906616 74.839325,190.859833 
	C75.203255,181.380783 75.000153,171.879944 75.000153,162.475845 
	C68.994370,159.534424 64.860931,153.880280 66.134659,149.739166 
	C67.879402,144.066696 69.952927,140.190796 75.999962,140.991104 
	C76.014023,142.365616 76.028076,143.740143 75.787964,145.756653 
	C75.205711,146.324432 74.406174,146.790878 74.084732,147.480255 
	C73.327812,149.103546 71.854233,151.279007 72.392059,152.418716 
	C73.270554,154.280289 75.345436,156.315094 77.246986,156.719864 
	C78.736572,157.036926 81.665817,155.378540 82.262703,153.909897 
	C83.038406,152.001266 82.137054,149.411057 81.970963,146.324875 
	C81.647423,144.272156 81.323883,142.219452 81.722206,140.201065 
	C86.789482,141.997025 88.833580,145.935913 88.962151,150.953705 
	C89.119331,157.088562 85.624336,160.673660 80.000465,162.360748 
	C80.000465,172.140823 79.940979,181.634659 80.071617,191.125870 
	C80.089027,192.390594 80.713158,194.125046 81.660194,194.825546 
	C92.082451,202.534485 102.586853,210.134598 113.166809,217.626068 
	C115.192360,219.060303 116.141380,220.417709 116.087410,223.074875 
	C115.874413,233.561325 116.000031,244.054626 116.000031,254.481613 
	C123.428932,257.084351 125.998451,262.405365 124.016281,270.003021 
	C122.840347,274.510315 118.859451,277.014374 112.575851,277.000183 
	C107.388626,276.988434 103.487663,273.785400 102.184677,268.468140 
	C100.698158,262.401917 103.535225,257.726654 110.999985,253.992981 
	C110.999985,245.185944 110.786263,236.348297 111.115334,227.530914 
	C111.231293,224.423721 109.946129,222.828751 107.761078,221.269684 
	C99.478752,215.360001 90.998459,209.692459 83.064941,203.343643 
	C78.879601,199.994324 76.183006,200.124924 71.919342,203.324280 
	C63.458786,209.672867 54.309704,215.097092 45.619656,221.153702 
	C44.272816,222.092392 43.154060,224.340408 43.114433,226.011047 
	C42.881519,235.831406 42.999916,245.660095 42.999916,255.719681 
	C51.668507,260.639252 60.405285,265.411163 68.957001,270.494385 
	C81.809700,278.134186 94.513039,286.025116 107.355156,293.683044 
	C108.215935,294.196320 109.902168,294.028320 110.879562,293.534332 
	C120.592850,288.625153 130.183426,283.469788 139.954865,278.682373 
	C141.595856,277.878357 144.299835,277.780548 145.891724,278.585052 
	C154.190750,282.779175 162.177444,287.598724 170.526764,291.681274 
	C172.961655,292.871826 175.385971,295.730957 178.951660,293.586639 
	C189.419235,287.291656 200.016769,281.213287 210.511551,274.963013 
	C221.286926,268.545654 232.001099,262.025543 243.000534,255.394562 
	C243.000534,247.506226 242.990265,239.347839 243.004532,231.189468 
	C243.012665,226.539688 243.409622,222.730255 237.670441,219.668564 
	C228.200119,214.616455 219.836182,207.511505 210.846390,201.510803 
	C209.722794,200.760803 207.175919,200.811722 206.058029,201.592819 
	C196.127655,208.531296 186.349197,215.688843 176.601791,222.884506 
	C175.784821,223.487595 175.080353,224.834137 175.068085,225.844330 
	C174.952728,235.334930 174.999588,244.827499 174.999588,254.268066 
	C181.940445,256.901855 185.101654,261.724243 183.983093,267.818451 
	C182.936996,273.517853 178.816681,276.996552 173.108154,276.999908 
	C166.057526,277.004059 162.104156,273.725250 161.021683,266.975769 
	C160.232559,262.055389 164.111404,256.504089 170.000137,254.270569 
	C170.000137,243.831665 169.906128,233.338440 170.101486,222.850616 
	C170.130783,221.277481 171.103668,219.182022 172.336807,218.256058 
	C182.841599,210.368134 193.535034,202.731827 204.079300,194.895432 
	C205.049103,194.174667 205.898788,192.595444 205.917038,191.401276 
	C206.064590,181.745880 205.999817,172.087234 205.999817,162.333267 
	C200.119492,160.608398 196.805145,156.849091 197.054764,150.731430 
	C197.266541,145.541397 199.392822,141.460541 205.171906,140.878738 
	C206.135513,143.006989 210.938004,140.798584 209.195099,145.008743 
	C208.296188,145.298630 207.393066,145.576096 206.499115,145.880569 
	C202.309219,147.307648 202.058182,150.795303 203.585251,153.757889 
	C204.416763,155.371063 207.719193,156.874008 209.573639,156.545242 
	C213.034286,155.931763 214.383957,151.483490 213.531616,147.970840 
	C214.036118,147.610123 214.540604,147.249420 215.735565,147.192017 
	C219.165680,148.856110 221.443481,151.259048 218.900742,155.028564 
	C216.915054,157.972321 214.225616,160.441391 211.000381,164.078140 
	C211.000381,171.972977 210.883789,181.431946 211.108353,190.882812 
	C211.148560,192.575272 212.199799,194.694336 213.484680,195.808945 
	C215.857391,197.867203 218.791016,199.265381 221.416183,201.048630 
	C228.603821,205.931137 235.752609,210.870834 242.883301,215.764893 
	C247.450363,213.218399 252.168076,210.587891 257.721436,207.952560 
	C258.332184,207.024170 258.942963,206.095779 260.199188,204.991455 
	C266.055969,201.013611 271.986084,197.136597 277.708557,192.974075 
	C278.873291,192.126846 279.896271,190.208801 279.904449,188.778229 
	C280.038849,165.305603 280.027374,141.831863 279.934265,118.358818 
	C279.928436,116.889206 279.427368,114.842728 278.397583,114.046806 
	C269.508881,107.176582 260.427399,100.556389 251.447922,93.802483 
	C249.288635,92.178375 247.326492,91.803741 244.971741,93.486267 
	C236.061523,99.852791 227.083771,106.124786 217.681396,112.749115 
	C221.524338,115.592224 225.134995,118.332367 228.818756,120.970444 
	C232.921173,123.908310 236.603714,128.293335 242.625366,125.079506 
	C243.148621,124.800240 244.266113,125.634407 244.596802,126.291565 
	C244.731354,127.472160 244.865906,128.652756 244.344162,130.123154 
	C243.657089,130.497879 242.653656,130.701294 242.340942,131.278748 
	C241.311035,133.180557 239.697327,135.285110 239.850861,137.187271 
	C240.081146,140.040466 242.454727,141.232773 245.554230,141.063629 
	C248.981552,140.876556 250.011520,138.944244 250.900940,135.999481 
M105.460159,39.024158 
	C102.544800,42.117279 103.544197,45.108383 106.628639,46.804024 
	C108.228294,47.683418 111.255096,47.261959 112.996094,46.285347 
	C115.603516,44.822708 115.985474,42.059975 113.972603,39.544804 
	C111.728218,36.740353 109.121414,35.545231 105.460159,39.024158 
M167.033173,264.735840 
	C166.472794,268.985474 169.670654,270.864044 172.648300,271.562836 
	C174.042297,271.889954 177.046356,269.373627 177.792480,267.528137 
	C178.993454,264.557648 177.720093,261.600037 174.183334,260.689423 
	C171.129654,259.903168 168.587631,260.744843 167.033173,264.735840 
M117.060310,269.407990 
	C120.414642,266.948212 119.276497,263.928009 117.140594,261.895416 
	C115.294846,260.138947 111.879463,259.037689 110.049515,261.748474 
	C108.762573,263.654846 107.930893,267.378632 108.953377,268.963898 
	C110.331055,271.099884 113.569336,273.087524 117.060310,269.407990 
M46.029964,137.662186 
	C45.385372,135.639023 45.143085,133.313187 43.938126,131.711639 
	C43.266502,130.818954 40.472775,130.405701 39.557796,131.062119 
	C37.990780,132.186310 36.468037,134.225922 36.215847,136.058533 
	C36.014767,137.519745 37.367886,140.121521 38.677494,140.668060 
	C41.281158,141.754608 44.171345,141.289612 46.029964,137.662186 
z"/>
<path fill="#000000" opacity="1.000000" stroke="none" 
	d="
M104.531342,0.999999 
	C101.747955,3.659175 98.724144,6.677022 95.204948,8.916363 
	C78.660942,19.443684 61.980774,29.756996 45.352108,40.151329 
	C45.215050,40.237000 45.138031,40.456665 44.999352,40.496395 
	C34.603424,43.474625 32.919430,50.932518 33.851231,60.528263 
	C34.588253,68.118202 34.159161,75.842628 33.883877,83.494232 
	C33.817543,85.338005 32.798542,87.776695 31.387392,88.841705 
	C21.573145,96.248634 11.540029,103.365562 1.288546,110.287735 
	C1.000000,73.741440 1.000000,37.482880 1.000000,1.000000 
	C35.353901,1.000000 69.708290,1.000000 104.531342,0.999999 
z"/>
<path fill="#000000" opacity="1.000000" stroke="none" 
	d="
M285.000000,109.531342 
	C281.880310,108.046745 278.667755,106.225746 275.659485,104.113800 
	C268.518066,99.100166 261.370850,94.081146 254.475662,88.741898 
	C253.084625,87.664764 252.144165,85.176102 252.107315,83.316177 
	C251.889572,72.328934 252.144104,61.331413 251.856964,50.347351 
	C251.809586,48.534290 250.308167,46.092251 248.742844,45.088692 
	C232.496735,34.673138 216.076904,24.529146 199.756027,14.229370 
	C193.246750,10.121499 186.863525,5.813851 180.711456,1.298570 
	C215.595322,1.000000 250.190659,1.000000 285.000000,1.000000 
	C285.000000,37.020611 285.000000,73.041649 285.000000,109.531342 
z"/>
<path fill="#000000" opacity="1.000000" stroke="none" 
	d="
M181.468658,301.000000 
	C182.097977,299.763336 182.973312,298.151581 184.328018,297.347443 
	C199.445633,288.373688 214.645706,279.539001 229.804932,270.635101 
	C236.142853,266.912476 242.436432,263.114349 249.000092,259.201569 
	C249.000092,247.685898 248.862579,235.872772 249.126572,224.068649 
	C249.174225,221.938583 250.872345,219.845428 252.316269,217.367096 
	C255.230316,215.037399 257.636566,213.075836 260.042816,211.114288 
	C266.857086,207.080734 273.666626,203.039139 280.490021,199.021057 
	C281.716797,198.298630 283.000671,197.673187 284.629089,197.001495 
	C285.000000,231.593613 285.000000,266.187225 285.000000,301.000000 
	C250.646088,301.000000 216.291702,301.000000 181.468658,301.000000 
z"/>
<path fill="#000000" opacity="1.000000" stroke="none" 
	d="
M0.999999,197.468658 
	C4.341739,198.841370 7.802409,200.498337 11.001152,202.561417 
	C18.283125,207.258102 25.326506,212.332352 32.695843,216.882263 
	C35.683216,218.726700 37.127129,220.650040 37.069973,224.259644 
	C36.883106,236.061676 36.999866,247.868515 36.999866,258.979370 
	C48.930351,266.300201 60.337410,273.454620 71.899376,280.349274 
	C82.589500,286.723999 93.449089,292.814362 104.217979,299.057709 
	C104.750183,299.366241 105.128792,299.939697 105.289459,300.694885 
	C70.406395,301.000000 35.812786,301.000000 1.000000,301.000000 
	C1.000000,266.646088 1.000000,232.291702 0.999999,197.468658 
z"/>
<path fill="#000000" opacity="1.000000" stroke="none" 
	d="
M172.531342,1.000000 
	C170.386444,3.447441 167.981110,6.177978 165.116852,8.284550 
	C158.770798,12.951889 152.242691,17.379210 145.667130,21.720083 
	C144.484924,22.500523 142.165543,23.185686 141.308731,22.582680 
	C131.575119,15.732508 122.023926,8.623150 112.711967,1.291563 
	C132.687561,1.000000 152.375122,1.000000 172.531342,1.000000 
z"/>
<path fill="#000000" opacity="1.000000" stroke="none" 
	d="
M114.468658,301.000000 
	C116.956413,298.865814 119.772255,296.492462 122.901840,294.652893 
	C127.721146,291.820129 132.928085,289.626190 137.643448,286.643951 
	C141.310104,284.324951 144.322327,284.182220 148.075409,286.448639 
	C156.116928,291.304718 164.396729,295.766235 172.289490,300.694641 
	C152.979111,301.000000 133.958206,301.000000 114.468658,301.000000 
z"/>
<path fill="#000000" opacity="1.000000" stroke="none" 
	d="
M174.166626,87.000572 
	C174.822815,88.207832 175.176773,89.834007 176.181168,90.558678 
	C188.617371,99.531403 201.202042,108.298462 213.633606,117.277519 
	C220.458405,122.206947 227.066315,127.436684 233.791016,132.545456 
	C232.120407,137.513092 233.669388,141.906952 237.591309,144.875824 
	C241.309006,147.690094 245.912231,148.234283 250.390625,146.112595 
	C254.709915,144.066284 256.417969,140.505310 255.987823,135.021423 
	C255.253326,127.626968 253.209991,126.074913 245.107590,125.951370 
	C244.266113,125.634407 243.148621,124.800240 242.625366,125.079506 
	C236.603714,128.293335 232.921173,123.908310 228.818756,120.970444 
	C225.134995,118.332367 221.524338,115.592224 217.681396,112.749115 
	C227.083771,106.124786 236.061523,99.852791 244.971741,93.486267 
	C247.326492,91.803741 249.288635,92.178375 251.447922,93.802483 
	C260.427399,100.556389 269.508881,107.176582 278.397583,114.046806 
	C279.427368,114.842728 279.928436,116.889206 279.934265,118.358818 
	C280.027374,141.831863 280.038849,165.305603 279.904449,188.778229 
	C279.896271,190.208801 278.873291,192.126846 277.708557,192.974075 
	C271.986084,197.136597 266.055969,201.013611 259.600220,205.256012 
	C258.296112,206.332840 257.590942,207.145111 256.885773,207.957397 
	C252.168076,210.587891 247.450363,213.218399 242.883301,215.764893 
	C235.752609,210.870834 228.603821,205.931137 221.416183,201.048630 
	C218.791016,199.265381 215.857391,197.867203 213.484680,195.808945 
	C212.199799,194.694336 211.148560,192.575272 211.108353,190.882812 
	C210.883789,181.431946 211.000381,171.972977 211.000381,164.078140 
	C214.225616,160.441391 216.915054,157.972321 218.900742,155.028564 
	C221.443481,151.259048 219.165680,148.856110 215.373230,146.671066 
	C215.845764,145.597717 216.680634,145.045319 217.425980,144.552155 
	C214.100296,139.063187 209.462753,139.892380 204.999802,140.166641 
	C199.392822,141.460541 197.266541,145.541397 197.054764,150.731430 
	C196.805145,156.849091 200.119492,160.608398 205.999817,162.333267 
	C205.999817,172.087234 206.064590,181.745880 205.917038,191.401276 
	C205.898788,192.595444 205.049103,194.174667 204.079300,194.895432 
	C193.535034,202.731827 182.841599,210.368134 172.336807,218.256058 
	C171.103668,219.182022 170.130783,221.277481 170.101486,222.850616 
	C169.906128,233.338440 170.000137,243.831665 170.000137,254.270569 
	C164.111404,256.504089 160.232559,262.055389 161.021683,266.975769 
	C162.104156,273.725250 166.057526,277.004059 173.108154,276.999908 
	C178.816681,276.996552 182.936996,273.517853 183.983093,267.818451 
	C185.101654,261.724243 181.940445,256.901855 174.999588,254.268066 
	C174.999588,244.827499 174.952728,235.334930 175.068085,225.844330 
	C175.080353,224.834137 175.784821,223.487595 176.601791,222.884506 
	C186.349197,215.688843 196.127655,208.531296 206.058029,201.592819 
	C207.175919,200.811722 209.722794,200.760803 210.846390,201.510803 
	C219.836182,207.511505 228.200119,214.616455 237.670441,219.668564 
	C243.409622,222.730255 243.012665,226.539688 243.004532,231.189468 
	C242.990265,239.347839 243.000534,247.506226 243.000534,255.394562 
	C232.001099,262.025543 221.286926,268.545654 210.511551,274.963013 
	C200.016769,281.213287 189.419235,287.291656 178.951660,293.586639 
	C175.385971,295.730957 172.961655,292.871826 170.526764,291.681274 
	C162.177444,287.598724 154.190750,282.779175 145.891724,278.585052 
	C144.299835,277.780548 141.595856,277.878357 139.954865,278.682373 
	C130.183426,283.469788 120.592850,288.625153 110.879562,293.534332 
	C109.902168,294.028320 108.215935,294.196320 107.355156,293.683044 
	C94.513039,286.025116 81.809700,278.134186 68.957001,270.494385 
	C60.405285,265.411163 51.668507,260.639252 42.999916,255.719681 
	C42.999916,245.660095 42.881519,235.831406 43.114433,226.011047 
	C43.154060,224.340408 44.272816,222.092392 45.619656,221.153702 
	C54.309704,215.097092 63.458786,209.672867 71.919342,203.324280 
	C76.183006,200.124924 78.879601,199.994324 83.064941,203.343643 
	C90.998459,209.692459 99.478752,215.360001 107.761078,221.269684 
	C109.946129,222.828751 111.231293,224.423721 111.115334,227.530914 
	C110.786263,236.348297 110.999985,245.185944 110.999985,253.992981 
	C103.535225,257.726654 100.698158,262.401917 102.184677,268.468140 
	C103.487663,273.785400 107.388626,276.988434 112.575851,277.000183 
	C118.859451,277.014374 122.840347,274.510315 124.016281,270.003021 
	C125.998451,262.405365 123.428932,257.084351 116.000031,254.481613 
	C116.000031,244.054626 115.874413,233.561325 116.087410,223.074875 
	C116.141380,220.417709 115.192360,219.060303 113.166809,217.626068 
	C102.586853,210.134598 92.082451,202.534485 81.660194,194.825546 
	C80.713158,194.125046 80.089027,192.390594 80.071617,191.125870 
	C79.940979,181.634659 80.000465,172.140823 80.000465,162.360748 
	C85.624336,160.673660 89.119331,157.088562 88.962151,150.953705 
	C88.833580,145.935913 86.789482,141.997025 80.949341,140.106567 
	C78.784225,140.063614 77.391983,140.115158 75.999741,140.166702 
	C69.952927,140.190796 67.879402,144.066696 66.134659,149.739166 
	C64.860931,153.880280 68.994370,159.534424 75.000153,162.475845 
	C75.000153,171.879944 75.203255,181.380783 74.839325,190.859833 
	C74.760742,192.906616 73.116035,195.560883 71.380661,196.764923 
	C62.134544,203.180023 52.630310,209.223099 42.478226,215.878174 
	C33.973892,210.250656 24.758532,204.153183 15.546162,198.051193 
	C15.410520,197.961349 15.333980,197.755081 15.193254,197.704010 
	C6.370137,194.501968 5.597928,187.725723 5.823888,179.415726 
	C6.367245,159.433029 6.033952,139.425446 5.962959,119.428230 
	C5.952323,116.432472 6.678791,114.594337 9.457210,112.653076 
	C17.639261,106.936317 25.282465,100.454460 33.262627,94.439293 
	C36.037598,92.347618 38.645538,91.730812 42.156921,94.423363 
	C50.347824,100.704208 59.099583,106.253639 68.562553,112.742867 
	C61.994587,117.347771 55.812771,121.773766 49.490601,125.989273 
	C48.763786,126.473900 47.184624,125.981987 46.119308,125.606339 
	C40.752411,123.713890 34.695831,125.000381 31.749826,128.775101 
	C29.355619,131.842789 29.263901,138.614731 31.569246,142.107147 
	C35.164108,147.553085 40.357841,148.974106 46.350574,146.151352 
	C51.455399,143.746826 53.838577,138.167206 52.114624,132.202255 
	C64.847404,123.131729 77.683075,114.042610 90.455994,104.866119 
	C97.026939,100.145340 103.585129,95.393364 109.911415,90.356918 
	C111.164215,89.359558 111.872871,87.010811 111.909729,85.265778 
	C112.103271,76.104355 112.009476,66.936661 111.993912,57.771179 
	C111.989929,55.425659 112.069252,53.968487 115.093613,52.697292 
	C120.565147,50.397511 122.295731,44.289097 119.823463,36.679016 
	C118.462387,32.489380 110.233749,30.112141 104.912796,32.019859 
	C99.904655,33.815426 97.231926,39.642700 98.492668,45.105701 
	C99.546715,49.673050 101.557510,52.898232 106.999321,53.213142 
	C106.999321,63.001793 107.049736,72.814194 106.928810,82.624489 
	C106.915298,83.721008 106.215958,85.190605 105.349579,85.835724 
	C97.178146,91.920364 88.889046,97.846664 80.662971,103.858444 
	C78.434158,105.487305 76.304016,107.251167 74.016785,109.040527 
	C63.630165,101.811325 53.146439,94.626839 42.834286,87.204002 
	C41.446907,86.205345 40.185101,84.031784 40.126339,82.357994 
	C39.845879,74.368851 40.542950,66.315605 39.828545,58.380939 
	C39.260132,52.067711 41.924725,48.931843 46.919353,45.906178 
	C62.008945,36.765148 76.826370,27.174887 91.751709,17.762634 
	C96.219574,14.945100 100.638191,12.043637 105.183006,9.355888 
	C108.498505,7.395146 111.411285,8.578217 114.312027,10.759321 
	C122.073845,16.595539 130.087616,22.101044 137.767517,28.040203 
	C142.294266,31.540895 145.852402,29.535288 149.538712,26.929710 
	C157.581131,21.245134 165.855545,15.843447 173.501938,9.666138 
	C176.575851,7.182805 178.955109,8.359628 180.936172,9.602122 
	C196.982285,19.666037 212.813751,30.071329 228.799667,40.232536 
	C233.770081,43.391903 239.073853,46.024506 244.080612,49.130978 
	C245.061600,49.739624 245.900192,51.413658 245.917099,52.608875 
	C246.060959,62.772221 246.094986,72.940422 245.887222,83.101555 
	C245.859039,84.479736 244.621552,86.264206 243.417587,87.119682 
	C233.048386,94.487495 222.558243,101.685089 211.943207,109.045074 
	C201.934052,101.506462 191.856873,93.901855 181.742828,86.346596 
	C181.282288,86.002563 180.489380,86.103477 179.429688,85.514153 
	C179.043442,74.368393 179.078781,63.705639 179.497711,53.022980 
	C181.203354,52.554676 182.735809,52.394054 183.810898,51.607929 
	C188.391434,48.258518 189.170898,41.250175 185.823364,35.551128 
	C183.381119,31.393326 176.874008,30.309919 170.591797,32.940491 
	C164.531067,37.084564 163.605911,41.524673 167.014343,49.361481 
	C169.416611,51.160107 171.687119,52.637280 173.983398,54.342079 
	C174.009171,54.569706 174.166672,54.999935 174.089264,55.462921 
	C174.063461,66.284126 174.115036,76.642349 174.166626,87.000572 
M152.813965,74.692314 
	C155.265244,68.584167 154.020462,64.027748 148.736649,60.192444 
	C143.136765,56.245132 136.068024,57.485718 131.945572,64.552017 
	C129.194397,69.267792 131.234360,75.855652 136.585693,79.961922 
	C137.756180,80.860085 138.855835,82.670105 138.893768,84.089424 
	C139.111588,92.239082 138.999771,100.397552 138.999771,108.415413 
	C128.231812,114.549202 117.652115,120.575760 107.098206,126.587624 
	C107.098206,141.331238 107.098206,155.976608 107.098206,170.278717 
	C116.459030,175.685333 125.520699,181.104156 134.776672,186.167801 
	C138.148346,188.012329 139.228958,190.283539 139.085175,194.021179 
	C138.797531,201.498383 138.999817,208.994446 138.999817,216.416458 
	C131.814896,219.139877 130.192093,223.284683 131.198914,230.437271 
	C131.851547,235.073639 136.915527,239.557434 143.664871,239.003998 
	C148.618149,238.597839 153.679581,233.484940 153.999786,228.517578 
	C154.372452,222.736542 150.608643,217.590820 145.205765,216.508575 
	C145.205765,207.413467 145.205765,198.318344 145.205765,189.696152 
	C156.105179,183.422623 166.672821,177.398865 177.144241,171.212250 
	C178.081818,170.658310 178.911377,169.053574 178.921173,167.929276 
	C179.041519,154.112244 178.999573,140.293777 178.999573,126.585800 
	C168.480225,120.649368 158.084351,114.900368 147.854340,108.870010 
	C146.475311,108.057121 145.186249,105.856018 145.126709,104.250587 
	C144.843475,96.612877 144.999985,88.958855 144.999985,83.163055 
	C148.044403,79.688156 150.079422,77.365364 152.813965,74.692314 
z"/>
<path fill="#000000" opacity="1.000000" stroke="none" 
	d="
M212.883453,148.040466 
	C214.383957,151.483490 213.034286,155.931763 209.573639,156.545242 
	C207.719193,156.874008 204.416763,155.371063 203.585251,153.757889 
	C202.058182,150.795303 202.309219,147.307648 206.499115,145.880569 
	C207.393066,145.576096 208.296188,145.298630 209.675919,145.352295 
	C211.065643,146.477386 211.974548,147.258926 212.883453,148.040466 
z"/>
<path fill="#000000" opacity="1.000000" stroke="none" 
	d="
M81.957512,147.114197 
	C82.137054,149.411057 83.038406,152.001266 82.262703,153.909897 
	C81.665817,155.378540 78.736572,157.036926 77.246986,156.719864 
	C75.345436,156.315094 73.270554,154.280289 72.392059,152.418716 
	C71.854233,151.279007 73.327812,149.103546 74.084732,147.480255 
	C74.406174,146.790878 75.205711,146.324432 76.281013,145.382599 
	C78.501884,145.710419 80.229698,146.412308 81.957512,147.114197 
z"/>
<path fill="#000000" opacity="1.000000" stroke="none" 
	d="
M105.743164,38.740501 
	C109.121414,35.545231 111.728218,36.740353 113.972603,39.544804 
	C115.985474,42.059975 115.603516,44.822708 112.996094,46.285347 
	C111.255096,47.261959 108.228294,47.683418 106.628639,46.804024 
	C103.544197,45.108383 102.544800,42.117279 105.743164,38.740501 
z"/>
<path fill="#000000" opacity="1.000000" stroke="none" 
	d="
M167.229645,264.395142 
	C168.587631,260.744843 171.129654,259.903168 174.183334,260.689423 
	C177.720093,261.600037 178.993454,264.557648 177.792480,267.528137 
	C177.046356,269.373627 174.042297,271.889954 172.648300,271.562836 
	C169.670654,270.864044 166.472794,268.985474 167.229645,264.395142 
z"/>
<path fill="#000000" opacity="1.000000" stroke="none" 
	d="
M116.804764,269.687622 
	C113.569336,273.087524 110.331055,271.099884 108.953377,268.963898 
	C107.930893,267.378632 108.762573,263.654846 110.049515,261.748474 
	C111.879463,259.037689 115.294846,260.138947 117.140594,261.895416 
	C119.276497,263.928009 120.414642,266.948212 116.804764,269.687622 
z"/>
<path fill="#FEFEFE" opacity="1.000000" stroke="none" 
	d="
M174.445221,86.975952 
	C174.115036,76.642349 174.063461,66.284126 174.470627,55.527008 
	C175.602951,55.982307 176.873901,56.847374 176.858566,57.689018 
	C176.686661,67.128090 176.316696,76.563560 176.000000,86.000000 
	C175.574600,86.317108 175.149216,86.634224 174.445221,86.975952 
z"/>
<path fill="#000000" opacity="1.000000" stroke="none" 
	d="
M250.166702,136.000412 
	C250.011520,138.944244 248.981552,140.876556 245.554230,141.063629 
	C242.454727,141.232773 240.081146,140.040466 239.850861,137.187271 
	C239.697327,135.285110 241.311035,133.180557 242.340942,131.278748 
	C242.653656,130.701294 243.657089,130.497879 245.002258,130.124939 
	C247.162460,132.084625 248.664581,134.042511 250.166702,136.000412 
z"/>
<path fill="#000000" opacity="1.000000" stroke="none" 
	d="
M45.992073,138.053772 
	C44.171345,141.289612 41.281158,141.754608 38.677494,140.668060 
	C37.367886,140.121521 36.014767,137.519745 36.215847,136.058533 
	C36.468037,134.225922 37.990780,132.186310 39.557796,131.062119 
	C40.472775,130.405701 43.266502,130.818954 43.938126,131.711639 
	C45.143085,133.313187 45.385372,135.639023 45.992073,138.053772 
z"/>
<path fill="#FEFEFE" opacity="1.000000" stroke="none" 
	d="
M176.389404,85.999451 
	C176.316696,76.563560 176.686661,67.128090 176.858566,57.689018 
	C176.873901,56.847374 175.602951,55.982307 174.548035,55.064026 
	C174.166672,54.999935 174.009171,54.569706 173.995239,53.969719 
	C174.216736,52.356602 174.452179,51.343472 174.687622,50.330341 
	C175.111206,50.093864 175.534805,49.857388 175.958389,49.620907 
	C176.309692,50.383312 176.516403,51.276844 177.054321,51.870026 
	C177.558716,52.426220 178.413513,52.664627 179.114120,53.042885 
	C179.078781,63.705639 179.043442,74.368393 179.061432,85.494431 
	C178.336105,85.971443 177.557449,85.985168 176.389404,85.999451 
z"/>
<path fill="#FFFFFF" opacity="1.000000" stroke="none" 
	d="
M250.533813,135.999939 
	C248.664581,134.042511 247.162460,132.084625 245.330399,129.980042 
	C244.865906,128.652756 244.731354,127.472160 244.852203,126.121468 
	C253.209991,126.074913 255.253326,127.626968 255.910614,134.608154 
	C254.189209,135.333542 252.545074,135.666519 250.533813,135.999939 
z"/>
<path fill="#FEFEFE" opacity="1.000000" stroke="none" 
	d="
M213.207535,148.005646 
	C211.974548,147.258926 211.065643,146.477386 210.059097,145.407196 
	C210.938004,140.798584 206.135513,143.006989 205.085846,140.522690 
	C209.462753,139.892380 214.100296,139.063187 217.425980,144.552155 
	C216.680634,145.045319 215.845764,145.597717 215.028000,146.519409 
	C214.540604,147.249420 214.036118,147.610123 213.207535,148.005646 
z"/>
<path fill="#FFFFFF" opacity="1.000000" stroke="none" 
	d="
M259.922485,210.841141 
	C257.636566,213.075836 255.230316,215.037399 252.467728,217.022125 
	C251.803802,216.682327 251.496216,216.319366 251.188614,215.956406 
	C254.059799,214.160263 256.931000,212.364120 259.922485,210.841141 
z"/>
<path fill="#FFFFFF" opacity="1.000000" stroke="none" 
	d="
M81.964233,146.719543 
	C80.229698,146.412308 78.501884,145.710419 76.408096,145.061584 
	C76.028076,143.740143 76.014023,142.365616 75.999847,140.578903 
	C77.391983,140.115158 78.784225,140.063614 80.588409,140.089401 
	C81.323883,142.219452 81.647423,144.272156 81.964233,146.719543 
z"/>
<path fill="#FEFEFE" opacity="1.000000" stroke="none" 
	d="
M257.303589,207.954971 
	C257.590942,207.145111 258.296112,206.332840 259.277527,205.343994 
	C258.942963,206.095779 258.332184,207.024170 257.303589,207.954971 
z"/>
<path fill="#FFFFFF" opacity="1.000000" stroke="none" 
	d="
M152.114456,75.042572 
	C150.079422,77.365364 148.044403,79.688156 144.999985,83.163055 
	C144.999985,88.958855 144.843475,96.612877 145.126709,104.250587 
	C145.186249,105.856018 146.475311,108.057121 147.854340,108.870010 
	C158.084351,114.900368 168.480225,120.649368 178.999573,126.585800 
	C178.999573,140.293777 179.041519,154.112244 178.921173,167.929276 
	C178.911377,169.053574 178.081818,170.658310 177.144241,171.212250 
	C166.672821,177.398865 156.105179,183.422623 145.205765,189.696152 
	C145.205765,198.318344 145.205765,207.413467 145.211395,216.509354 
	C150.608643,217.590820 154.372452,222.736542 153.999786,228.517578 
	C153.679581,233.484940 148.618149,238.597839 143.664871,239.003998 
	C136.915527,239.557434 131.851547,235.073639 131.198914,230.437271 
	C130.192093,223.284683 131.814896,219.139877 138.999817,216.416458 
	C138.999817,208.994446 138.797531,201.498383 139.085175,194.021179 
	C139.228958,190.283539 138.148346,188.012329 134.776672,186.167801 
	C125.520699,181.104156 116.459030,175.685333 107.098206,170.278717 
	C107.098206,155.976608 107.098206,141.331238 107.098206,126.587624 
	C117.652115,120.575760 128.231812,114.549202 138.999771,108.415413 
	C138.999771,100.397552 139.111588,92.239082 138.893768,84.089424 
	C138.855835,82.670105 137.756180,80.860085 136.585693,79.961922 
	C131.234360,75.855652 129.194397,69.267792 131.945572,64.552017 
	C136.068024,57.485718 143.136765,56.245132 148.872742,60.907936 
	C147.992294,62.787830 146.975784,63.952229 145.576828,65.062500 
	C141.791916,63.686100 138.454025,64.321640 137.386627,67.710793 
	C136.826279,69.489922 138.352737,72.843727 139.997757,74.192749 
	C142.709869,76.416893 145.407318,74.879486 147.492889,72.040825 
	C149.250885,73.068001 150.682663,74.055283 152.114456,75.042572 
M130.015930,176.521561 
	C134.361816,178.936234 138.707703,181.350906 143.202911,183.848541 
	C152.503387,178.372147 162.087311,172.825821 171.529694,167.048203 
	C172.731964,166.312546 173.863174,164.382843 173.892868,162.982254 
	C174.097488,153.335526 174.120102,143.679504 173.886368,134.034088 
	C173.845963,132.366486 172.740082,130.024094 171.390518,129.203369 
	C163.095535,124.158806 154.526733,119.566254 146.192139,114.583931 
	C143.780060,113.142014 142.104965,113.218773 139.716324,114.666252 
	C131.543549,119.618874 123.110062,124.143112 114.970772,129.147476 
	C113.507301,130.047287 112.181290,132.425674 112.131058,134.160187 
	C111.856560,143.636917 111.887352,153.128448 112.113716,162.607727 
	C112.150627,164.153214 113.309654,166.228241 114.597816,167.088257 
	C119.394081,170.290359 124.460426,173.087921 130.015930,176.521561 
M146.506302,230.988770 
	C146.873734,230.283615 147.719528,229.387894 147.527435,228.905624 
	C146.599808,226.576904 145.891083,223.132156 144.153381,222.426712 
	C142.175568,221.623810 139.190659,223.301712 136.643494,223.901337 
	C137.458023,226.467529 137.638077,229.645187 139.312515,231.382690 
	C140.409454,232.520935 143.668854,231.575195 146.506302,230.988770 
z"/>
<path fill="#FFFFFF" opacity="1.000000" stroke="none" 
	d="
M179.497711,53.022980 
	C178.413513,52.664627 177.558716,52.426220 177.054321,51.870026 
	C176.516403,51.276844 176.309692,50.383312 175.958389,49.620907 
	C175.534805,49.857388 175.111206,50.093864 174.687622,50.330341 
	C174.452179,51.343472 174.216736,52.356602 173.969482,53.742096 
	C171.687119,52.637280 169.416611,51.160107 167.416656,49.350510 
	C169.471832,48.306633 171.256409,47.595181 173.396164,47.044167 
	C177.638519,49.621944 180.497223,47.322353 181.596893,44.258629 
	C182.211182,42.547218 180.575577,38.968605 178.876114,37.804008 
	C177.374420,36.774937 174.378937,37.925705 171.893433,37.758396 
	C171.481873,35.896992 171.219879,34.391220 170.957886,32.885445 
	C176.874008,30.309919 183.381119,31.393326 185.823364,35.551128 
	C189.170898,41.250175 188.391434,48.258518 183.810898,51.607929 
	C182.735809,52.394054 181.203354,52.554676 179.497711,53.022980 
z"/>
<path fill="#FFFFFF" opacity="1.000000" stroke="none" 
	d="
M170.591797,32.940491 
	C171.219879,34.391220 171.481873,35.896992 171.868652,38.143574 
	C170.280487,41.820881 170.607407,44.490246 173.041000,46.883728 
	C171.256409,47.595181 169.471832,48.306633 167.284927,49.029060 
	C163.605911,41.524673 164.531067,37.084564 170.591797,32.940491 
z"/>
<path fill="#FFFFFF" opacity="1.000000" stroke="none" 
	d="
M152.464203,74.867447 
	C150.682663,74.055283 149.250885,73.068001 147.507996,71.683258 
	C146.784348,69.229416 146.371811,67.173019 145.959259,65.116631 
	C146.975784,63.952229 147.992294,62.787830 149.025406,61.254402 
	C154.020462,64.027748 155.265244,68.584167 152.464203,74.867447 
z"/>
<path fill="#000000" opacity="1.000000" stroke="none" 
	d="
M129.720673,176.279449 
	C124.460426,173.087921 119.394081,170.290359 114.597816,167.088257 
	C113.309654,166.228241 112.150627,164.153214 112.113716,162.607727 
	C111.887352,153.128448 111.856560,143.636917 112.131058,134.160187 
	C112.181290,132.425674 113.507301,130.047287 114.970772,129.147476 
	C123.110062,124.143112 131.543549,119.618874 139.716324,114.666252 
	C142.104965,113.218773 143.780060,113.142014 146.192139,114.583931 
	C154.526733,119.566254 163.095535,124.158806 171.390518,129.203369 
	C172.740082,130.024094 173.845963,132.366486 173.886368,134.034088 
	C174.120102,143.679504 174.097488,153.335526 173.892868,162.982254 
	C173.863174,164.382843 172.731964,166.312546 171.529694,167.048203 
	C162.087311,172.825821 152.503387,178.372147 143.202911,183.848541 
	C138.707703,181.350906 134.361816,178.936234 129.720673,176.279449 
M116.000328,139.664795 
	C116.000336,146.649124 115.883171,153.636993 116.094536,160.614914 
	C116.139359,162.094574 116.986511,164.187469 118.139664,164.892090 
	C125.396080,169.326141 132.773178,173.580414 140.288193,177.558243 
	C141.747803,178.330856 144.336456,178.274780 145.813354,177.489487 
	C153.029663,173.652481 160.126144,169.568146 167.065948,165.251282 
	C168.482193,164.370285 169.809540,162.143250 169.869461,160.489288 
	C170.158310,152.517670 170.129578,144.525864 169.886749,136.551178 
	C169.839661,135.004318 168.724289,132.898056 167.443451,132.078308 
	C160.017609,127.325752 152.430130,122.819763 144.793030,118.411034 
	C143.858307,117.871429 142.041901,117.963249 141.072876,118.522606 
	C134.123245,122.534225 127.418175,126.985909 120.359467,130.785110 
	C116.861359,132.667908 115.313164,134.893555 116.000328,139.664795 
z"/>
<path fill="#000000" opacity="1.000000" stroke="none" 
	d="
M146.233017,231.275818 
	C143.668854,231.575195 140.409454,232.520935 139.312515,231.382690 
	C137.638077,229.645187 137.458023,226.467529 136.643494,223.901337 
	C139.190659,223.301712 142.175568,221.623810 144.153381,222.426712 
	C145.891083,223.132156 146.599808,226.576904 147.527435,228.905624 
	C147.719528,229.387894 146.873734,230.283615 146.233017,231.275818 
z"/>
<path fill="#000000" opacity="1.000000" stroke="none" 
	d="
M145.576828,65.062500 
	C146.371811,67.173019 146.784348,69.229416 147.181793,71.643372 
	C145.407318,74.879486 142.709869,76.416893 139.997757,74.192749 
	C138.352737,72.843727 136.826279,69.489922 137.386627,67.710793 
	C138.454025,64.321640 141.791916,63.686100 145.576828,65.062500 
z"/>
<path fill="#000000" opacity="1.000000" stroke="none" 
	d="
M173.396164,47.044167 
	C170.607407,44.490246 170.280487,41.820881 172.018219,38.499207 
	C174.378937,37.925705 177.374420,36.774937 178.876114,37.804008 
	C180.575577,38.968605 182.211182,42.547218 181.596893,44.258629 
	C180.497223,47.322353 177.638519,49.621944 173.396164,47.044167 
z"/>
<path fill="#FFFFFF" opacity="1.000000" stroke="none" 
	d="
M116.000328,139.192993 
	C115.313164,134.893555 116.861359,132.667908 120.359467,130.785110 
	C127.418175,126.985909 134.123245,122.534225 141.072876,118.522606 
	C142.041901,117.963249 143.858307,117.871429 144.793030,118.411034 
	C152.430130,122.819763 160.017609,127.325752 167.443451,132.078308 
	C168.724289,132.898056 169.839661,135.004318 169.886749,136.551178 
	C170.129578,144.525864 170.158310,152.517670 169.869461,160.489288 
	C169.809540,162.143250 168.482193,164.370285 167.065948,165.251282 
	C160.126144,169.568146 153.029663,173.652481 145.813354,177.489487 
	C144.336456,178.274780 141.747803,178.330856 140.288193,177.558243 
	C132.773178,173.580414 125.396080,169.326141 118.139664,164.892090 
	C116.986511,164.187469 116.139359,162.094574 116.094536,160.614914 
	C115.883171,153.636993 116.000336,146.649124 116.000328,139.192993 
M149.764801,150.561066 
	C149.509796,151.318466 149.254791,152.075867 148.137573,152.988098 
	C146.686508,153.445175 145.235458,153.902237 143.784393,154.359299 
	C143.964264,154.802338 144.144135,155.245377 144.324020,155.688416 
	C149.178528,155.688416 154.033035,155.688416 158.887558,155.688416 
	C159.033173,155.253922 159.178787,154.819412 159.324402,154.384918 
	C158.212662,153.867828 157.100922,153.350739 155.730820,152.245697 
	C155.626282,151.209412 155.521759,150.173141 156.086761,148.994659 
	C157.021942,148.012680 157.957123,147.030716 159.430145,145.638855 
	C159.272736,144.054413 159.115341,142.469955 158.995956,140.010315 
	C158.185516,139.340469 157.388458,138.109192 156.562546,138.089539 
	C149.902695,137.931046 143.235733,137.927811 136.575607,138.080582 
	C135.600693,138.102936 134.157852,138.976578 133.769379,139.835358 
	C131.406326,145.058975 129.285873,150.392349 127.084450,155.689087 
	C127.473343,155.893356 127.862244,156.097641 128.251144,156.301910 
	C129.160812,154.901413 130.705902,153.565491 130.856049,152.087830 
	C131.242371,148.285492 133.372910,147.801224 136.520920,147.957672 
	C141.006226,148.180618 145.506073,148.111252 150.000000,148.777832 
	C150.000000,149.185226 150.000000,149.592606 149.764801,150.561066 
z"/>
<path fill="#000000" opacity="1.000000" stroke="none" 
	d="
M149.999710,148.166748 
	C145.506073,148.111252 141.006226,148.180618 136.520920,147.957672 
	C133.372910,147.801224 131.242371,148.285492 130.856049,152.087830 
	C130.705902,153.565491 129.160812,154.901413 128.251144,156.301910 
	C127.862244,156.097641 127.473343,155.893356 127.084450,155.689087 
	C129.285873,150.392349 131.406326,145.058975 133.769379,139.835358 
	C134.157852,138.976578 135.600693,138.102936 136.575607,138.080582 
	C143.235733,137.927811 149.902695,137.931046 156.562546,138.089539 
	C157.388458,138.109192 158.185516,139.340469 158.527847,140.501038 
	C155.039993,141.050079 152.020233,141.108414 148.540588,141.089417 
	C143.778473,141.012085 139.476257,141.012085 135.393005,141.012085 
	C134.870697,142.787201 134.465027,144.165955 133.974442,145.833267 
	C139.444702,145.833267 144.722565,145.833267 150.440613,145.910553 
	C153.551300,146.008118 156.221802,146.028427 158.892303,146.048737 
	C157.957123,147.030716 157.021942,148.012680 155.477173,148.900757 
	C154.056885,148.599518 153.246170,148.392181 152.224106,148.098480 
	C151.341736,148.063644 150.670731,148.115189 149.999710,148.166748 
z"/>
<path fill="#FFFFFF" opacity="1.000000" stroke="none" 
	d="
M149.000488,141.166748 
	C152.020233,141.108414 155.039993,141.050079 158.508835,140.938629 
	C159.115341,142.469955 159.272736,144.054413 159.161224,145.843796 
	C156.221802,146.028427 153.551300,146.008118 150.436127,145.564621 
	C149.661133,143.816528 149.330811,142.491623 149.000488,141.166748 
z"/>
<path fill="#000000" opacity="1.000000" stroke="none" 
	d="
M155.989182,152.833649 
	C157.100922,153.350739 158.212662,153.867828 159.324402,154.384918 
	C159.178787,154.819412 159.033173,155.253922 158.887558,155.688416 
	C154.033035,155.688416 149.178528,155.688416 144.324020,155.688416 
	C144.144135,155.245377 143.964264,154.802338 143.784393,154.359299 
	C145.235458,153.902237 146.686508,153.445175 149.000458,152.988022 
	C151.905273,152.936508 153.947235,152.885086 155.989182,152.833649 
z"/>
<path fill="#FFFFFF" opacity="1.000000" stroke="none" 
	d="
M155.860001,152.539673 
	C153.947235,152.885086 151.905273,152.936508 149.431549,152.910614 
	C149.254791,152.075867 149.509796,151.318466 150.440735,150.192322 
	C151.556274,149.277344 151.995865,148.731094 152.435455,148.184845 
	C153.246170,148.392181 154.056885,148.599518 155.142410,148.971863 
	C155.521759,150.173141 155.626282,151.209412 155.860001,152.539673 
z"/>
<path fill="#FFFFFF" opacity="1.000000" stroke="none" 
	d="
M152.224106,148.098480 
	C151.995865,148.731094 151.556274,149.277344 150.558334,149.911804 
	C150.000000,149.592606 150.000000,149.185226 149.999847,148.472290 
	C150.670731,148.115189 151.341736,148.063644 152.224106,148.098480 
z"/>
<path fill="#FFFFFF" opacity="1.000000" stroke="none" 
	d="
M148.540588,141.089417 
	C149.330811,142.491623 149.661133,143.816528 149.995941,145.487335 
	C144.722565,145.833267 139.444702,145.833267 133.974442,145.833267 
	C134.465027,144.165955 134.870697,142.787201 135.393005,141.012085 
	C139.476257,141.012085 143.778473,141.012085 148.540588,141.089417 
z"/>
</svg>