<?xml version="1.0" encoding="UTF-8"?>
<svg version="1.1" xmlns="http://www.w3.org/2000/svg" width="500" height="500">
<path d="M0 0 C1.13929134 1.12306212 2.23074481 2.2944056 3.30859375 3.4765625 C3.63859375 3.8065625 3.96859375 4.1365625 4.30859375 4.4765625 C5.41012738 11.82012 5.41173035 19.06218716 5.30859375 26.4765625 C1.10733663 24.97808348 -0.08037512 22.50091872 -2.12890625 18.6640625 C-4.61945938 14.18214038 -6.92833417 10.89753712 -10.69140625 7.4765625 C-10.69140625 6.8165625 -10.69140625 6.1565625 -10.69140625 5.4765625 C-11.24183594 5.22777344 -11.79226563 4.97898437 -12.359375 4.72265625 C-15.13326612 3.24045982 -17.4997209 1.44110993 -20.00390625 -0.4609375 C-29.88664416 -7.70565374 -39.47516974 -9.55822459 -51.69140625 -8.5234375 C-64.08283415 -6.02888309 -74.72670346 -1.61314246 -82.69140625 8.4765625 C-94.61423287 27.16123268 -96.928892 47.94222129 -92.23046875 69.30419922 C-89.18810934 81.56457693 -82.9047512 94.27195643 -73.9140625 103.25 C-71.69140625 105.4765625 -71.69140625 105.4765625 -71.69140625 107.4765625 C-71.07265625 107.7653125 -70.45390625 108.0540625 -69.81640625 108.3515625 C-67.69140625 109.4765625 -67.69140625 109.4765625 -65.69140625 111.4765625 C-65.69362686 110.61434586 -65.69584747 109.75212921 -65.69813538 108.86378479 C-65.7181362 100.75550214 -65.73337931 92.64722773 -65.74321842 84.53892612 C-65.74844676 80.36993422 -65.75554351 76.20096263 -65.7668457 72.03198242 C-65.77767633 68.01198564 -65.78368346 63.99200845 -65.78628349 59.97199821 C-65.78813743 58.43493275 -65.79175744 56.89786841 -65.79713631 55.36081123 C-65.80434909 53.21520763 -65.80539709 51.06968595 -65.80493164 48.92407227 C-65.80715225 47.70051529 -65.80937286 46.47695831 -65.81166077 45.21632385 C-65.69140625 42.4765625 -65.69140625 42.4765625 -64.69140625 41.4765625 C-52.35626831 40.35763278 -39.47345567 39.72919718 -28.69140625 46.4765625 C-27.840625 46.97285156 -26.98984375 47.46914062 -26.11328125 47.98046875 C-11.91443368 57.01807878 -3.74424103 71.22082454 3.53515625 85.93359375 C4.94716584 89.22040441 4.94716584 89.22040441 6.30859375 90.4765625 C7.29859375 85.5265625 8.28859375 80.5765625 9.30859375 75.4765625 C10.29859375 75.1465625 11.28859375 74.8165625 12.30859375 74.4765625 C12.33761543 78.89321538 12.35539983 83.30984373 12.37109375 87.7265625 C12.37947266 88.98082031 12.38785156 90.23507813 12.39648438 91.52734375 C12.39970703 92.73261719 12.40292969 93.93789062 12.40625 95.1796875 C12.41148682 96.28989258 12.41672363 97.40009766 12.42211914 98.54394531 C12.30859375 101.4765625 12.30859375 101.4765625 11.74462891 103.63745117 C10.94415568 107.01369128 12.56962062 110.32195364 13.62109375 113.5390625 C15.19705658 118.41960835 16.5007612 123.20940168 17.39135742 128.26733398 C17.56503342 129.24629135 17.73870941 130.22524872 17.91764832 131.23387146 C18.11116631 132.34400352 18.11116631 132.34400352 18.30859375 133.4765625 C18.35492733 121.43723844 18.39046821 109.39793558 18.41221809 97.35854053 C18.42265675 91.76821049 18.43681757 86.17794143 18.45947266 80.58764648 C18.48119793 75.19305 18.49316176 69.7985122 18.49834824 64.40387535 C18.50204454 62.34538537 18.50926244 60.28689862 18.52005386 58.22843361 C18.53456446 55.34598466 18.53657186 52.46377841 18.53564453 49.58129883 C18.54643036 48.30383537 18.54643036 48.30383537 18.55743408 47.00056458 C18.54236588 42.67417033 18.25642988 39.43465908 16.30859375 35.4765625 C15.31839709 31.59776668 15.14425344 27.91142505 15.12109375 23.9140625 C15.10691406 22.79902344 15.09273438 21.68398437 15.078125 20.53515625 C15.29992186 17.59164873 15.77489365 15.9559433 17.30859375 13.4765625 C20.07501193 13.55792774 21.81957052 14.0437351 23.90625 15.890625 C27.11385277 19.46863891 29.4058671 22.66202037 30.30859375 27.4765625 C29.93359375 31.3515625 29.93359375 31.3515625 29.30859375 34.4765625 C30.29859375 34.8065625 31.28859375 35.1365625 32.30859375 35.4765625 C32.30859375 37.4565625 32.30859375 39.4365625 32.30859375 41.4765625 C33.29859375 41.4765625 34.28859375 41.4765625 35.30859375 41.4765625 C35.3786019 59.4349629 35.43154163 77.393328 35.46403027 95.35183525 C35.47951468 103.68984405 35.50063412 112.02776819 35.53491211 120.36572266 C35.56476645 127.63109489 35.58415729 134.89640583 35.59085923 142.1618377 C35.59477826 146.01065731 35.60402084 149.85930151 35.62578392 153.70806503 C35.64608665 157.32775827 35.65244029 160.94720317 35.64791679 164.56694794 C35.64914077 166.53468485 35.66531533 168.50239447 35.68185425 170.47006226 C35.67773026 171.63396484 35.67360626 172.79786743 35.6693573 173.99703979 C35.67212268 175.01285566 35.67488806 176.02867153 35.67773724 177.0752697 C35.55591989 177.86769632 35.43410254 178.66012295 35.30859375 179.4765625 C34.31859375 180.1365625 33.32859375 180.7965625 32.30859375 181.4765625 C32.63859375 182.7965625 32.96859375 184.1165625 33.30859375 185.4765625 C33.96859375 185.4765625 34.62859375 185.4765625 35.30859375 185.4765625 C35.98014308 186.76569737 36.64568234 188.05796454 37.30859375 189.3515625 C37.67984375 190.07085937 38.05109375 190.79015625 38.43359375 191.53125 C39.30859375 193.4765625 39.30859375 193.4765625 39.30859375 195.4765625 C39.96859375 195.4765625 40.62859375 195.4765625 41.30859375 195.4765625 C41.63859375 196.1365625 41.96859375 196.7965625 42.30859375 197.4765625 C44.4270566 198.16385504 44.4270566 198.16385504 46.87109375 198.6015625 C48.11052734 198.85292969 48.11052734 198.85292969 49.375 199.109375 C50.01308594 199.23054687 50.65117187 199.35171875 51.30859375 199.4765625 C49.32859375 200.4665625 49.32859375 200.4665625 47.30859375 201.4765625 C49.61859375 201.4765625 51.92859375 201.4765625 54.30859375 201.4765625 C54.63859375 202.1365625 54.96859375 202.7965625 55.30859375 203.4765625 C57.07203125 203.8478125 57.07203125 203.8478125 58.87109375 204.2265625 C65.73859288 205.79240162 71.56319698 210.57035991 75.30859375 216.4765625 C78.06709009 223.78657781 78.30715069 230.44003916 75.27734375 237.59375 C72.10878746 243.75199247 67.77793702 247.35295405 61.30859375 249.4765625 C54.628484 250.87986613 49.29734547 251.16194817 43.30859375 247.4765625 C38.75934333 243.62865485 34.17763109 239.27860087 32.80859375 233.2890625 C32.40952729 231.07109969 32.40952729 231.07109969 29.30859375 229.4765625 C28.97859375 229.1465625 28.64859375 228.8165625 28.30859375 228.4765625 C28.39560547 229.79720703 28.39560547 229.79720703 28.484375 231.14453125 C28.85234333 240.61708736 28.85234333 240.61708736 26.37109375 244.5390625 C20.22362126 248.42827979 13.82951986 252.14634609 6.30859375 250.4765625 C2.83672167 249.03700579 -0.43312846 247.34606615 -3.69140625 245.4765625 C-3.69140625 244.8165625 -3.69140625 244.1565625 -3.69140625 243.4765625 C-4.35140625 243.4765625 -5.01140625 243.4765625 -5.69140625 243.4765625 C-6.9453125 241.8671875 -6.9453125 241.8671875 -8.25390625 239.7265625 C-8.68832031 239.03046875 -9.12273437 238.334375 -9.5703125 237.6171875 C-12.09290487 232.80053029 -12.18958701 227.81162551 -11.69140625 222.4765625 C-10.1162149 217.66808365 -7.74688005 214.11080975 -4.7734375 210.11328125 C-3.32653247 207.92464151 -2.7662156 206.09488959 -2.69140625 203.4765625 C-3.35140625 202.8165625 -4.01140625 202.1565625 -4.69140625 201.4765625 C-3.15601854 196.01740622 -0.24475855 191.79280201 4.30859375 188.4765625 C9.86402798 186.09798216 15.72526519 184.54084722 21.56201172 183.01391602 C23.31851691 182.62261059 23.31851691 182.62261059 24.30859375 181.4765625 C22.65859375 180.8165625 21.00859375 180.1565625 19.30859375 179.4765625 C19.24913574 178.52910156 19.24913574 178.52910156 19.18847656 177.5625 C17.84109096 156.89762463 15.27166915 136.74420295 9.88354492 116.7175293 C9.57574097 115.56957886 9.57574097 115.56957886 9.26171875 114.3984375 C9.07770508 113.73424805 8.89369141 113.07005859 8.70410156 112.38574219 C8.30859375 110.4765625 8.30859375 110.4765625 8.30859375 106.4765625 C7.31859375 106.4765625 6.32859375 106.4765625 5.30859375 106.4765625 C5.11007812 107.04503906 4.9115625 107.61351562 4.70703125 108.19921875 C2.75954824 111.37067852 0.02729393 112.98952438 -3.06640625 114.9140625 C-4.00262817 115.50392944 -4.00262817 115.50392944 -4.95776367 116.10571289 C-18.05841165 124.15883156 -30.36182161 127.32382746 -45.69140625 126.4765625 C-46.68140625 126.1465625 -47.67140625 125.8165625 -48.69140625 125.4765625 C-48.68918564 126.150858 -48.68696503 126.8251535 -48.68467712 127.5198822 C-48.66262696 134.51088941 -48.64750078 141.50188681 -48.63647461 148.49291992 C-48.63143248 151.10522869 -48.624599 153.71753461 -48.6159668 156.32983398 C-48.60389589 160.07536518 -48.5981769 163.82085922 -48.59375 167.56640625 C-48.58858871 168.74242905 -48.58342743 169.91845184 -48.57810974 171.13011169 C-48.57803421 172.21115677 -48.57795868 173.29220184 -48.57788086 174.40600586 C-48.57566025 175.36308945 -48.57343964 176.32017303 -48.57115173 177.30625916 C-48.69140625 179.4765625 -48.69140625 179.4765625 -49.69140625 180.4765625 C-52.20276729 180.57631282 -54.6804404 180.61538433 -57.19140625 180.6015625 C-58.24521484 180.60736328 -58.24521484 180.60736328 -59.3203125 180.61328125 C-64.56479247 180.60317628 -64.56479247 180.60317628 -65.69140625 179.4765625 C-65.75556305 177.69572064 -65.74837617 175.91226387 -65.71313477 174.13061523 C-65.69303848 172.9895079 -65.6729422 171.84840057 -65.65223694 170.67271423 C-65.62520187 169.4310701 -65.59816681 168.18942596 -65.5703125 166.91015625 C-65.53489601 165.01451683 -65.53489601 165.01451683 -65.49876404 163.08058167 C-65.43497851 159.71524888 -65.36679132 156.3500627 -65.29650879 152.98486328 C-65.22590782 149.55313032 -65.16104165 146.1212896 -65.09570312 142.68945312 C-64.9662487 135.95171043 -64.83099426 129.21410246 -64.69140625 122.4765625 C-65.7899292 122.17564697 -66.88845215 121.87473145 -68.02026367 121.56469727 C-83.49753455 116.9772 -96.345578 102.52246992 -104.015625 88.83203125 C-111.75379044 73.33766269 -113.55592603 57.33606087 -109.69140625 40.4765625 C-109.33949219 38.91035156 -109.33949219 38.91035156 -108.98046875 37.3125 C-103.93365804 18.28278253 -91.46852381 3.86924378 -74.69921875 -5.90234375 C-51.03175053 -18.65818701 -20.63031166 -18.58157401 0 0 Z M27.30859375 40.4765625 C31.30859375 41.4765625 31.30859375 41.4765625 31.30859375 41.4765625 Z M-48.69140625 45.4765625 C-48.69140625 70.5565625 -48.69140625 95.6365625 -48.69140625 121.4765625 C-35.21959242 122.68981817 -35.21959242 122.68981817 -22.69140625 120.4765625 C-21.87414062 120.24195313 -21.056875 120.00734375 -20.21484375 119.765625 C-10.32969417 116.42976957 -3.48300185 109.15368624 2.4453125 100.8125 C3.9572015 96.72150622 3.04348268 93.25687926 1.40844727 89.29589844 C0.2523198 86.87879673 -0.97856478 84.52040097 -2.25390625 82.1640625 C-2.70209717 81.32464111 -3.15028809 80.48521973 -3.61206055 79.62036133 C-7.04348417 73.34007083 -10.91123847 67.81095263 -15.69140625 62.4765625 C-16.45066406 61.49816406 -17.20992187 60.51976562 -17.9921875 59.51171875 C-20.75473094 56.18943401 -23.92022833 53.99652576 -27.56640625 51.7265625 C-28.15292969 51.34113281 -28.73945313 50.95570313 -29.34375 50.55859375 C-35.75952054 46.48352192 -40.96800076 45.4765625 -48.69140625 45.4765625 Z " fill="#B2972A" transform="translate(288.69140625,118.5234375)"/>
<path d="M0 0 C4.62 0 9.24 0 14 0 C13.34 0.66 12.68 1.32 12 2 C12.3185177 4.10820797 12.3185177 4.10820797 13 6 C13.66 6 14.32 6 15 6 C15.67154933 7.28913487 16.33708859 8.58140204 17 9.875 C17.37125 10.59429687 17.7425 11.31359375 18.125 12.0546875 C19 14 19 14 19 16 C19.66 16 20.32 16 21 16 C21.495 16.99 21.495 16.99 22 18 C24.11846285 18.68729254 24.11846285 18.68729254 26.5625 19.125 C27.38878906 19.29257812 28.21507812 19.46015625 29.06640625 19.6328125 C29.70449219 19.75398438 30.34257812 19.87515625 31 20 C29.02 20.99 29.02 20.99 27 22 C29.31 22 31.62 22 34 22 C34.495 22.99 34.495 22.99 35 24 C36.175625 24.2475 37.35125 24.495 38.5625 24.75 C45.42999913 26.31583912 51.25460323 31.09379741 55 37 C57.75849634 44.31001531 57.99855694 50.96347666 54.96875 58.1171875 C51.80019371 64.27542997 47.46934327 67.87639155 41 70 C34.31989025 71.40330363 28.98875172 71.68538567 23 68 C18.45074958 64.15209235 13.86903734 59.80203837 12.5 53.8125 C12.10093354 51.59453719 12.10093354 51.59453719 9 50 C8.67 49.67 8.34 49.34 8 49 C8.05800781 49.88042969 8.11601562 50.76085937 8.17578125 51.66796875 C8.54374958 61.14052486 8.54374958 61.14052486 6.0625 65.0625 C-0.08497249 68.95171729 -6.47907389 72.66978359 -14 71 C-17.47187208 69.56044329 -20.74172221 67.86950365 -24 66 C-24 65.34 -24 64.68 -24 64 C-24.66 64 -25.32 64 -26 64 C-27.25390625 62.390625 -27.25390625 62.390625 -28.5625 60.25 C-28.99691406 59.55390625 -29.43132812 58.8578125 -29.87890625 58.140625 C-32.40149862 53.32396779 -32.49818076 48.33506301 -32 43 C-30.42480865 38.19152115 -28.0554738 34.63424725 -25.08203125 30.63671875 C-23.63512622 28.44807901 -23.07480935 26.61832709 -23 24 C-23.66 23.34 -24.32 22.68 -25 22 C-23.46461229 16.54084372 -20.5533523 12.31623951 -16 9 C-10.44456577 6.62141966 -4.58332856 5.06428472 1.25341797 3.53735352 C3.00992316 3.14604809 3.00992316 3.14604809 4 2 C2.68 1.34 1.36 0.68 0 0 Z " fill="#F0EFEC" transform="translate(309,298)"/>
<path d="M0 0 C1.13929134 1.12306212 2.23074481 2.2944056 3.30859375 3.4765625 C3.63859375 3.8065625 3.96859375 4.1365625 4.30859375 4.4765625 C5.41012738 11.82012 5.41173035 19.06218716 5.30859375 26.4765625 C1.10733663 24.97808348 -0.08037512 22.50091872 -2.12890625 18.6640625 C-4.61945938 14.18214038 -6.92833417 10.89753712 -10.69140625 7.4765625 C-10.69140625 6.8165625 -10.69140625 6.1565625 -10.69140625 5.4765625 C-11.24183594 5.22777344 -11.79226563 4.97898437 -12.359375 4.72265625 C-15.13326612 3.24045982 -17.4997209 1.44110993 -20.00390625 -0.4609375 C-29.88664416 -7.70565374 -39.47516974 -9.55822459 -51.69140625 -8.5234375 C-64.08283415 -6.02888309 -74.72670346 -1.61314246 -82.69140625 8.4765625 C-94.61423287 27.16123268 -96.928892 47.94222129 -92.23046875 69.30419922 C-89.18810934 81.56457693 -82.9047512 94.27195643 -73.9140625 103.25 C-71.69140625 105.4765625 -71.69140625 105.4765625 -71.69140625 107.4765625 C-70.73234375 107.8478125 -70.73234375 107.8478125 -69.75390625 108.2265625 C-67.69140625 109.4765625 -67.69140625 109.4765625 -67.12890625 111.5390625 C-66.98453125 112.1784375 -66.84015625 112.8178125 -66.69140625 113.4765625 C-65.70140625 113.8065625 -64.71140625 114.1365625 -63.69140625 114.4765625 C-63.69140625 116.7865625 -63.69140625 119.0965625 -63.69140625 121.4765625 C-76.43498004 121.23611771 -85.86042618 111.29194672 -94.40234375 102.76953125 C-106.84958862 89.23562215 -112.23366121 71.54876455 -111.69140625 53.4765625 C-111.36497975 49.03518377 -110.6859119 44.81523 -109.69140625 40.4765625 C-109.33949219 38.91035156 -109.33949219 38.91035156 -108.98046875 37.3125 C-103.93365804 18.28278253 -91.46852381 3.86924378 -74.69921875 -5.90234375 C-51.03175053 -18.65818701 -20.63031166 -18.58157401 0 0 Z " fill="#304946" transform="translate(288.69140625,118.5234375)"/>
<path d="M0 0 C4.62 0 9.24 0 14 0 C14 45.21 14 90.42 14 137 C9.05 137 4.1 137 -1 137 C-2.05728087 130.14016191 -2.11639843 123.43216776 -2.0625 116.5 C-2.05798828 115.39140625 -2.05347656 114.2828125 -2.04882812 113.140625 C-2.03713158 110.42702601 -2.02074086 107.71354239 -2 105 C-1.67 105 -1.34 105 -1 105 C-0.67 70.35 -0.34 35.7 0 0 Z " fill="#AF9323" transform="translate(309,161)"/>
<path d="M0 0 C2.87161016 2.33251606 4.92334219 4.95423521 7 8 C7.639375 8.9075 8.27875 9.815 8.9375 10.75 C11.5246419 18.66361052 10.62535125 26.61502523 7 34 C5.39453125 35.71484375 5.39453125 35.71484375 4 37 C4.66 37.33 5.32 37.66 6 38 C0.27932291 41.55609657 -6.53331252 43.03321952 -13.1953125 41.4921875 C-16.56195195 40.15398354 -17.96829626 39.04755561 -20 36 C-19.236875 36.33 -18.47375 36.66 -17.6875 37 C-15.00930865 38.17436686 -15.00930865 38.17436686 -12 38 C-12.7425 37.46375 -13.485 36.9275 -14.25 36.375 C-19.65393742 31.70796314 -22.66293686 26.29311999 -23.22265625 19.1640625 C-23.38540984 13.43230548 -23.50469636 8.78975169 -20 4 C-13.85547582 -2.29942815 -8.14499781 -3.17028376 0 0 Z " fill="#EFEEEB" transform="translate(350,327)"/>
<path d="M0 0 C2.76641818 0.08136524 4.51097677 0.5671726 6.59765625 2.4140625 C9.80525902 5.99207641 12.09727335 9.18545787 13 14 C12.625 17.875 12.625 17.875 12 21 C12.99 21.33 13.98 21.66 15 22 C15 23.98 15 25.96 15 28 C15.99 28 16.98 28 18 28 C18 73.54 18 119.08 18 166 C17.67 166 17.34 166 17 166 C17 120.79 17 75.58 17 29 C12.38 29 7.76 29 3 29 C3.00666183 30.35889847 3.01332367 31.71779694 3.02018738 33.11787415 C3.08092242 45.90524508 3.12593606 58.69258688 3.15543652 71.48006916 C3.17111268 78.05472625 3.1923867 84.62926719 3.22631836 91.20385742 C3.25884199 97.54509312 3.27683831 103.88621688 3.28463173 110.22752953 C3.29018781 112.65052237 3.30103702 115.07350887 3.31719017 117.49645424 C3.33887111 120.88229382 3.3419708 124.26766697 3.34057617 127.65356445 C3.351362 128.66200912 3.36214783 129.6704538 3.3732605 130.7094574 C3.36707451 132.09135757 3.36707451 132.09135757 3.36076355 133.50117493 C3.36352893 134.30221303 3.36629431 135.10325113 3.36914349 135.92856312 C2.91329156 138.48656163 1.97168318 139.37346106 0 141 C-0.09498779 140.37770508 -0.18997559 139.75541016 -0.2878418 139.11425781 C-0.74485287 136.15792503 -1.21434029 133.20379202 -1.6875 130.25 C-1.86104004 129.1576001 -2.03458008 128.0652002 -2.21337891 126.93969727 C-3.20825124 120.93334114 -4.4427682 115.15687537 -6.17236328 109.32226562 C-9.72387797 97.26834087 -8.80808717 86.33595593 -7 74 C-7.66 74 -8.32 74 -9 74 C-9.33 74.99 -9.66 75.98 -10 77 C-9.57910004 71.39538469 -9.08386889 66.27913453 -7 61 C-6.34 61 -5.68 61 -5 61 C-4.97097832 65.41665288 -4.95319392 69.83328123 -4.9375 74.25 C-4.92912109 75.50425781 -4.92074219 76.75851563 -4.91210938 78.05078125 C-4.90888672 79.25605469 -4.90566406 80.46132812 -4.90234375 81.703125 C-4.89710693 82.81333008 -4.89187012 83.92353516 -4.88647461 85.06738281 C-5 88 -5 88 -5.56396484 90.16088867 C-6.36443807 93.53712878 -4.73897313 96.84539114 -3.6875 100.0625 C-2.11153717 104.94304585 -0.80783255 109.73283918 0.08276367 114.79077148 C0.25643967 115.76972885 0.43011566 116.74868622 0.60905457 117.75730896 C0.73806656 118.497397 0.86707855 119.23748505 1 120 C1.04633358 107.96067594 1.08187446 95.92137308 1.10362434 83.88197803 C1.114063 78.29164799 1.12822382 72.70137893 1.15087891 67.11108398 C1.17260418 61.7164875 1.18456801 56.3219497 1.18975449 50.92731285 C1.19345079 48.86882287 1.20066869 46.81033612 1.21146011 44.75187111 C1.22597071 41.86942216 1.22797811 38.98721591 1.22705078 36.10473633 C1.23424133 35.25309402 1.24143188 34.40145172 1.24884033 33.52400208 C1.23377213 29.19760783 0.94783613 25.95809658 -1 22 C-1.99019666 18.12120418 -2.16434031 14.43486255 -2.1875 10.4375 C-2.20167969 9.32246094 -2.21585937 8.20742187 -2.23046875 7.05859375 C-2.00867189 4.11508623 -1.5337001 2.4793808 0 0 Z M10 27 C14 28 14 28 14 28 Z " fill="#F4F1E2" transform="translate(306,132)"/>
<path d="M0 0 C1.13929134 1.12306212 2.23074481 2.2944056 3.30859375 3.4765625 C3.63859375 3.8065625 3.96859375 4.1365625 4.30859375 4.4765625 C5.41012738 11.82012 5.41173035 19.06218716 5.30859375 26.4765625 C1.10733663 24.97808348 -0.08037512 22.50091872 -2.12890625 18.6640625 C-4.61945938 14.18214038 -6.92833417 10.89753712 -10.69140625 7.4765625 C-10.69140625 6.8165625 -10.69140625 6.1565625 -10.69140625 5.4765625 C-11.24183594 5.22777344 -11.79226563 4.97898437 -12.359375 4.72265625 C-15.13326612 3.24045982 -17.4997209 1.44110993 -20.00390625 -0.4609375 C-29.8471922 -7.67673278 -39.50911452 -9.63350614 -51.69140625 -8.5234375 C-55.44572073 -7.60037258 -59.08821834 -6.51579738 -62.7578125 -5.30078125 C-65.69140625 -4.5234375 -65.69140625 -4.5234375 -68.69140625 -5.5234375 C-67.37140625 -6.1834375 -66.05140625 -6.8434375 -64.69140625 -7.5234375 C-65.99078125 -7.0903125 -65.99078125 -7.0903125 -67.31640625 -6.6484375 C-70.44140625 -5.60677083 -73.56640625 -4.56510417 -76.69140625 -3.5234375 C-69.41985826 -11.32704998 -57.22776421 -13.77677208 -46.96484375 -14.453125 C-28.90119524 -14.841127 -13.96332991 -12.57667128 0 0 Z " fill="#354D4B" transform="translate(288.69140625,118.5234375)"/>
<path d="M0 0 C6.94302946 0.61638285 10.72686739 2.65943081 15.76953125 7.58203125 C19.11890887 11.77688283 20.53621732 16.96996462 22.14453125 22.01953125 C23.36096417 21.02469923 23.36096417 21.02469923 23.25805664 19.07006836 C23.25020142 17.82108765 23.25020142 17.82108765 23.2421875 16.546875 C23.23735352 15.19819336 23.23735352 15.19819336 23.23242188 13.82226562 C23.22404297 12.87673828 23.21566406 11.93121094 23.20703125 10.95703125 C23.20251953 10.00763672 23.19800781 9.05824219 23.19335938 8.08007812 C23.18153235 5.7265006 23.1650515 3.37304648 23.14453125 1.01953125 C24.80067782 0.63734358 26.46910149 0.30558023 28.14453125 0.01953125 C29.14453125 1.01953125 29.14453125 1.01953125 29.26478577 2.77223206 C29.26256516 3.53390182 29.26034454 4.29557159 29.25805664 5.08032227 C29.25798111 5.94113907 29.25790558 6.80195587 29.25782776 7.68885803 C29.25266647 8.62426926 29.24750519 9.55968048 29.2421875 10.5234375 C29.24077255 11.47645248 29.2393576 12.42946747 29.23789978 13.41136169 C29.23228277 16.4682829 29.21972741 19.52513202 29.20703125 22.58203125 C29.20201844 24.64908749 29.19745516 26.71614487 29.19335938 28.78320312 C29.18230781 33.86200713 29.1650318 38.94075695 29.14453125 44.01953125 C27.48838468 44.40171892 25.81996101 44.73348227 24.14453125 45.01953125 C22.47818117 43.35318117 22.9801142 41.18693165 22.89453125 38.89453125 C22.0107473 27.47332328 17.92044656 13.20683169 9.2109375 5.25390625 C6.97337115 3.67764846 6.97337115 3.67764846 3.14453125 4.01953125 C2.81453125 17.21953125 2.48453125 30.41953125 2.14453125 44.01953125 C0.65953125 44.51453125 0.65953125 44.51453125 -0.85546875 45.01953125 C-1.51546875 44.68953125 -2.17546875 44.35953125 -2.85546875 44.01953125 C-2.88011388 37.91398415 -2.89830246 31.80846574 -2.91040039 25.70288086 C-2.91544163 23.62409969 -2.92227449 21.54532209 -2.9309082 19.46655273 C-2.94298297 16.48550539 -2.94869899 13.50450476 -2.953125 10.5234375 C-2.96086693 9.12032066 -2.96086693 9.12032066 -2.96876526 7.68885803 C-2.96884079 6.82804123 -2.96891632 5.96722443 -2.96899414 5.08032227 C-2.97121475 4.3186525 -2.97343536 3.55698273 -2.97572327 2.77223206 C-2.80672117 0.30903883 -2.4720384 0.02602146 0 0 Z " fill="#425755" transform="translate(242.85546875,322.98046875)"/>
<path d="M0 0 C8.26688036 0.1134718 14.24499932 0.93438848 21.35693359 5.38500977 C22.20771484 5.88129883 23.05849609 6.37758789 23.93505859 6.88891602 C38.07533641 15.88924622 46.40880285 30.09556832 53.52099609 44.84204102 C54.93354473 48.41847363 54.93354473 48.41847363 57.35693359 49.38500977 C56.75831617 51.73672107 56.08769008 54.07094757 55.35693359 56.38500977 C54.36693359 56.88000977 54.36693359 56.88000977 53.35693359 57.38500977 C53.18895264 56.83321045 53.02097168 56.28141113 52.84790039 55.71289062 C51.08798067 50.16092425 48.91795974 45.07745829 46.16943359 39.94750977 C45.77796143 39.21177734 45.38648926 38.47604492 44.9831543 37.71801758 C41.70959013 31.72340621 37.8624261 26.51760508 33.35693359 21.38500977 C32.45007813 20.15911133 32.45007813 20.15911133 31.52490234 18.90844727 C28.99364455 15.96215441 26.20414055 13.86935518 22.98193359 11.76000977 C22.44955078 11.37844727 21.91716797 10.99688477 21.36865234 10.60375977 C14.79434538 6.28051936 9.89074797 6.21368427 1.35693359 4.38500977 C1.35693359 29.46500977 1.35693359 54.54500977 1.35693359 80.38500977 C1.02693359 80.38500977 0.69693359 80.38500977 0.35693359 80.38500977 C0.35693359 54.64500977 0.35693359 28.90500977 0.35693359 2.38500977 C-6.57306641 1.89000977 -6.57306641 1.89000977 -13.64306641 1.38500977 C-13.64306641 24.81500977 -13.64306641 48.24500977 -13.64306641 72.38500977 C-14.63306641 72.38500977 -15.62306641 72.38500977 -16.64306641 72.38500977 C-16.14806641 71.39500977 -16.14806641 71.39500977 -15.64306641 70.38500977 C-15.55631993 68.20476996 -15.5360313 66.02178843 -15.54541016 63.83984375 C-15.54760056 62.83232056 -15.54760056 62.83232056 -15.54983521 61.80444336 C-15.55364343 60.3448202 -15.55976235 58.88520167 -15.56790161 57.42559624 C-15.58063314 55.11901298 -15.58717232 52.81248701 -15.59204102 50.50587463 C-15.60348449 45.61139401 -15.62273366 40.71696048 -15.64306641 35.82250977 C-15.66661631 30.14919947 -15.68702032 24.47591597 -15.69900513 18.80256844 C-15.70551511 16.52405865 -15.71802232 14.24563039 -15.73071289 11.96714783 C-15.7343435 10.57835971 -15.73769547 9.18957082 -15.74072266 7.80078125 C-15.74595947 6.58325668 -15.75119629 5.36573212 -15.7565918 4.11131287 C-15.48232924 -2.47508024 -5.05974601 0.01520668 0 0 Z " fill="#E5DDB3" transform="translate(238.64306640625,159.614990234375)"/>
<path d="M0 0 C1.68134713 2.5220207 1.32151668 4.73974987 1.125 7.6875 C0.135 7.6875 -0.855 7.6875 -1.875 7.6875 C-2.88851664 6.02901823 -3.88620795 4.36084039 -4.875 2.6875 C-8.11018002 -0.64011373 -11.05235171 -2.16538593 -15.75 -2.5390625 C-19.85908071 -2.10096198 -22.84175293 -0.01027274 -25.875 2.6875 C-29.30477733 7.44493306 -30.02692444 12.91437111 -29.875 18.6875 C-28.49096369 25.16158718 -25.12428178 30.74493846 -20.125 35.0625 C-15.83724232 37.20637884 -13.63934281 37.21687142 -8.875 36.6875 C-6.05719466 35.29864752 -6.05719466 35.29864752 -3.875 33.6875 C-3.215 33.6875 -2.555 33.6875 -1.875 33.6875 C-0.885 30.3875 0.105 27.0875 1.125 23.6875 C2.115 24.0175 3.105 24.3475 4.125 24.6875 C3.29298892 29.59636536 2.86736658 31.91138948 -0.625 35.5625 C-6.42985938 39.35798498 -12.00981263 40.76396138 -18.875 39.6875 C-24.62692409 37.64349761 -29.78099472 35.13294929 -32.875 29.6875 C-35.75496303 23.02208337 -36.49450538 17.47336623 -35.3125 10.25 C-32.92925057 4.34368619 -29.15363548 0.100254 -23.75 -3.25 C-15.00667502 -6.4812288 -7.63170065 -5.34219046 0 0 Z " fill="#425856" transform="translate(166.875,328.3125)"/>
<path d="M0 0 C0.33 0 0.66 0 1 0 C1.07005067 14.15998612 1.1227694 28.3199454 1.15543652 42.48006916 C1.17111268 49.05472625 1.1923867 55.62926719 1.22631836 62.20385742 C1.25884199 68.54509312 1.27683831 74.88621688 1.28463173 81.22752953 C1.29018781 83.65052237 1.30103702 86.07350887 1.31719017 88.49645424 C1.33887111 91.88229382 1.3419708 95.26766697 1.34057617 98.65356445 C1.351362 99.66200912 1.36214783 100.6704538 1.3732605 101.7094574 C1.36707451 103.09135757 1.36707451 103.09135757 1.36076355 104.50117493 C1.36352893 105.30221303 1.36629431 106.10325113 1.36914349 106.92856312 C0.91329156 109.48656163 -0.02831682 110.37346106 -2 112 C-2.09498779 111.37770508 -2.18997559 110.75541016 -2.2878418 110.11425781 C-2.74485287 107.15792503 -3.21434029 104.20379202 -3.6875 101.25 C-3.86104004 100.1576001 -4.03458008 99.0652002 -4.21337891 97.93969727 C-5.20825124 91.93334114 -6.4427682 86.15687537 -8.17236328 80.32226562 C-11.72387797 68.26834087 -10.80808717 57.33595593 -9 45 C-9.66 45 -10.32 45 -11 45 C-11.33 45.99 -11.66 46.98 -12 48 C-11.57910004 42.39538469 -11.08386889 37.27913453 -9 32 C-8.34 32 -7.68 32 -7 32 C-6.97097832 36.41665288 -6.95319392 40.83328123 -6.9375 45.25 C-6.92912109 46.50425781 -6.92074219 47.75851563 -6.91210938 49.05078125 C-6.90888672 50.25605469 -6.90566406 51.46132812 -6.90234375 52.703125 C-6.89710693 53.81333008 -6.89187012 54.92353516 -6.88647461 56.06738281 C-7 59 -7 59 -7.56396484 61.16088867 C-8.36443807 64.53712878 -6.73897313 67.84539114 -5.6875 71.0625 C-4.11153717 75.94304585 -2.80783255 80.73283918 -1.91723633 85.79077148 C-1.74356033 86.76972885 -1.56988434 87.74868622 -1.39094543 88.75730896 C-1.26193344 89.497397 -1.13292145 90.23748505 -1 91 C-1.00580078 89.75081787 -1.01160156 88.50163574 -1.01757812 87.21459961 C-1.07104421 69.77241983 -0.8101715 52.33785384 -0.53643799 34.89849854 C-0.47482608 30.94862799 -0.41524635 26.99872678 -0.35546875 23.04882812 C-0.23890887 15.36585496 -0.12018975 7.68291733 0 0 Z " fill="#E0D7B7" transform="translate(308,161)"/>
<path d="M0 0 C4.62 0 9.24 0 14 0 C13.34 0.66 12.68 1.32 12 2 C12.3185177 4.10820797 12.3185177 4.10820797 13 6 C13.66 6 14.32 6 15 6 C15.67154933 7.28913487 16.33708859 8.58140204 17 9.875 C17.37125 10.59429687 17.7425 11.31359375 18.125 12.0546875 C19 14 19 14 19 16 C19.66 16 20.32 16 21 16 C21.495 16.99 21.495 16.99 22 18 C24.11846285 18.68729254 24.11846285 18.68729254 26.5625 19.125 C27.38878906 19.29257812 28.21507812 19.46015625 29.06640625 19.6328125 C29.70449219 19.75398438 30.34257812 19.87515625 31 20 C29.02 20.99 29.02 20.99 27 22 C29.31 22 31.62 22 34 22 C34.495 23.485 34.495 23.485 35 25 C33.62773731 25.22566098 32.25189728 25.42959874 30.875 25.625 C29.72644531 25.79902344 29.72644531 25.79902344 28.5546875 25.9765625 C25.16511988 26.00765945 23.04429379 25.52830943 20 24 C18.63025148 21.61860716 17.70662497 19.67001658 16.8125 17.125 C14.67463836 11.1230715 14.67463836 11.1230715 11 6 C6.35210184 5.3743214 3.14423924 6.11463166 -1.04296875 8.15625 C-3.3592991 9.1549074 -5.6785112 9.70359612 -8.125 10.3125 C-13.19071885 11.74445092 -14.99720595 13.77732087 -18 18 C-18.66 18 -19.32 18 -20 18 C-19.67 20.64 -19.34 23.28 -19 26 C-20.32 26.99 -21.64 27.98 -23 29 C-23.5625 27.0625 -23.5625 27.0625 -24 25 C-23.67 24.67 -23.34 24.34 -23 24 C-23.66 23.34 -24.32 22.68 -25 22 C-23.46461229 16.54084372 -20.5533523 12.31623951 -16 9 C-10.44456577 6.62141966 -4.58332856 5.06428472 1.25341797 3.53735352 C3.00992316 3.14604809 3.00992316 3.14604809 4 2 C2.68 1.34 1.36 0.68 0 0 Z " fill="#FFFFF9" transform="translate(309,298)"/>
<path d="M0 0 C1.65 0.33 3.3 0.66 5 1 C5 15.19 5 29.38 5 44 C1 45 1 45 -1 44 C-1.02464513 37.8944529 -1.04283371 31.78893449 -1.05493164 25.68334961 C-1.05997288 23.60456844 -1.06680574 21.52579084 -1.07543945 19.44702148 C-1.08751422 16.46597414 -1.09323024 13.48497351 -1.09765625 10.50390625 C-1.10539818 9.10078941 -1.10539818 9.10078941 -1.11329651 7.66932678 C-1.11337204 6.80850998 -1.11344757 5.94769318 -1.11352539 5.06079102 C-1.115746 4.29912125 -1.11796661 3.53745148 -1.12025452 2.75270081 C-1 1 -1 1 0 0 Z " fill="#526664" transform="translate(211,323)"/>
<path d="M0 0 C1.65 0.33 3.3 0.66 5 1 C5 15.19 5 29.38 5 44 C3.02 44 1.04 44 -1 44 C-1.77837616 33.06680865 -2.10678703 22.26949197 -1.625 11.3125 C-1.58189697 10.3030835 -1.53879395 9.29366699 -1.49438477 8.25366211 C-1.13484874 1.13484874 -1.13484874 1.13484874 0 0 Z " fill="#4A5F5D" transform="translate(200,323)"/>
<path d="M0 0 C0 14.19 0 28.38 0 43 C-2.475 43.495 -2.475 43.495 -5 44 C-6.52791083 42.47208917 -6.16183457 41.07010592 -6.20532227 38.93920898 C-6.2352401 37.64798378 -6.2352401 37.64798378 -6.26576233 36.33067322 C-6.28247482 35.39526199 -6.29918732 34.45985077 -6.31640625 33.49609375 C-6.33718735 32.54307877 -6.35796844 31.59006378 -6.37937927 30.60816956 C-6.44498177 27.5513559 -6.50380918 24.49445344 -6.5625 21.4375 C-6.60567506 19.37043337 -6.64928901 17.30337586 -6.69335938 15.23632812 C-6.80067401 10.15764405 -6.90191091 5.0788703 -7 0 C-5 -1 -5 -1 0 0 Z " fill="#405654" transform="translate(181,324)"/>
<path d="M0 0 C0.66 0.33 1.32 0.66 2 1 C0.73046875 2.43229167 -0.5390625 3.86458333 -1.80859375 5.296875 C-5.2568351 10.22616427 -4.62389795 17.29378732 -4 23 C-2.07255483 28.8703102 0.58781841 33.75269105 6 37 C8.6794645 38.24016669 8.6794645 38.24016669 11 39 C11 39.33 11 39.66 11 40 C5.57960425 40.40652968 1.92984325 39.03993514 -3 37 C-3 36.34 -3 35.68 -3 35 C-3.66 35 -4.32 35 -5 35 C-6.25390625 33.390625 -6.25390625 33.390625 -7.5625 31.25 C-7.99691406 30.55390625 -8.43132812 29.8578125 -8.87890625 29.140625 C-11.97152092 23.23556284 -11.73653112 16.66992532 -10 10.375 C-7.38305829 5.95891087 -4.01266235 3.13578602 0 0 Z " fill="#485D5B" transform="translate(288,327)"/>
<path d="M0 0 C0.66 0 1.32 0 2 0 C2.02714735 2.22909871 2.04646254 4.45829367 2.0625 6.6875 C2.07410156 7.92886719 2.08570313 9.17023438 2.09765625 10.44921875 C2.01478673 13.46235454 1.70839449 16.08275339 1 19 C-0.32 19 -1.64 19 -3 19 C-3.18691406 19.56074219 -3.37382812 20.12148437 -3.56640625 20.69921875 C-5.64720175 24.03869709 -8.67410237 25.76338986 -11.9375 27.8125 C-12.57107422 28.23208984 -13.20464844 28.65167969 -13.85742188 29.08398438 C-15.51849833 30.14420878 -17.2564981 31.08160364 -19 32 C-19.99 31.67 -20.98 31.34 -22 31 C-20.60243441 27.71286869 -19.04355249 26.00511388 -16.25 23.8125 C-12.38297645 20.57123117 -9.83371869 17.11702241 -7.2265625 12.8203125 C-6 11 -6 11 -4 10 C-2.86897474 7.65961814 -2.86897474 7.65961814 -1.875 4.9375 C-1.34519531 3.55884766 -1.34519531 3.55884766 -0.8046875 2.15234375 C-0.53914063 1.44207031 -0.27359375 0.73179687 0 0 Z " fill="#536764" transform="translate(297,206)"/>
<path d="M0 0 C0.66 0.33 1.32 0.66 2 1 C0.73046875 2.46484375 -0.5390625 3.9296875 -1.80859375 5.39453125 C-5.26794604 10.05615024 -4.49091801 16.51126393 -4 22 C-2.19169041 28.5747778 1.13886928 33.50894792 6.9375 37.25 C9.58787299 38.213772 12.21180075 38.61979101 15 39 C15 39.33 15 39.66 15 40 C7.38995542 40.71493112 2.10173709 39.74192139 -4 35 C-7.74497612 31.72604149 -9.70393008 28.83609254 -10.50390625 23.875 C-10.78659515 15.9961869 -9.6460532 10.1351579 -4.3984375 4.18359375 C-2.98282584 2.73779132 -1.4972228 1.36111164 0 0 Z " fill="#374F4D" transform="translate(332,327)"/>
<path d="M0 0 C5.9915938 0.12482487 8.93737317 2.00459498 13.26953125 6.09375 C18.48927198 11.8437127 19.48661292 18.60771976 19.40625 26.1015625 C18.7194764 31.00142796 16.52551196 34.57390595 13 38 C10.53990162 39.25705626 8.77827894 39.61104095 6 40 C6.78375 39.13375 7.5675 38.2675 8.375 37.375 C12.96466163 31.7581903 13.51114583 26.1447359 13.37890625 19.0390625 C12.60112103 12.80074395 9.5677978 8.08171976 4.8125 4.0625 C3.884375 3.381875 2.95625 2.70125 2 2 C1.34 1.34 0.68 0.68 0 0 Z " fill="#3E5552" transform="translate(346,325)"/>
<path d="M0 0 C0.66 0 1.32 0 2 0 C2.02902168 4.41665288 2.04680608 8.83328123 2.0625 13.25 C2.07087891 14.50425781 2.07925781 15.75851563 2.08789062 17.05078125 C2.09111328 18.25605469 2.09433594 19.46132812 2.09765625 20.703125 C2.10289307 21.81333008 2.10812988 22.92353516 2.11352539 24.06738281 C2 27 2 27 1.43164062 29.16308594 C0.64123235 32.52679174 2.35925076 35.80825535 3.4375 39 C5.71722022 46.1384171 6.65345436 52.46349304 6 60 C-0.05137414 53.37740471 -1.95303884 41.47349061 -2.02734375 32.81298828 C-1.71555657 26.1685236 -0.96436757 19.5795477 0 13 C-0.66 13 -1.32 13 -2 13 C-2.33 13.99 -2.66 14.98 -3 16 C-2.57910004 10.39538469 -2.08386889 5.27913453 0 0 Z " fill="#D9CEA3" transform="translate(299,193)"/>
<path d="M0 0 C1.32 0 2.64 0 4 0 C4 13.86 4 27.72 4 42 C2.68 42 1.36 42 0 42 C0 28.14 0 14.28 0 0 Z " fill="#183432" transform="translate(241,325)"/>
<path d="M0 0 C6.94302946 0.61638285 10.72686739 2.65943081 15.76953125 7.58203125 C19.11890887 11.77688283 20.53621732 16.96996462 22.14453125 22.01953125 C22.80453125 21.68953125 23.46453125 21.35953125 24.14453125 21.01953125 C24.14453125 28.60953125 24.14453125 36.19953125 24.14453125 44.01953125 C23.81453125 44.01953125 23.48453125 44.01953125 23.14453125 44.01953125 C23.13035156 43.32730469 23.11617188 42.63507813 23.1015625 41.921875 C22.49786281 29.53787322 18.73856593 13.95388211 9.2109375 5.25390625 C6.97337115 3.67764846 6.97337115 3.67764846 3.14453125 4.01953125 C2.81453125 3.35953125 2.48453125 2.69953125 2.14453125 2.01953125 C0.82453125 2.01953125 -0.49546875 2.01953125 -1.85546875 2.01953125 C-1.85546875 15.87953125 -1.85546875 29.73953125 -1.85546875 44.01953125 C-2.18546875 44.01953125 -2.51546875 44.01953125 -2.85546875 44.01953125 C-2.88011388 37.91398415 -2.89830246 31.80846574 -2.91040039 25.70288086 C-2.91544163 23.62409969 -2.92227449 21.54532209 -2.9309082 19.46655273 C-2.94298297 16.48550539 -2.94869899 13.50450476 -2.953125 10.5234375 C-2.96086693 9.12032066 -2.96086693 9.12032066 -2.96876526 7.68885803 C-2.96884079 6.82804123 -2.96891632 5.96722443 -2.96899414 5.08032227 C-2.97121475 4.3186525 -2.97343536 3.55698273 -2.97572327 2.77223206 C-2.80672117 0.30903883 -2.4720384 0.02602146 0 0 Z " fill="#BAC0BD" transform="translate(242.85546875,322.98046875)"/>
<path d="M0 0 C-3.74109799 1.24703266 -4.44429023 0.45460854 -8 -1 C-14.3019335 -2.22000048 -20.53670211 -2.11415138 -26.9375 -2.0625 C-28.00291016 -2.05798828 -29.06832031 -2.05347656 -30.16601562 -2.04882812 C-32.77740291 -2.03711787 -35.38867124 -2.02071724 -38 -2 C-36.57107422 -1.90912109 -36.57107422 -1.90912109 -35.11328125 -1.81640625 C-33.85902344 -1.73261719 -32.60476562 -1.64882812 -31.3125 -1.5625 C-30.07113281 -1.48128906 -28.82976562 -1.40007812 -27.55078125 -1.31640625 C-24.61819663 -1.05508683 -21.86558383 -0.65201621 -19 0 C-19 0.33 -19 0.66 -19 1 C-20.13695312 0.95359375 -21.27390625 0.9071875 -22.4453125 0.859375 C-31.76097572 0.60114105 -39.40484538 1.1406305 -48.27734375 4.22265625 C-51 5 -51 5 -54 4 C-52.68 3.34 -51.36 2.68 -50 2 C-51.299375 2.433125 -51.299375 2.433125 -52.625 2.875 C-55.75 3.91666667 -58.875 4.95833333 -62 6 C-54.72642526 -1.80578753 -42.54777614 -4.23957485 -32.28515625 -4.93359375 C-9.7505282 -5.38910942 -9.7505282 -5.38910942 0 0 Z " fill="#CBD0CD" transform="translate(274,109)"/>
<path d="M0 0 C1.875 1.3125 1.875 1.3125 3 3 C3.1875 6.1875 3.1875 6.1875 3 9 C2.01 9 1.02 9 0 9 C-1.01351664 7.34151823 -2.01120795 5.67334039 -3 4 C-6.23884025 0.66862145 -9.17885391 -0.83804153 -13.875 -1.23828125 C-18.51574316 -0.7179038 -22.44095129 2.31070165 -25.54296875 5.671875 C-27 7 -27 7 -30 7 C-28.22330166 2.47749513 -25.32744717 0.08377311 -20.953125 -1.953125 C-13.27528305 -4.86540988 -7.17306169 -4.33720009 0 0 Z " fill="#6E7E7D" transform="translate(165,327)"/>
<path d="M0 0 C7.59 0 15.18 0 23 0 C23.061875 2.43375 23.12375 4.8675 23.1875 7.375 C23.21481201 8.13989746 23.24212402 8.90479492 23.27026367 9.69287109 C23.2922324 11.46407019 23.14874263 13.23492083 23 15 C22.01 15.66 21.02 16.32 20 17 C19.01 16.67 18.02 16.34 17 16 C17.33 11.05 17.66 6.1 18 1 C14.3803125 1.4640625 14.3803125 1.4640625 10.6875 1.9375 C9.55380981 2.08046509 9.55380981 2.08046509 8.3972168 2.22631836 C5.4652401 2.60994515 2.81249496 3.06250168 0 4 C0 2.68 0 1.36 0 0 Z " fill="#39504E" transform="translate(293,347)"/>
<path d="M0 0 C0 0.99 0 1.98 0 3 C-2.03876949 3.81974263 -4.08116075 4.6304807 -6.125 5.4375 C-7.26195312 5.88996094 -8.39890625 6.34242188 -9.5703125 6.80859375 C-15.25377146 8.78291606 -20.38110017 9.11904622 -26.375 9.0625 C-28.24285156 9.04896484 -28.24285156 9.04896484 -30.1484375 9.03515625 C-31.55996094 9.01775391 -31.55996094 9.01775391 -33 9 C-33 8.67 -33 8.34 -33 8 C-26.565 7.505 -26.565 7.505 -20 7 C-24.62 6.34 -29.24 5.68 -34 5 C-34 4.67 -34 4.34 -34 4 C-32.65808594 4.03480469 -32.65808594 4.03480469 -31.2890625 4.0703125 C-22.41889076 4.20270312 -14.23458192 4.02398721 -6.0625 0.3125 C-3 -1 -3 -1 0 0 Z " fill="#C3C9C6" transform="translate(276,236)"/>
<path d="M0 0 C17.74006121 -1.09984306 17.74006121 -1.09984306 24.26953125 4.29296875 C24.84058594 4.85628906 25.41164063 5.41960937 26 6 C26.77923828 6.73669922 26.77923828 6.73669922 27.57421875 7.48828125 C31.92962835 12.11824389 33.09232483 17.26189299 33.125 23.4375 C33.08375 24.613125 33.0425 25.78875 33 27 C32.67 27 32.34 27 32 27 C31.77957031 25.60587891 31.77957031 25.60587891 31.5546875 24.18359375 C29.8573677 14.82882541 28.03086543 9.54447337 20.25 4.0625 C13.63803146 1.9008949 6.75303734 2.82555872 0 4 C0 2.68 0 1.36 0 0 Z " fill="#D5D8D5" transform="translate(333,323)"/>
<path d="M0 0 C0.99 0.33 1.98 0.66 3 1 C2.16798892 5.90886536 1.74236658 8.22388948 -1.75 11.875 C-7.86792055 15.87517882 -12.88984168 16.28440633 -20 16 C-20 15.67 -20 15.34 -20 15 C-19.19175781 14.80664062 -18.38351563 14.61328125 -17.55078125 14.4140625 C-16.48214844 14.15367187 -15.41351563 13.89328125 -14.3125 13.625 C-13.25675781 13.36976563 -12.20101562 13.11453125 -11.11328125 12.8515625 C-6.92498869 11.75313711 -6.92498869 11.75313711 -3 10 C-1.75607124 7.62122565 -1.75607124 7.62122565 -1.1875 4.875 C-0.95417969 3.96492188 -0.72085938 3.05484375 -0.48046875 2.1171875 C-0.24263672 1.06917969 -0.24263672 1.06917969 0 0 Z " fill="#C1C6C4" transform="translate(168,352)"/>
<path d="M0 0 C2.26949646 1.23790716 3.71344567 2.27594567 5.5625 4.125 C5.6875 7.25 5.6875 7.25 5.5625 10.125 C4.840625 9.3825 4.11875 8.64 3.375 7.875 C-1.84948542 2.76661426 -5.06691399 0.18247046 -12.4375 0.125 C-15.78775075 0.48642788 -15.78775075 0.48642788 -18.4375 1.125 C-13.57768532 -3.73481468 -5.76395531 -2.82938682 0 0 Z " fill="#576A68" transform="translate(308.4375,325.875)"/>
<path d="M0 0 C-3 2 -3 2 -6.1875 1.8125 C-11.66222011 2.08174853 -15.82465085 4.65435837 -19.546875 8.66796875 C-21 10 -21 10 -24 10 C-22.22330166 5.47749513 -19.32744717 3.08377311 -14.953125 1.046875 C-9.52918689 -1.01048083 -5.66973339 -1.13394668 0 0 Z " fill="#B0B8B6" transform="translate(159,324)"/>
<path d="M0 0 C1.67542976 0.28604898 3.34385343 0.61781233 5 1 C5.84454356 4.37817425 6.10844919 6.67465243 5 10 C2.5625 9.625 2.5625 9.625 0 9 C-1.36623674 6.26752652 -1.128426 4.01801098 -1 1 C-0.67 0.67 -0.34 0.34 0 0 Z " fill="#E8E8E8" transform="translate(308,140)"/>
<path d="M0 0 C3 1 3 1 4.09765625 2.8125 C4.41605469 3.534375 4.73445313 4.25625 5.0625 5 C6.32230077 8.1514696 6.32230077 8.1514696 9 10 C8.40138258 12.35171131 7.73075648 14.6859378 7 17 C6.34 17.33 5.68 17.66 5 18 C4.35334337 15.75023648 3.70770477 13.50018033 3.0625 11.25 C2.70285156 9.99703125 2.34320313 8.7440625 1.97265625 7.453125 C1.27445851 4.97438281 0.60056274 2.50339838 0 0 Z " fill="#DAD3B0" transform="translate(287,199)"/>
<path d="M0 0 C1.28390625 0.50466797 1.28390625 0.50466797 2.59375 1.01953125 C6.23666836 2.06812358 8.74838779 2.05819502 12.5 1.6875 C13.5828125 1.58824219 14.665625 1.48898437 15.78125 1.38671875 C18.87491992 1.01502783 21.93173885 0.5406424 25 0 C23.53307542 2.93384916 21.2145273 3.3549103 18.24609375 4.38671875 C11.772036 6.154418 7.27653545 5.09161964 1.46875 1.875 C0.9840625 1.58625 0.499375 1.2975 0 1 C0 0.67 0 0.34 0 0 Z " fill="#D7DAD6" transform="translate(287,364)"/>
<path d="M0 0 C6.6 0.66 13.2 1.32 20 2 C16.95318939 4.03120707 16.39881676 4.24659875 12.98828125 4.1953125 C11.85229492 4.18564453 11.85229492 4.18564453 10.69335938 4.17578125 C9.90767578 4.15902344 9.12199219 4.14226562 8.3125 4.125 C7.51521484 4.11597656 6.71792969 4.10695312 5.89648438 4.09765625 C3.930861 4.07411585 1.96539225 4.03824547 0 4 C0 2.68 0 1.36 0 0 Z " fill="#2B4441" transform="translate(239,240)"/>
<path d="M0 0 C0.66 0 1.32 0 2 0 C2 8.91 2 17.82 2 27 C1.67 27 1.34 27 1 27 C0.67 20.73 0.34 14.46 0 8 C-0.66 8.99 -1.32 9.98 -2 11 C-1.85957123 9.35369672 -1.71250671 7.70795821 -1.5625 6.0625 C-1.48128906 5.14597656 -1.40007812 4.22945312 -1.31640625 3.28515625 C-1 1 -1 1 0 0 Z " fill="#E3E5E2" transform="translate(299,193)"/>
<path d="M0 0 C4.75 1.875 4.75 1.875 7 3 C13.58632262 3.53537216 19.64964086 2.71797155 26 1 C24.5777683 3.84446339 22.9703725 4.00848129 20 5 C13.23124305 6.3277945 8.00481676 6.57733764 2 3 C1.34 2.01 0.68 1.02 0 0 Z " fill="#E0E2E1" transform="translate(330,363)"/>
<path d="M0 0 C0.66 0 1.32 0 2 0 C2 4.62 2 9.24 2 14 C1.01 14.495 1.01 14.495 0 15 C-2.23657115 10.6584207 -1.96324826 7.72867326 -1 3 C-0.67 2.01 -0.34 1.02 0 0 Z " fill="#193431" transform="translate(297,206)"/>
<path d="M0 0 C2.1519437 3.22791555 2.20086443 4.28400809 2 8 C2.66 8 3.32 8 4 8 C4.36923077 15.50769231 4.36923077 15.50769231 2.5 18 C2.005 18.33 1.51 18.66 1 19 C0.15976812 14.64667264 -0.10770995 10.55557481 -0.0625 6.125 C-0.05347656 4.97257812 -0.04445313 3.82015625 -0.03515625 2.6328125 C-0.02355469 1.76398438 -0.01195312 0.89515625 0 0 Z " fill="#D0C085" transform="translate(305,254)"/>
<path d="M0 0 C0.66 0.33 1.32 0.66 2 1 C3.21883656 8.31301936 3.10289063 15.60330657 3 23 C1.68 22.34 0.36 21.68 -1 21 C-0.67 20.34 -0.34 19.68 0 19 C0.08342159 17.55151418 0.10732861 16.09929131 0.09765625 14.6484375 C0.09443359 13.79765625 0.09121094 12.946875 0.08789062 12.0703125 C0.07951172 11.18085938 0.07113281 10.29140625 0.0625 9.375 C0.05573242 8.02921875 0.05573242 8.02921875 0.04882812 6.65625 C0.03702591 4.43743352 0.02056155 2.21874982 0 0 Z " fill="#BAC0BE" transform="translate(291,122)"/>
<path d="M0 0 C0.66 0.33 1.32 0.66 2 1 C-2.03523352 5.81123996 -6.04467233 10.13242719 -11 14 C-11 11 -11 11 -8.59375 8.30078125 C-7.5700032 7.29697757 -6.5383946 6.30114351 -5.5 5.3125 C-4.97535156 4.80138672 -4.45070312 4.29027344 -3.91015625 3.76367188 C-2.61339096 2.50227292 -1.30753883 1.25022788 0 0 Z " fill="#818F8D" transform="translate(204,119)"/>
<path d="M0 0 C6.17764408 0.27456196 10.17789247 1.02176128 15 5 C15.33 5.66 15.66 6.32 16 7 C15.34 7.66 14.68 8.32 14 9 C13.2575 8.175 12.515 7.35 11.75 6.5 C9.12612615 3.55155147 9.12612615 3.55155147 5 4 C4.67 3.34 4.34 2.68 4 2 C2.68 2 1.36 2 0 2 C0 1.34 0 0.68 0 0 Z " fill="#C7CCCA" transform="translate(241,323)"/>
<path d="M0 0 C0.33 0 0.66 0 1 0 C1 7.59 1 15.18 1 23 C0.67 23 0.34 23 0 23 C-0.06058594 22.15695312 -0.12117188 21.31390625 -0.18359375 20.4453125 C-0.26738281 19.34960938 -0.35117187 18.25390625 -0.4375 17.125 C-0.51871094 16.03445313 -0.59992188 14.94390625 -0.68359375 13.8203125 C-0.83001703 11.05271029 -0.83001703 11.05271029 -2 9 C-2.25860135 4.94857881 -2.30441554 3.45662331 0 0 Z " fill="#A7AFAD" transform="translate(266,344)"/>
<path d="M0 0 C0.845625 0.16886719 1.69125 0.33773437 2.5625 0.51171875 C5 1.3125 5 1.3125 9 4.3125 C5.7 3.9825 2.4 3.6525 -1 3.3125 C-1 2.6525 -1 1.9925 -1 1.3125 C-3.64 1.3125 -6.28 1.3125 -9 1.3125 C-5.68329587 -0.73740741 -3.78105696 -0.81269669 0 0 Z " fill="#CAB974" transform="translate(248,161.6875)"/>
<path d="M0 0 C0.99 0.33 1.98 0.66 3 1 C1.828125 7.0546875 1.828125 7.0546875 1 9 C-1.078125 10.2578125 -1.078125 10.2578125 -3 11 C-2.69078116 9.54096742 -2.37751201 8.08279278 -2.0625 6.625 C-1.88847656 5.81289063 -1.71445313 5.00078125 -1.53515625 4.1640625 C-1 2 -1 2 0 0 Z " fill="#96A29E" transform="translate(168,352)"/>
<path d="M0 0 C0.33 0 0.66 0 1 0 C1 6.6 1 13.2 1 20 C0.67 20 0.34 20 0 20 C0 15.38 0 10.76 0 6 C-0.66 6 -1.32 6 -2 6 C-2.33 6.99 -2.66 7.98 -3 9 C-3 7.35 -3 5.7 -3 4 C-2.34 4 -1.68 4 -1 4 C-0.67 2.68 -0.34 1.36 0 0 Z " fill="#71827F" transform="translate(299,200)"/>
<path d="M0 0 C1.34709162 0.87500817 2.67738986 1.77590933 4 2.6875 C4.7425 3.18636719 5.485 3.68523437 6.25 4.19921875 C8 6 8 6 8.25 8.70703125 C8.1675 9.46371094 8.085 10.22039062 8 11 C5.17369103 9.96368671 4.18909471 9.39919994 2.875 6.625 C2.58625 5.75875 2.2975 4.8925 2 4 C1.34691324 2.65996272 0.68241124 1.32534415 0 0 Z " fill="#D1C289" transform="translate(272,177)"/>
<path d="M0 0 C0.99 0.33 1.98 0.66 3 1 C3 4.96 3 8.92 3 13 C-0.375 8.5 -0.375 8.5 -0.1875 4.25 C-0.16042969 3.45078125 -0.13335937 2.6515625 -0.10546875 1.828125 C-0.07066406 1.22484375 -0.03585937 0.6215625 0 0 Z " fill="#CCBB78" transform="translate(302,240)"/>
<path d="M0 0 C0.66 0.66 1.32 1.32 2 2 C2.99 2 3.98 2 5 2 C5.68707555 4.49064888 6 6.37886292 6 9 C6.31088368 10.67099977 6.64080332 12.33871537 7 14 C0 5.25 0 5.25 0 0 Z " fill="#EBE7D3" transform="translate(283,194)"/>
<path d="M0 0 C-0.969375 0.268125 -1.93875 0.53625 -2.9375 0.8125 C-3.948125 1.204375 -4.95875 1.59625 -6 2 C-6.33 2.99 -6.66 3.98 -7 5 C-9.0625 5.6875 -9.0625 5.6875 -11 6 C-11.33 5.01 -11.66 4.02 -12 3 C-10.75823305 2.29773859 -9.50614401 1.61370891 -8.25 0.9375 C-7.20585937 0.36322266 -7.20585937 0.36322266 -6.140625 -0.22265625 C-3.63859372 -1.1312406 -2.4667645 -0.88336837 0 0 Z " fill="#516563" transform="translate(226,111)"/>
<path d="M0 0 C2.78633115 4.17949673 4 6.93375326 4 12 C3.01 11.67 2.02 11.34 1 11 C1 9.02 1 7.04 1 5 C-0.32 5.33 -1.64 5.66 -3 6 C-3 5.34 -3 4.68 -3 4 C-2.34 3.67 -1.68 3.34 -1 3 C-0.67 2.01 -0.34 1.02 0 0 Z " fill="#9B9153" transform="translate(294,213)"/>
<path d="M0 0 C-1.485 1.485 -1.485 1.485 -3 3 C-2.67 3.99 -2.34 4.98 -2 6 C-3.32 5.67 -4.64 5.34 -6 5 C-6.33 3.35 -6.66 1.7 -7 0 C-4.3333581 -1.33332095 -2.83319697 -0.67102033 0 0 Z " fill="#F3F3E3" transform="translate(315,153)"/>
<path d="M0 0 C5.53846154 -0.36923077 5.53846154 -0.36923077 7.875 1.5 C8.24625 1.995 8.6175 2.49 9 3 C6.75 3.75 6.75 3.75 4 4 C1.6875 2.0625 1.6875 2.0625 0 0 Z " fill="#657775" transform="translate(156,325)"/>
<path d="M0 0 C0.99 0.33 1.98 0.66 3 1 C3 1.99 3 2.98 3 4 C1.1875 5.0625 1.1875 5.0625 -1 6 C-1.99 5.67 -2.98 5.34 -4 5 C-2.68 4.67 -1.36 4.34 0 4 C-0.33 3.01 -0.66 2.02 -1 1 C-0.67 0.67 -0.34 0.34 0 0 Z " fill="#BDC3C1" transform="translate(273,235)"/>
<path d="M0 0 C1.32 0.66 2.64 1.32 4 2 C3.01 2.99 2.02 3.98 1 5 C0.01 4.67 -0.98 4.34 -2 4 C-1.34 2.68 -0.68 1.36 0 0 Z " fill="#788785" transform="translate(277,233)"/>
<path d="M0 0 C0.99 0.33 1.98 0.66 3 1 C3.73046875 3.06640625 3.73046875 3.06640625 4.1875 5.5625 C4.34605469 6.38878906 4.50460937 7.21507812 4.66796875 8.06640625 C4.77753906 8.70449219 4.88710938 9.34257812 5 10 C3 9 3 9 2.1484375 6.93359375 C1.89320313 6.10988281 1.63796875 5.28617188 1.375 4.4375 C1.11460937 3.61121094 0.85421875 2.78492188 0.5859375 1.93359375 C0.39257812 1.29550781 0.19921875 0.65742188 0 0 Z " fill="#C9B771" transform="translate(287,199)"/>
<path d="M0 0 C0.99 0 1.98 0 3 0 C2.34 1.65 1.68 3.3 1 5 C0.01 5 -0.98 5 -2 5 C-2 2 -2 2 0 0 Z " fill="#859391" transform="translate(138,329)"/>
</svg>
