<svg version="1.1" id="Layer_1" xmlns="http://www.w3.org/2000/svg" xmlns:xlink="http://www.w3.org/1999/xlink" x="0px" y="0px"
	 width="100%" viewBox="0 0 512 512" enable-background="new 0 0 512 512" xml:space="preserve">
<path fill="#002A5F" opacity="1.000000" stroke="none" 
	d="
M513.000000,276.000000 
	C513.000000,354.938782 513.000000,433.877563 513.000000,513.000000 
	C403.979187,513.000000 294.958252,513.000000 185.467117,512.621765 
	C187.558701,506.307526 190.065262,500.346985 192.691757,494.439758 
	C204.707275,467.415924 216.762085,440.409576 228.791534,413.391968 
	C237.982498,392.749481 247.140961,372.092560 256.347137,351.456879 
	C259.362701,344.697571 262.482697,337.984863 265.709564,330.911896 
	C266.825745,331.722168 267.559631,332.100250 268.094757,332.666260 
	C278.365906,343.530792 288.518158,354.509308 298.886383,365.280029 
	C319.758362,386.962250 340.734589,408.544159 361.690460,430.145477 
	C369.431335,438.124786 377.236115,446.042114 385.023956,454.203156 
	C385.184479,454.636963 385.332764,454.855347 385.481079,455.073730 
	C385.532959,454.946930 385.665161,454.761719 385.622803,454.703400 
	C385.439362,454.451080 385.204956,454.235840 384.984131,453.625000 
	C384.903229,452.751160 384.916229,452.224426 384.738586,451.772644 
	C366.706848,405.905640 348.649017,360.048889 330.627472,314.177917 
	C327.813049,307.014313 325.159454,299.787567 322.279602,292.189270 
	C327.846893,291.739899 332.624084,291.435272 337.382690,290.949097 
	C342.921722,290.383179 348.444519,289.658295 354.375916,289.004395 
	C356.517059,288.716431 358.256683,288.426483 360.317108,288.124023 
	C361.437622,287.877960 362.237305,287.644409 363.492798,287.352661 
	C367.639771,287.314758 371.330963,287.335083 375.373047,287.564636 
	C376.382538,287.852539 377.041138,287.999725 377.699799,287.999969 
	C411.182800,288.011749 444.665771,288.018982 478.148743,287.981293 
	C479.427917,287.979858 480.706543,287.532440 482.243896,287.191101 
	C482.966675,286.310913 483.431030,285.532501 483.816254,284.419983 
	C483.486938,283.715698 483.236755,283.345520 482.676514,282.700897 
	C471.820221,282.283386 461.273071,282.183472 450.728638,281.957489 
	C448.829285,281.916809 446.941071,281.357574 445.504944,281.031067 
	C456.488220,280.297058 467.018036,279.620209 477.539276,278.829041 
	C489.363586,277.939880 501.180084,276.947510 513.000000,276.000000 
z"/>
<path fill="#002A5F" opacity="1.000000" stroke="none" 
	d="
M4.000000,1.000000 
	C113.688683,1.000000 223.377365,1.000000 333.493652,1.365755 
	C307.078247,61.752666 280.235229,121.773827 253.001816,182.667816 
	C210.960144,139.768066 169.783234,97.750732 128.606323,55.733402 
	C128.169632,56.107578 127.732933,56.481758 127.296234,56.855938 
	C127.543808,57.598057 127.749870,58.357132 128.045029,59.079815 
	C136.151474,78.927551 144.222397,98.789978 152.392105,118.611664 
	C162.968964,144.273773 173.670135,169.884735 184.211624,195.561295 
	C186.371353,200.821884 188.061905,206.275116 189.592133,211.719345 
	C187.744476,215.187683 186.273407,218.576233 184.456116,222.051086 
	C181.338608,226.907059 176.340179,226.123688 171.780609,226.722870 
	C170.171356,226.213089 168.750305,225.644318 167.406601,225.789795 
	C161.569565,226.421692 155.755066,227.261795 149.468521,228.043427 
	C143.951340,228.062225 138.880173,227.826233 133.855164,228.204147 
	C132.260147,228.324097 130.788162,230.079926 128.833878,231.085175 
	C126.255348,231.395218 124.102821,231.707260 121.660118,231.842041 
	C114.503433,225.501770 106.264076,227.019363 98.183411,227.446793 
	C92.683304,227.737732 88.298134,229.574188 85.822495,234.957718 
	C83.908852,233.782501 82.358147,232.735626 80.846283,231.294083 
	C83.994987,220.487106 80.926979,215.529572 69.613075,212.243454 
	C69.916573,212.006104 70.134422,211.909866 70.133636,211.815460 
	C70.131325,211.539337 70.041862,211.263947 69.675652,210.714493 
	C58.638447,210.302444 47.912273,210.144379 37.185513,210.069885 
	C36.460056,210.064850 35.730225,210.689621 35.038502,211.360001 
	C35.088997,211.925034 35.103416,212.151535 35.021790,212.712311 
	C31.578857,222.689499 28.231976,232.332443 24.592348,241.726852 
	C22.823505,240.983871 21.336992,240.041382 19.873175,240.075409 
	C14.583732,240.198349 9.301923,240.649734 4.011162,240.511017 
	C4.003396,160.363281 4.001698,80.681641 4.000000,1.000000 
z"/>
<path fill="#002A5F" opacity="1.000000" stroke="none" 
	d="
M150.000000,513.000000 
	C101.645775,513.000000 53.291542,513.000000 4.468611,512.531372 
	C4.009472,433.721008 4.019036,355.379303 4.459413,277.027527 
	C20.578737,278.356689 36.267250,279.695923 51.646938,281.304077 
	C39.778778,281.714539 28.218597,281.813232 16.660942,282.040405 
	C14.769051,282.077576 12.888281,282.680664 11.035982,283.351562 
	C11.086494,283.900970 11.103395,284.121002 11.042873,284.598877 
	C10.685750,285.504456 10.406049,286.152283 10.078524,287.097900 
	C10.020746,287.596710 10.010790,287.797638 10.311600,288.275330 
	C11.263262,288.695557 11.904076,288.964142 12.545065,288.964569 
	C50.087296,288.989380 87.629562,289.006927 125.171646,288.933228 
	C126.445793,288.930756 127.718086,287.989319 129.355453,287.395050 
	C130.467224,287.339966 131.214783,287.375366 132.219849,287.600525 
	C133.319000,287.906036 134.160675,288.021851 135.272308,288.357971 
	C137.389511,289.032562 139.236755,289.486908 141.543137,289.945984 
	C151.363068,290.585693 160.723831,291.220642 171.278580,291.936615 
	C168.050049,294.879333 165.788788,296.950470 163.516647,299.009644 
	C152.443832,309.044617 141.407227,319.119934 130.283875,329.098602 
	C115.211906,342.619476 100.059669,356.050812 84.966766,369.548431 
	C74.695938,378.733734 64.491951,387.993805 54.214806,397.171997 
	C39.484863,410.326782 24.673515,423.391083 10.034978,436.646484 
	C8.732474,437.825928 8.444032,440.125275 7.684624,441.904480 
	C9.598468,441.612305 11.824483,441.854523 13.378640,440.946625 
	C32.315845,429.884155 51.152790,418.650116 70.018761,407.465668 
	C103.748016,387.469666 137.449524,367.426575 171.229507,347.516632 
	C180.362000,342.133850 189.734695,337.158630 198.998566,331.998169 
	C199.000000,332.000000 199.003616,332.002563 198.997650,332.399963 
	C184.673386,384.664612 170.324814,436.523590 156.068085,488.407745 
	C153.831711,496.546448 152.012238,504.799713 150.000000,513.000000 
z"/>
<path fill="#234677" opacity="1.000000" stroke="none" 
	d="
M51.955765,281.035156 
	C36.267250,279.695923 20.578737,278.356689 4.215892,277.010193 
	C3.541560,277.002930 3.055059,276.970062 3.034475,276.979431 
	C3.013891,276.988831 2.973222,277.008636 2.977743,276.539246 
	C2.941403,264.687408 2.900543,253.304947 2.914168,241.699493 
	C2.968654,241.476486 3.079351,241.030914 3.313807,241.017212 
	C3.548264,241.003525 4.017231,240.977112 4.017231,240.977112 
	C9.301923,240.649734 14.583732,240.198349 19.873175,240.075409 
	C21.336992,240.041382 22.823505,240.983871 24.581884,242.095520 
	C21.583120,252.571152 18.302076,262.429626 15.242757,272.673584 
	C16.204626,273.356567 16.943348,273.909149 17.685131,273.913300 
	C28.652439,273.974548 39.620808,274.019745 50.586922,273.893799 
	C51.892021,273.878815 53.185318,272.835999 54.809982,272.377380 
	C60.300484,270.408936 65.696823,268.756073 70.545135,266.102051 
	C73.585854,264.437531 74.272308,264.939880 76.153084,267.567200 
	C77.849991,269.937653 81.058739,272.194672 83.862648,272.576080 
	C88.035751,273.143677 92.439369,272.016541 97.227852,271.565033 
	C99.237175,274.500275 110.562553,274.568390 116.072906,271.112335 
	C119.426491,274.500061 125.320793,275.102112 130.401230,272.551758 
	C136.850861,273.613739 139.209183,270.647064 140.357056,265.026581 
	C141.648911,258.701111 143.959900,252.589676 145.658707,246.339233 
	C146.742218,242.352661 148.651337,240.225739 153.000488,242.491669 
	C152.656967,244.809692 152.265274,246.717148 151.980408,248.640457 
	C151.386658,252.649323 150.849396,256.666565 150.302933,260.983826 
	C150.117645,261.858398 149.918335,262.429474 149.391052,263.065979 
	C148.805527,264.648865 148.547989,266.166351 148.304230,267.986237 
	C148.125473,268.859711 147.932922,269.430756 147.417801,270.098083 
	C146.837418,270.889984 146.156448,271.813782 146.388977,272.245117 
	C148.187454,275.581421 162.326782,276.179474 164.938049,273.101593 
	C165.028809,272.994659 164.991547,272.779053 165.380341,272.481812 
	C166.259857,272.272919 166.773010,272.196289 167.599854,272.275635 
	C173.466156,273.282104 179.007797,274.229095 184.584961,274.863861 
	C185.299911,274.945282 186.199677,273.402954 187.404510,272.483246 
	C194.016846,272.587250 190.787399,265.813080 194.811661,263.422729 
	C195.536026,264.742828 196.393570,265.973053 196.925705,267.330841 
	C199.837280,274.760010 202.564880,282.263702 205.624222,289.630280 
	C206.173386,290.952606 207.984497,292.653473 209.202087,292.644867 
	C215.696030,292.598907 222.186508,292.065216 229.139465,291.674286 
	C228.222412,289.310333 227.591019,287.621185 226.915039,285.950104 
	C222.239365,274.391541 217.480789,262.865417 212.960907,251.246368 
	C212.361954,249.706665 212.245926,246.799393 213.145752,246.083588 
	C215.580978,244.146332 218.683823,243.048340 222.383728,241.182938 
	C222.018463,243.604385 221.894867,244.730362 221.674606,245.837112 
	C219.159882,258.472809 224.414932,268.416809 236.673309,271.789978 
	C251.135559,275.769592 264.636261,272.755951 276.633514,263.588440 
	C278.263092,262.343231 279.835815,261.023621 281.434875,259.738464 
	C281.964355,260.028473 282.493866,260.318451 283.023376,260.608459 
	C282.028381,264.253876 281.033386,267.899292 279.833496,272.295410 
	C285.491943,272.295410 290.823151,271.796539 296.017456,272.426453 
	C302.008209,273.152924 304.718475,270.862549 305.847015,265.197632 
	C306.379456,262.524811 308.090149,260.086700 309.266998,257.542236 
	C309.695282,257.758301 310.123535,257.974365 310.551819,258.190430 
	C312.055847,262.932068 313.559845,267.673737 315.214966,272.718384 
	C315.917938,273.354126 316.469849,273.686890 317.332336,274.292053 
	C331.859833,274.681213 346.076721,274.808716 360.293884,274.875275 
	C360.861237,274.877960 361.431244,274.301727 361.976288,273.677795 
	C361.942719,273.148407 361.932892,272.936432 361.978882,272.362854 
	C364.273010,268.172089 362.911102,262.476776 368.038025,259.639282 
	C374.334351,272.113739 385.136749,273.784515 396.966980,273.235382 
	C408.884155,272.682159 418.749786,267.342194 427.514038,259.390259 
	C427.839020,259.676544 428.164001,259.962799 428.488983,260.249054 
	C427.483032,264.593781 426.477112,268.938507 425.355255,273.783936 
	C429.382355,273.783936 432.707153,274.063965 435.969543,273.731598 
	C445.879486,272.721985 445.840393,272.620056 449.017395,262.953461 
	C450.498566,258.446655 452.120422,253.986115 454.149628,248.149551 
	C455.702026,250.860321 456.555237,252.205872 457.268860,253.621780 
	C460.112518,259.263855 462.969666,264.900513 465.701294,270.596985 
	C466.810181,272.909332 468.154358,274.231659 470.985687,273.846191 
	C474.887878,273.314941 478.860229,272.707581 482.759705,272.919800 
	C486.399872,273.117889 487.610443,271.613586 488.522400,268.446533 
	C491.779358,257.135925 495.300171,245.901306 498.903381,234.985123 
	C501.063843,236.549377 502.907806,238.313446 505.055420,238.840775 
	C507.565338,239.457047 510.340118,238.994492 513.000000,239.000000 
	C513.000000,251.020889 513.000000,263.041779 513.000000,275.531342 
	C501.180084,276.947510 489.363586,277.939880 477.539276,278.829041 
	C467.018036,279.620209 456.488220,280.297058 445.133698,281.020203 
	C443.182678,281.622314 442.060181,282.228546 440.475952,282.861542 
	C435.317291,282.886780 430.620392,282.885284 425.607605,282.631104 
	C424.311798,282.252808 423.331818,282.017700 422.351807,282.017395 
	C360.981140,281.999573 299.610443,281.994690 238.239807,282.039093 
	C236.822861,282.040131 235.406326,282.616760 233.970016,283.223846 
	C233.953613,283.722565 233.956787,283.922272 233.801788,284.417236 
	C235.237823,285.533447 236.828796,287.063477 238.426651,287.070679 
	C269.666992,287.211761 300.908142,287.156494 332.149078,287.186340 
	C342.445129,287.196198 352.741028,287.332428 363.037018,287.410828 
	C362.237305,287.644409 361.437622,287.877960 359.850891,288.090820 
	C318.123627,288.070099 277.183472,288.070099 236.243286,288.070099 
	C236.243088,288.380890 236.242874,288.691650 236.242676,289.002441 
	C275.486572,289.002441 314.730469,289.002441 353.974365,289.002441 
	C348.444519,289.658295 342.921722,290.383179 337.382690,290.949097 
	C332.624084,291.435272 327.846893,291.739899 322.279602,292.189270 
	C325.159454,299.787567 327.813049,307.014313 330.627472,314.177917 
	C348.649017,360.048889 366.706848,405.905640 384.738586,451.772644 
	C384.916229,452.224426 384.903229,452.751160 384.990051,453.621033 
	C385.000854,453.999176 385.011719,453.987732 385.011719,453.987732 
	C377.236115,446.042114 369.431335,438.124786 361.690460,430.145477 
	C340.734589,408.544159 319.758362,386.962250 298.886383,365.280029 
	C288.518158,354.509308 278.365906,343.530792 268.094757,332.666260 
	C267.559631,332.100250 266.825745,331.722168 265.709564,330.911896 
	C262.482697,337.984863 259.362701,344.697571 256.347137,351.456879 
	C247.140961,372.092560 237.982498,392.749481 228.791534,413.391968 
	C216.762085,440.409576 204.707275,467.415924 192.691757,494.439758 
	C190.065262,500.346985 187.558701,506.307526 184.998459,512.621765 
	C173.645767,513.000000 162.291550,513.000000 150.468658,513.000000 
	C152.012238,504.799713 153.831711,496.546448 156.068085,488.407745 
	C170.324814,436.523590 184.673386,384.664612 199.116058,332.349670 
	C199.240433,331.901947 199.246017,331.575806 199.246017,331.575806 
	C199.246017,331.575806 198.997147,331.996338 198.997147,331.996338 
	C189.734695,337.158630 180.362000,342.133850 171.229507,347.516632 
	C137.449524,367.426575 103.748016,387.469666 70.018761,407.465668 
	C51.152790,418.650116 32.315845,429.884155 13.378640,440.946625 
	C11.824483,441.854523 9.598468,441.612305 7.684624,441.904480 
	C8.444032,440.125275 8.732474,437.825928 10.034978,436.646484 
	C24.673515,423.391083 39.484863,410.326782 54.214806,397.171997 
	C64.491951,387.993805 74.695938,378.733734 84.966766,369.548431 
	C100.059669,356.050812 115.211906,342.619476 130.283875,329.098602 
	C141.407227,319.119934 152.443832,309.044617 163.516647,299.009644 
	C165.788788,296.950470 168.050049,294.879333 171.278580,291.936615 
	C160.723831,291.220642 151.363068,290.585693 141.849335,289.682678 
	C154.311539,289.276428 166.926529,289.121002 179.541901,289.008087 
	C184.940674,288.959747 190.340256,289.000000 195.739487,289.000000 
	C195.737167,288.712555 195.734848,288.425079 195.732544,288.137634 
	C175.489136,288.137634 155.245743,288.137634 135.002350,288.137634 
	C134.160675,288.021851 133.319000,287.906036 132.681671,287.503601 
	C135.877411,287.203186 138.868835,287.178131 141.860245,287.177460 
	C158.978882,287.173767 176.097687,287.210022 193.215820,287.116821 
	C194.733475,287.108521 198.603088,288.521729 196.053711,283.881836 
	C196.029327,283.360870 196.017502,283.152618 195.684448,282.681091 
	C194.221344,282.278748 193.079544,282.018677 191.937592,282.018036 
	C153.068069,281.996979 114.198532,281.991211 75.329056,282.037872 
	C73.910957,282.039551 72.493523,282.590332 70.606476,282.921692 
	C65.445595,282.916992 60.754013,282.875763 55.951286,282.504089 
	C54.545349,281.794128 53.250557,281.414642 51.955765,281.035156 
z"/>
<path fill="#012A5F" opacity="1.000000" stroke="none" 
	d="
M513.000000,238.531342 
	C510.340118,238.994492 507.565338,239.457047 505.055420,238.840775 
	C502.907806,238.313446 501.063843,236.549377 498.918304,234.607254 
	C500.819366,226.716125 502.887665,219.550064 505.121765,211.809601 
	C499.910980,211.809601 495.098297,212.045349 490.321625,211.731903 
	C486.766083,211.498596 485.055176,212.598068 484.048767,216.146484 
	C482.137054,222.886673 479.665497,229.468063 477.114990,237.040009 
	C472.760742,229.008102 469.052704,221.969131 465.109100,215.064697 
	C464.337250,213.713348 462.700439,212.032761 461.381042,211.958786 
	C455.418427,211.624527 449.426514,211.812744 443.235657,211.812744 
	C441.641022,217.028137 440.120331,222.001602 438.927063,225.904236 
	C434.877502,222.050079 431.268921,217.060577 426.393951,214.340988 
	C419.113678,210.279572 411.254669,208.625443 402.417389,211.743225 
	C394.121521,214.669983 386.257874,217.715927 379.836182,223.858582 
	C379.210754,224.456757 378.262817,224.717773 376.329865,225.728806 
	C377.528595,220.533905 378.480316,216.409592 379.580475,211.641937 
	C374.290619,211.641937 369.160828,211.641937 364.054871,211.300262 
	C364.920807,209.594284 365.532715,207.992798 366.648193,206.910141 
	C369.980927,203.675476 373.485901,200.615692 376.968567,197.538513 
	C388.658020,187.210068 400.344391,176.877930 412.074127,166.595306 
	C427.417725,153.144699 442.804260,139.743103 458.167084,126.314445 
	C471.157257,114.959724 484.163055,103.622688 497.113190,92.222458 
	C501.534607,88.330200 505.807953,84.269737 510.009613,80.414009 
	C506.001648,73.401031 505.792084,73.312050 500.050903,76.816978 
	C484.738525,86.165092 469.141479,95.046494 453.672241,104.138351 
	C416.002777,126.278160 378.364044,148.470490 340.655212,170.543030 
	C334.256958,174.288162 327.571655,177.542908 321.009766,181.012726 
	C321.000549,181.001236 320.977844,180.982925 320.978027,180.574524 
	C321.124634,179.184967 321.172028,178.176682 321.432220,177.226685 
	C325.945831,160.749100 330.490936,144.280151 335.018402,127.806374 
	C344.117584,94.697838 353.265961,61.602676 362.269104,28.468039 
	C364.740143,19.373823 366.768494,10.159310 369.000000,0.999999 
	C416.944977,1.000000 464.889923,1.000000 513.000000,1.000000 
	C513.000000,80.020821 513.000000,159.041748 513.000000,238.531342 
z"/>
<path fill="#224577" opacity="1.000000" stroke="none" 
	d="
M321.018982,181.024200 
	C327.571655,177.542908 334.256958,174.288162 340.655212,170.543030 
	C378.364044,148.470490 416.002777,126.278160 453.672241,104.138351 
	C469.141479,95.046494 484.738525,86.165092 500.050903,76.816978 
	C505.792084,73.312050 506.001648,73.401031 510.009613,80.414009 
	C505.807953,84.269737 501.534607,88.330200 497.113190,92.222458 
	C484.163055,103.622688 471.157257,114.959724 458.167084,126.314445 
	C442.804260,139.743103 427.417725,153.144699 412.074127,166.595306 
	C400.344391,176.877930 388.658020,187.210068 376.968567,197.538513 
	C373.485901,200.615692 369.980927,203.675476 366.648193,206.910141 
	C365.532715,207.992798 364.920807,209.594284 363.634949,211.411285 
	C361.454803,211.908401 359.718384,211.952850 357.629456,212.066284 
	C356.587341,212.781082 355.421631,213.339691 355.284790,214.086731 
	C354.342865,219.229065 351.292542,220.473572 346.362000,218.968323 
	C341.308502,212.817825 334.306458,212.355179 327.849121,211.194580 
	C328.710938,210.894073 329.258881,210.720154 329.806854,210.546234 
	C320.642334,210.011215 311.576965,209.963257 302.513458,210.071060 
	C301.362488,210.084747 300.221191,210.913498 298.950989,211.690094 
	C297.603790,215.733002 296.466492,219.482437 295.097412,223.145233 
	C294.759491,224.049271 293.756805,225.100601 292.892853,225.279770 
	C292.267059,225.409546 291.231079,224.323837 290.612244,223.584183 
	C288.635193,221.221039 286.767365,218.766525 284.829956,215.968445 
	C283.781647,215.150101 282.760712,214.710556 281.866455,214.161530 
	C281.993103,214.052032 281.756836,214.289566 281.770264,213.942719 
	C280.279144,213.198471 278.774567,212.801071 277.178558,212.404938 
	C277.087128,212.406219 276.984924,212.254562 276.942383,211.907715 
	C274.095978,210.707108 271.302399,209.200867 268.485718,209.156281 
	C264.506348,209.093292 260.520416,210.206772 256.518646,210.647949 
	C245.193817,211.896545 236.357300,217.206146 229.598419,226.724792 
	C228.139099,226.848114 227.072144,226.891235 225.936249,226.623276 
	C224.460007,226.435684 222.879272,226.186310 221.674942,226.746368 
	C216.056747,229.358994 210.542511,232.195145 204.828278,235.032242 
	C204.828278,231.497314 204.828278,228.659988 204.869720,225.889282 
	C204.911163,225.955887 204.787430,225.859406 205.133255,225.843369 
	C207.001053,224.380722 209.350433,223.035889 206.061935,220.610092 
	C206.769547,217.588516 207.488174,214.955795 208.393387,211.639557 
	C201.802872,211.639557 195.885803,211.639557 189.968719,211.639557 
	C188.061905,206.275116 186.371353,200.821884 184.211624,195.561295 
	C173.670135,169.884735 162.968964,144.273773 152.392105,118.611664 
	C144.222397,98.789978 136.151474,78.927551 128.045029,59.079815 
	C127.749870,58.357132 127.543808,57.598057 127.296234,56.855938 
	C127.732933,56.481758 128.169632,56.107578 128.606323,55.733402 
	C169.783234,97.750732 210.960144,139.768066 253.001816,182.667816 
	C280.235229,121.773827 307.078247,61.752666 333.960632,1.365755 
	C345.354218,1.000000 356.708466,1.000000 368.531342,0.999999 
	C366.768494,10.159310 364.740143,19.373823 362.269104,28.468039 
	C353.265961,61.602676 344.117584,94.697838 335.018402,127.806374 
	C330.490936,144.280151 325.945831,160.749100 321.432220,177.226685 
	C321.172028,178.176682 321.124634,179.184967 320.857574,180.630463 
	C320.830963,181.071259 320.924988,181.047729 321.018982,181.024200 
z"/>
<path fill="#8C97AA" opacity="1.000000" stroke="none" 
	d="
M2.000001,513.000000 
	C1.666669,511.834808 1.046362,510.670471 1.042773,509.504272 
	C0.982821,490.023438 1.000000,470.542358 1.000000,451.061340 
	C1.000000,301.040894 1.000000,151.020447 1.499106,1.468657 
	C1.998059,79.947044 1.996403,157.956772 2.006211,235.966507 
	C2.006461,237.958069 2.132488,239.949631 2.139367,242.411926 
	C2.105465,254.259750 2.132054,265.636841 2.093805,277.477722 
	C2.019311,356.294312 2.009656,434.647156 2.000001,513.000000 
z"/>
<path fill="#00004A" opacity="1.000000" stroke="none" 
	d="
M2.199857,241.941193 
	C2.132488,239.949631 2.006461,237.958069 2.006211,235.966507 
	C1.996403,157.956772 1.998059,79.947044 1.999106,1.468657 
	C2.000000,1.000000 2.500000,1.000000 2.750005,1.468657 
	C3.026457,81.635178 3.052904,161.333054 3.079351,241.030914 
	C3.079351,241.030914 2.968654,241.476486 2.749859,241.709503 
	C2.531064,241.942535 2.199857,241.941193 2.199857,241.941193 
z"/>
<path fill="#193363" opacity="1.000000" stroke="none" 
	d="
M3.313807,241.017212 
	C3.052904,161.333054 3.026457,81.635178 3.000005,1.468657 
	C3.000000,1.000000 3.500000,1.000000 3.750000,1.000000 
	C4.001698,80.681641 4.003396,160.363281 4.011162,240.511017 
	C4.017231,240.977112 3.548264,241.003525 3.313807,241.017212 
z"/>
<path fill="#00004A" opacity="1.000000" stroke="none" 
	d="
M2.250000,513.000000 
	C2.009656,434.647156 2.019311,356.294312 2.297431,277.474365 
	C2.565894,277.007263 2.973222,277.008636 2.973222,277.008636 
	C2.973222,277.008636 3.013891,276.988831 3.015071,277.450806 
	C3.010834,356.275177 3.005417,434.637604 3.000000,513.000000 
	C3.000000,513.000000 2.500000,513.000000 2.250000,513.000000 
z"/>
<path fill="#193363" opacity="1.000000" stroke="none" 
	d="
M3.250000,513.000000 
	C3.005417,434.637604 3.010834,356.275177 3.035655,277.441406 
	C3.055059,276.970062 3.541560,277.002930 3.785080,277.020264 
	C4.019036,355.379303 4.009472,433.721008 3.999954,512.531372 
	C4.000000,513.000000 3.500000,513.000000 3.250000,513.000000 
z"/>
<path fill="#DADDE4" opacity="1.000000" stroke="none" 
	d="
M363.492798,287.352661 
	C352.741028,287.332428 342.445129,287.196198 332.149078,287.186340 
	C300.908142,287.156494 269.666992,287.211761 238.426651,287.070679 
	C236.828796,287.063477 235.237823,285.533447 234.271576,284.457855 
	C290.948914,284.209381 346.998291,284.219818 403.047668,284.212158 
	C407.030029,284.211609 411.012421,284.077698 415.455231,284.102173 
	C436.613220,284.213409 457.310822,284.214661 478.008270,284.265198 
	C479.971008,284.269989 481.933044,284.583771 483.895386,284.754089 
	C483.431030,285.532501 482.966675,286.310913 481.782227,287.120514 
	C463.800537,287.141052 446.538849,287.095398 429.277344,287.129333 
	C411.192200,287.164886 393.107208,287.276825 375.022156,287.355408 
	C371.330963,287.335083 367.639771,287.314758 363.492798,287.352661 
z"/>
<path fill="#043C73" opacity="1.000000" stroke="none" 
	d="
M354.375916,289.004395 
	C314.730469,289.002441 275.486572,289.002441 236.242676,289.002441 
	C236.242874,288.691650 236.243088,288.380890 236.243286,288.070099 
	C277.183472,288.070099 318.123627,288.070099 359.530029,288.103333 
	C358.256683,288.426483 356.517059,288.716431 354.375916,289.004395 
z"/>
<path fill="#234677" opacity="1.000000" stroke="none" 
	d="
M375.373047,287.564636 
	C393.107208,287.276825 411.192200,287.164886 429.277344,287.129333 
	C446.538849,287.095398 463.800537,287.141052 481.523804,287.222290 
	C480.706543,287.532440 479.427917,287.979858 478.148743,287.981293 
	C444.665771,288.018982 411.182800,288.011749 377.699799,287.999969 
	C377.041138,287.999725 376.382538,287.852539 375.373047,287.564636 
z"/>
<path fill="#00004A" opacity="1.000000" stroke="none" 
	d="
M483.816254,284.419983 
	C481.933044,284.583771 479.971008,284.269989 478.008270,284.265198 
	C457.310822,284.214661 436.613220,284.213409 415.469971,283.877258 
	C415.024261,283.555939 415.055328,283.106201 415.508698,283.081543 
	C419.282532,282.999176 422.602997,282.941498 425.923462,282.883820 
	C430.620392,282.885284 435.317291,282.886780 440.947998,282.918213 
	C455.583344,282.957184 469.284973,282.966248 482.986572,282.975281 
	C483.236755,283.345520 483.486938,283.715698 483.816254,284.419983 
z"/>
<path fill="#193363" opacity="1.000000" stroke="none" 
	d="
M482.676514,282.700867 
	C469.284973,282.966248 455.583344,282.957184 441.409698,282.891479 
	C442.060181,282.228546 443.182678,281.622314 444.676453,281.026917 
	C446.941071,281.357574 448.829285,281.916809 450.728638,281.957489 
	C461.273071,282.183472 471.820221,282.283386 482.676514,282.700867 
z"/>
<path fill="#234677" opacity="1.000000" stroke="none" 
	d="
M384.994965,454.003143 
	C385.204956,454.235840 385.439362,454.451080 385.622803,454.703400 
	C385.665161,454.761719 385.532959,454.946930 385.481079,455.073730 
	C385.332764,454.855347 385.184479,454.636963 385.023956,454.203156 
	C385.011719,453.987732 385.000854,453.999176 384.994965,454.003143 
z"/>
<path fill="#FBFCFC" opacity="1.000000" stroke="none" 
	d="
M189.592133,211.719345 
	C195.885803,211.639557 201.802872,211.639557 208.393387,211.639557 
	C207.488174,214.955795 206.769547,217.588516 205.897751,220.933594 
	C205.425537,223.050446 205.106476,224.454926 204.787430,225.859406 
	C204.787430,225.859406 204.911163,225.955887 204.601685,226.142487 
	C203.108414,230.408218 201.924622,234.487366 200.448837,239.572586 
	C209.573502,235.060226 217.789337,230.997299 226.005173,226.934357 
	C227.072144,226.891235 228.139099,226.848114 229.885895,226.916992 
	C228.826584,230.435913 227.087448,233.842865 225.348312,237.249817 
	C225.827728,237.668655 226.307159,238.087494 226.786575,238.506332 
	C233.773270,234.934021 240.759964,231.361694 247.746658,227.789383 
	C247.691299,227.504608 247.635956,227.219833 247.580597,226.935059 
	C242.425995,226.935059 237.271408,226.935059 231.257370,226.935059 
	C232.300003,225.803497 232.680313,225.355576 233.096619,224.944077 
	C245.424927,212.758881 260.187714,208.986969 276.984924,212.254562 
	C276.984924,212.254562 277.087128,212.406219 277.440033,212.642426 
	C279.114227,213.348953 280.435547,213.819260 281.756836,214.289566 
	C281.756836,214.289566 281.993103,214.052032 282.051453,214.419220 
	C283.025635,215.306702 283.941498,215.826996 284.857330,216.347290 
	C286.767365,218.766525 288.635193,221.221039 290.612244,223.584183 
	C291.231079,224.323837 292.267059,225.409546 292.892853,225.279770 
	C293.756805,225.100601 294.759491,224.049271 295.097412,223.145233 
	C296.466492,219.482437 297.603790,215.733002 299.414734,211.687805 
	C309.180359,211.347137 318.357819,211.334167 327.535309,211.321198 
	C334.306458,212.355179 341.308502,212.817825 346.508301,219.331955 
	C347.939117,224.539642 348.936310,229.228592 349.933533,233.917542 
	C354.037476,227.193054 355.654572,219.462891 357.981964,211.997299 
	C359.718384,211.952850 361.454803,211.908401 363.611115,211.752945 
	C369.160828,211.641937 374.290619,211.641937 379.580475,211.641937 
	C378.480316,216.409592 377.528595,220.533905 376.329865,225.728806 
	C378.262817,224.717773 379.210754,224.456757 379.836182,223.858582 
	C386.257874,217.715927 394.121521,214.669983 402.417389,211.743225 
	C411.254669,208.625443 419.113678,210.279572 426.393951,214.340988 
	C431.268921,217.060577 434.877502,222.050079 438.927063,225.904236 
	C440.120331,222.001602 441.641022,217.028137 443.235657,211.812744 
	C449.426514,211.812744 455.418427,211.624527 461.381042,211.958786 
	C462.700439,212.032761 464.337250,213.713348 465.109100,215.064697 
	C469.052704,221.969131 472.760742,229.008102 477.114990,237.040009 
	C479.665497,229.468063 482.137054,222.886673 484.048767,216.146484 
	C485.055176,212.598068 486.766083,211.498596 490.321625,211.731903 
	C495.098297,212.045349 499.910980,211.809601 505.121765,211.809601 
	C502.887665,219.550064 500.819366,226.716125 498.736115,234.260056 
	C495.300171,245.901306 491.779358,257.135925 488.522400,268.446533 
	C487.610443,271.613586 486.399872,273.117889 482.759705,272.919800 
	C478.860229,272.707581 474.887878,273.314941 470.985687,273.846191 
	C468.154358,274.231659 466.810181,272.909332 465.701294,270.596985 
	C462.969666,264.900513 460.112518,259.263855 457.268860,253.621780 
	C456.555237,252.205872 455.702026,250.860321 454.149628,248.149551 
	C452.120422,253.986115 450.498566,258.446655 449.017395,262.953461 
	C445.840393,272.620056 445.879486,272.721985 435.969543,273.731598 
	C432.707153,274.063965 429.382355,273.783936 425.355255,273.783936 
	C426.477112,268.938507 427.483032,264.593781 428.488983,260.249054 
	C428.164001,259.962799 427.839020,259.676544 427.514038,259.390259 
	C418.749786,267.342194 408.884155,272.682159 396.966980,273.235382 
	C385.136749,273.784515 374.334351,272.113739 368.038025,259.639282 
	C362.911102,262.476776 364.273010,268.172089 361.516296,272.391022 
	C345.686523,272.658966 330.375183,272.537170 315.063873,272.415405 
	C313.559845,267.673737 312.055847,262.932068 310.551819,258.190430 
	C310.123535,257.974365 309.695282,257.758301 309.266998,257.542236 
	C308.090149,260.086700 306.379456,262.524811 305.847015,265.197632 
	C304.718475,270.862549 302.008209,273.152924 296.017456,272.426453 
	C290.823151,271.796539 285.491943,272.295410 279.833496,272.295410 
	C281.033386,267.899292 282.028381,264.253876 283.023376,260.608459 
	C282.493866,260.318451 281.964355,260.028473 281.434875,259.738464 
	C279.835815,261.023621 278.263092,262.343231 276.633514,263.588440 
	C264.636261,272.755951 251.135559,275.769592 236.673309,271.789978 
	C224.414932,268.416809 219.159882,258.472809 221.674606,245.837112 
	C221.894867,244.730362 222.018463,243.604385 222.383728,241.182938 
	C218.683823,243.048340 215.580978,244.146332 213.145752,246.083588 
	C212.245926,246.799393 212.361954,249.706665 212.960907,251.246368 
	C217.480789,262.865417 222.239365,274.391541 226.915039,285.950104 
	C227.591019,287.621185 228.222412,289.310333 229.139465,291.674286 
	C222.186508,292.065216 215.696030,292.598907 209.202087,292.644867 
	C207.984497,292.653473 206.173386,290.952606 205.624222,289.630280 
	C202.564880,282.263702 199.837280,274.760010 196.925705,267.330841 
	C196.393570,265.973053 195.536026,264.742828 194.811661,263.422729 
	C190.787399,265.813080 194.016846,272.587250 186.951691,272.354126 
	C181.025436,272.354553 175.942719,272.354553 170.330627,272.354553 
	C172.249100,265.402130 173.960846,259.198792 175.839218,252.641876 
	C178.938004,242.180466 181.870178,232.072632 184.802368,221.964783 
	C186.273407,218.576233 187.744476,215.187683 189.592133,211.719345 
M399.309998,230.063766 
	C394.762512,233.289230 391.982819,237.658401 391.118195,243.151505 
	C390.362335,247.953461 392.619965,251.479874 396.746857,252.105194 
	C402.586517,252.990021 407.200226,250.669998 410.545685,246.080566 
	C413.841400,241.559387 416.054230,236.636978 412.903198,230.234100 
	C408.671936,226.636810 404.351257,227.250229 399.309998,230.063766 
M246.366867,239.294327 
	C246.231262,240.911652 246.052887,242.526718 245.967636,244.146698 
	C245.638840,250.393921 247.709549,252.460541 253.980484,252.191818 
	C260.479706,251.913284 267.837860,245.416046 268.029205,238.955200 
	C268.127289,235.644348 269.849182,231.369431 265.698853,229.015945 
	C261.454468,226.609131 257.077637,227.498550 253.581985,230.323349 
	C250.847900,232.532730 248.957993,235.786789 246.366867,239.294327 
M349.025787,242.622116 
	C349.307739,241.669189 349.816772,240.715210 349.812378,239.763611 
	C349.807251,238.651764 349.354187,237.541992 349.095459,236.431320 
	C348.168549,237.097778 347.140533,237.661514 346.336365,238.452713 
	C344.808990,239.955521 343.635803,241.922516 341.906860,243.093018 
	C338.951141,245.094055 335.680511,246.629944 332.480896,248.394943 
	C335.182800,255.476440 337.782532,262.290161 340.766724,270.111481 
	C343.664459,260.471069 346.234314,251.921432 349.025787,242.622116 
M319.441925,235.110641 
	C320.238739,234.939438 321.359894,235.039200 321.771637,234.546326 
	C323.015259,233.057510 323.983429,231.338562 325.058960,229.709335 
	C323.688141,229.064636 322.375641,228.182953 320.933502,227.828094 
	C318.473785,227.222855 317.100983,228.220764 316.464111,230.891739 
	C315.906525,233.230103 315.851746,234.737946 319.441925,235.110641 
z"/>
<path fill="#FAFAFB" opacity="1.000000" stroke="none" 
	d="
M115.759079,270.887543 
	C110.562553,274.568390 99.237175,274.500275 97.227852,271.565033 
	C92.439369,272.016541 88.035751,273.143677 83.862648,272.576080 
	C81.058739,272.194672 77.849991,269.937653 76.153084,267.567200 
	C74.272308,264.939880 73.585854,264.437531 70.545135,266.102051 
	C65.696823,268.756073 60.300484,270.408936 54.740623,272.360718 
	C54.345367,272.236359 54.211334,272.277100 53.896103,272.197571 
	C52.534264,272.316956 51.487663,272.515869 50.021725,272.595734 
	C38.075268,272.413818 26.548153,272.350952 15.021033,272.288086 
	C18.302076,262.429626 21.583120,252.571152 24.874630,242.344025 
	C28.231976,232.332443 31.578857,222.689499 35.482361,212.701782 
	C47.168499,212.366470 58.298019,212.375931 69.427536,212.385406 
	C80.926979,215.529572 83.994987,220.487106 80.626160,231.434357 
	C80.241066,232.454147 80.114922,232.939011 79.734604,233.629333 
	C79.300629,234.219864 79.120827,234.604935 78.661118,235.171402 
	C76.026703,237.188187 73.672195,239.023575 70.983284,241.119644 
	C76.508614,243.213867 78.293427,247.720169 78.418625,253.613617 
	C86.227203,245.645935 95.594368,244.787231 105.199242,245.029526 
	C105.107979,240.213104 105.096794,240.068741 100.602043,240.416946 
	C94.683029,240.875504 88.783760,241.589005 82.947021,242.185623 
	C83.886536,240.125931 85.035988,237.605988 86.185448,235.086044 
	C88.298134,229.574188 92.683304,227.737732 98.183411,227.446793 
	C106.264076,227.019363 114.503433,225.501770 121.679901,232.079254 
	C122.093864,232.829224 122.316696,233.037781 122.763245,233.519608 
	C123.045746,237.488968 124.031273,241.248322 123.244514,244.590454 
	C121.158363,253.452438 118.306374,262.134125 115.759079,270.887543 
M50.126087,248.885956 
	C45.325550,248.492447 42.671383,250.304428 43.198826,256.152130 
	C45.528599,256.152130 47.931042,256.656921 49.945919,255.990295 
	C51.520550,255.469330 52.850754,253.629822 53.744827,252.064957 
	C53.952000,251.702362 51.940899,250.072388 50.126087,248.885956 
M92.806976,260.543945 
	C95.626350,263.101257 98.776070,263.128815 100.767929,260.102966 
	C101.803009,258.530579 100.956482,255.719620 100.959938,253.468155 
	C98.444557,254.768219 95.877609,255.982376 93.454796,257.436676 
	C92.934402,257.749023 92.935165,258.929657 92.806976,260.543945 
M58.863628,230.793732 
	C58.936520,229.547684 59.009407,228.301651 59.081398,227.070953 
	C56.456120,226.861588 54.271725,226.687378 52.129013,226.516510 
	C51.358177,228.987976 50.632004,231.316238 49.396103,235.278793 
	C53.184967,233.656479 55.753521,232.556686 58.863628,230.793732 
z"/>
<path fill="#FAFBFC" opacity="1.000000" stroke="none" 
	d="
M147.740356,270.001831 
	C147.932922,269.430756 148.125473,268.859711 148.551514,267.721863 
	C149.096359,265.770264 149.407700,264.385406 149.719025,263.000580 
	C149.918335,262.429474 150.117645,261.858398 150.560486,260.689087 
	C152.149185,255.398026 153.637924,250.738708 154.745850,245.990524 
	C155.050537,244.684738 156.945328,241.835098 153.000687,242.088272 
	C148.651337,240.225739 146.742218,242.352661 145.658707,246.339233 
	C143.959900,252.589676 141.648911,258.701111 140.357056,265.026581 
	C139.209183,270.647064 136.850861,273.613739 129.965607,272.376587 
	C125.686745,272.375671 122.260246,272.375671 118.277954,272.375671 
	C121.292870,261.129578 124.124954,250.565445 127.109070,239.656158 
	C127.927353,236.569702 128.593613,233.828430 129.259872,231.087158 
	C130.788162,230.079926 132.260147,228.324097 133.855164,228.204147 
	C138.880173,227.826233 143.951340,228.062225 149.552505,228.484741 
	C149.978394,229.999847 149.856430,231.090805 149.806427,232.080261 
	C149.878418,231.978760 149.877548,232.169418 149.877548,232.169418 
	C149.877548,232.169418 149.825241,232.057480 149.976517,231.699890 
	C157.096161,228.234406 164.105087,225.448914 172.076874,228.856552 
	C173.503052,231.975021 175.531418,234.791275 175.727524,237.729828 
	C176.000061,241.813751 174.898743,245.989334 174.237595,250.317703 
	C174.089661,250.509720 173.883331,250.948425 173.914856,250.972260 
	C173.946381,250.996078 173.938568,250.917435 173.609207,251.083282 
	C171.281952,258.205963 169.284058,265.162811 167.286163,272.119659 
	C166.773010,272.196289 166.259857,272.272919 164.927246,272.353394 
	C159.729660,272.338745 155.341949,272.472321 150.979965,272.197235 
	C149.858414,272.126526 148.818039,270.768494 147.740356,270.001831 
z"/>
<path fill="#2A497B" opacity="1.000000" stroke="none" 
	d="
M85.822495,234.957718 
	C85.035988,237.605988 83.886536,240.125931 82.947021,242.185623 
	C88.783760,241.589005 94.683029,240.875504 100.602043,240.416946 
	C105.096794,240.068741 105.107979,240.213104 105.199242,245.029526 
	C95.594368,244.787231 86.227203,245.645935 78.418625,253.613617 
	C78.293427,247.720169 76.508614,243.213867 70.983284,241.119644 
	C73.672195,239.023575 76.026703,237.188187 78.910446,234.970154 
	C79.622711,234.199646 79.805748,233.811768 79.988785,233.423889 
	C80.114922,232.939011 80.241066,232.454147 80.587334,231.829010 
	C82.358147,232.735626 83.908852,233.782501 85.822495,234.957718 
z"/>
<path fill="#254578" opacity="1.000000" stroke="none" 
	d="
M174.385529,250.125687 
	C174.898743,245.989334 176.000061,241.813751 175.727524,237.729828 
	C175.531418,234.791275 173.503052,231.975021 172.107666,228.451996 
	C171.950378,227.530701 171.977386,227.261627 172.004410,226.992554 
	C176.340179,226.123688 181.338608,226.907059 184.456116,222.051086 
	C181.870178,232.072632 178.938004,242.180466 175.550964,252.566559 
	C174.710266,252.202362 174.324417,251.559906 173.938568,250.917435 
	C173.938568,250.917435 173.946381,250.996078 174.065857,250.930588 
	C174.495285,250.692886 174.562027,250.446411 174.385529,250.125687 
z"/>
<path fill="#193363" opacity="1.000000" stroke="none" 
	d="
M171.780609,226.722870 
	C171.977386,227.261627 171.950378,227.530701 171.892548,228.204346 
	C164.105087,225.448914 157.096161,228.234406 149.951447,231.729233 
	C149.775101,232.116165 149.734467,232.181778 149.734467,232.181778 
	C149.856430,231.090805 149.978394,229.999847 150.016373,228.467560 
	C155.755066,227.261795 161.569565,226.421692 167.406601,225.789795 
	C168.750305,225.644318 170.171356,226.213089 171.780609,226.722870 
z"/>
<path fill="#254578" opacity="1.000000" stroke="none" 
	d="
M128.833878,231.085175 
	C128.593613,233.828430 127.927353,236.569702 126.753372,239.559692 
	C125.049889,237.578751 123.854118,235.349075 122.658356,233.119400 
	C122.316696,233.037781 122.093864,232.829224 121.970062,232.256500 
	C124.102821,231.707260 126.255348,231.395218 128.833878,231.085175 
z"/>
<path fill="#00004A" opacity="1.000000" stroke="none" 
	d="
M69.613075,212.243454 
	C58.298019,212.375931 47.168499,212.366470 35.578407,212.367523 
	C35.103416,212.151535 35.088997,211.925034 35.506966,211.353577 
	C47.288414,211.001831 58.637474,210.995056 69.986542,210.988266 
	C70.041862,211.263947 70.131325,211.539337 70.133636,211.815460 
	C70.134422,211.909866 69.916573,212.006104 69.613075,212.243454 
z"/>
<path fill="#193363" opacity="1.000000" stroke="none" 
	d="
M69.675644,210.714493 
	C58.637474,210.995056 47.288414,211.001831 35.470894,211.015045 
	C35.730225,210.689621 36.460056,210.064850 37.185513,210.069885 
	C47.912273,210.144379 58.638447,210.302444 69.675644,210.714493 
z"/>
<path fill="#DADDE4" opacity="1.000000" stroke="none" 
	d="
M196.066299,284.194550 
	C198.603088,288.521729 194.733475,287.108521 193.215820,287.116821 
	C176.097687,287.210022 158.978882,287.173767 141.860245,287.177460 
	C138.868835,287.178131 135.877411,287.203186 132.424164,287.313904 
	C131.214783,287.375366 130.467224,287.339966 128.911774,287.312805 
	C125.398506,287.337708 122.693130,287.354370 119.530937,287.270325 
	C84.747421,287.152985 50.420723,287.141632 16.094042,287.106232 
	C14.104710,287.104187 12.115577,286.906647 10.126348,286.800110 
	C10.406049,286.152283 10.685750,285.504456 11.501560,284.564514 
	C34.695904,284.186218 57.354141,284.100067 80.467781,284.127808 
	C119.304222,284.225983 157.685257,284.210266 196.066299,284.194550 
z"/>
<path fill="#00175A" opacity="1.000000" stroke="none" 
	d="
M119.987755,287.371033 
	C122.693130,287.354370 125.398506,287.337708 128.547562,287.403290 
	C127.718086,287.989319 126.445793,288.930756 125.171646,288.933228 
	C87.629562,289.006927 50.087296,288.989380 12.545065,288.964569 
	C11.904076,288.964142 11.263262,288.695557 10.780078,288.285522 
	C45.673447,288.023499 80.409111,288.036896 115.144737,288.004486 
	C116.759270,288.002960 118.373428,287.591553 119.987755,287.371033 
z"/>
<path fill="#234677" opacity="1.000000" stroke="none" 
	d="
M119.530937,287.270325 
	C118.373428,287.591553 116.759270,288.002960 115.144737,288.004486 
	C80.409111,288.036896 45.673447,288.023499 10.469313,288.008789 
	C10.010790,287.797638 10.020746,287.596710 10.078526,287.097931 
	C12.115577,286.906647 14.104710,287.104187 16.094042,287.106232 
	C50.420723,287.141632 84.747421,287.152985 119.530937,287.270325 
z"/>
<path fill="#00004A" opacity="1.000000" stroke="none" 
	d="
M80.012375,284.013916 
	C57.354141,284.100067 34.695904,284.186218 11.578983,284.306702 
	C11.103395,284.121002 11.086494,283.900970 11.504450,283.344849 
	C26.647017,282.950714 41.354725,282.892639 56.062431,282.834534 
	C60.754013,282.875763 65.445595,282.916992 71.045288,282.960632 
	C74.620064,283.006561 77.286720,283.050079 79.968887,283.323669 
	C79.984390,283.553680 80.012375,284.013916 80.012375,284.013916 
z"/>
<path fill="#043C73" opacity="1.000000" stroke="none" 
	d="
M135.272308,288.357941 
	C155.245743,288.137634 175.489136,288.137634 195.732544,288.137634 
	C195.734848,288.425079 195.737167,288.712555 195.739487,289.000000 
	C190.340256,289.000000 184.940674,288.959747 179.541901,289.008087 
	C166.926529,289.121002 154.311539,289.276428 141.390198,289.677948 
	C139.236755,289.486908 137.389511,289.032562 135.272308,288.357941 
z"/>
<path fill="#193363" opacity="1.000000" stroke="none" 
	d="
M55.951286,282.504089 
	C41.354725,282.892639 26.647017,282.950714 11.470840,283.015503 
	C12.888281,282.680664 14.769051,282.077576 16.660942,282.040405 
	C28.218597,281.813232 39.778778,281.714539 51.646942,281.304077 
	C53.250557,281.414642 54.545349,281.794128 55.951286,282.504089 
z"/>
<path fill="#2F4C7A" opacity="1.000000" stroke="none" 
	d="
M425.607605,282.631104 
	C422.602997,282.941498 419.282532,282.999176 415.035767,283.040527 
	C354.069519,282.991089 294.029541,282.957977 233.989594,282.924866 
	C235.406326,282.616760 236.822861,282.040131 238.239807,282.039093 
	C299.610443,281.994690 360.981140,281.999573 422.351807,282.017395 
	C423.331818,282.017700 424.311798,282.252808 425.607605,282.631104 
z"/>
<path fill="#001567" opacity="1.000000" stroke="none" 
	d="
M233.970016,283.223846 
	C294.029541,282.957977 354.069519,282.991089 414.582397,283.065186 
	C415.055328,283.106201 415.024261,283.555939 415.009521,283.780884 
	C411.012421,284.077698 407.030029,284.211609 403.047668,284.212158 
	C346.998291,284.219818 290.948914,284.209381 234.429749,284.162659 
	C233.956787,283.922272 233.953613,283.722565 233.970016,283.223846 
z"/>
<path fill="#2F4C7A" opacity="1.000000" stroke="none" 
	d="
M79.953384,283.093628 
	C77.286720,283.050079 74.620064,283.006561 71.514587,282.924133 
	C72.493523,282.590332 73.910957,282.039551 75.329056,282.037872 
	C114.198532,281.991211 153.068069,281.996979 191.937592,282.018036 
	C193.079544,282.018677 194.221344,282.278748 195.215500,282.699097 
	C156.696320,283.018097 118.324852,283.055847 79.953384,283.093628 
z"/>
<path fill="#224577" opacity="1.000000" stroke="none" 
	d="
M122.763245,233.519608 
	C123.854118,235.349075 125.049889,237.578751 126.601349,239.904877 
	C124.124954,250.565445 121.292870,261.129578 118.277954,272.375671 
	C122.260246,272.375671 125.686745,272.375671 129.548874,272.550873 
	C125.320793,275.102112 119.426491,274.500061 116.072906,271.112335 
	C118.306374,262.134125 121.158363,253.452438 123.244514,244.590454 
	C124.031273,241.248322 123.045746,237.488968 122.763245,233.519608 
z"/>
<path fill="#001567" opacity="1.000000" stroke="none" 
	d="
M79.968887,283.323639 
	C118.324852,283.055847 156.696320,283.018097 195.536713,282.962341 
	C196.017502,283.152618 196.029327,283.360870 196.053711,283.881836 
	C157.685257,284.210266 119.304222,284.225983 80.467781,284.127808 
	C80.012375,284.013916 79.984390,283.553680 79.968887,283.323639 
z"/>
<path fill="#224577" opacity="1.000000" stroke="none" 
	d="
M173.609207,251.083282 
	C174.324417,251.559906 174.710266,252.202362 175.384369,252.920135 
	C173.960846,259.198792 172.249100,265.402130 170.330627,272.354553 
	C175.942719,272.354553 181.025436,272.354553 186.561005,272.483704 
	C186.199677,273.402954 185.299911,274.945282 184.584961,274.863861 
	C179.007797,274.229095 173.466156,273.282104 167.599854,272.275635 
	C169.284058,265.162811 171.281952,258.205963 173.609207,251.083282 
z"/>
<path fill="#224577" opacity="1.000000" stroke="none" 
	d="
M147.417786,270.098083 
	C148.818039,270.768494 149.858414,272.126526 150.979965,272.197235 
	C155.341949,272.472321 159.729660,272.338745 164.560883,272.485657 
	C164.991547,272.779053 165.028809,272.994659 164.938049,273.101593 
	C162.326782,276.179474 148.187454,275.581421 146.388977,272.245117 
	C146.156448,271.813782 146.837418,270.889984 147.417786,270.098083 
z"/>
<path fill="#001567" opacity="1.000000" stroke="none" 
	d="
M315.214966,272.718384 
	C330.375183,272.537170 345.686523,272.658966 361.460449,272.752625 
	C361.932892,272.936432 361.942719,273.148407 361.507690,273.687683 
	C346.382477,274.016510 331.702118,274.018066 317.021759,274.019623 
	C316.469849,273.686890 315.917938,273.354126 315.214966,272.718384 
z"/>
<path fill="#2F4C7A" opacity="1.000000" stroke="none" 
	d="
M317.332336,274.292053 
	C331.702118,274.018066 346.382477,274.016510 361.531433,274.005096 
	C361.431244,274.301727 360.861237,274.877960 360.293884,274.875275 
	C346.076721,274.808716 331.859833,274.681213 317.332336,274.292053 
z"/>
<path fill="#012A5F" opacity="1.000000" stroke="none" 
	d="
M15.242759,272.673584 
	C26.548153,272.350952 38.075268,272.413818 50.504112,272.713959 
	C52.341003,272.726501 53.276169,272.501801 54.211334,272.277100 
	C54.211334,272.277100 54.345367,272.236359 54.414726,272.252991 
	C53.185318,272.835999 51.892021,273.878815 50.586922,273.893799 
	C39.620808,274.019745 28.652439,273.974548 17.685131,273.913300 
	C16.943348,273.909149 16.204626,273.356567 15.242759,272.673584 
z"/>
<path fill="#224577" opacity="1.000000" stroke="none" 
	d="
M153.000488,242.491669 
	C156.945328,241.835098 155.050537,244.684738 154.745850,245.990524 
	C153.637924,250.738708 152.149185,255.398026 150.546478,260.385620 
	C150.849396,256.666565 151.386658,252.649323 151.980408,248.640457 
	C152.265274,246.717148 152.656967,244.809692 153.000488,242.491669 
z"/>
<path fill="#001567" opacity="1.000000" stroke="none" 
	d="
M2.977743,276.539246 
	C2.973222,277.008636 2.565894,277.007263 2.362268,277.010620 
	C2.132054,265.636841 2.105465,254.259750 2.139367,242.411926 
	C2.199857,241.941193 2.531064,241.942535 2.695373,241.932510 
	C2.900543,253.304947 2.941403,264.687408 2.977743,276.539246 
z"/>
<path fill="#224577" opacity="1.000000" stroke="none" 
	d="
M149.391052,263.065979 
	C149.407700,264.385406 149.096359,265.770264 148.537720,267.419464 
	C148.547989,266.166351 148.805527,264.648865 149.391052,263.065979 
z"/>
<path fill="#002A5F" opacity="1.000000" stroke="none" 
	d="
M198.998566,331.998169 
	C198.997147,331.996338 199.246017,331.575806 199.246017,331.575806 
	C199.246017,331.575806 199.240433,331.901947 199.122025,331.952271 
	C199.003616,332.002563 199.000000,332.000000 198.998566,331.998169 
z"/>
<path fill="#2A497B" opacity="1.000000" stroke="none" 
	d="
M276.942383,211.907715 
	C260.187714,208.986969 245.424927,212.758881 233.096619,224.944077 
	C232.680313,225.355576 232.300003,225.803497 231.257370,226.935059 
	C237.271408,226.935059 242.425995,226.935059 247.580597,226.935059 
	C247.635956,227.219833 247.691299,227.504608 247.746658,227.789383 
	C240.759964,231.361694 233.773270,234.934021 226.786575,238.506332 
	C226.307159,238.087494 225.827728,237.668655 225.348312,237.249817 
	C227.087448,233.842865 228.826584,230.435913 230.278229,226.836777 
	C236.357300,217.206146 245.193817,211.896545 256.518646,210.647949 
	C260.520416,210.206772 264.506348,209.093292 268.485718,209.156281 
	C271.302399,209.200867 274.095978,210.707108 276.942383,211.907715 
z"/>
<path fill="#193363" opacity="1.000000" stroke="none" 
	d="
M357.629456,212.066284 
	C355.654572,219.462891 354.037476,227.193054 349.933533,233.917542 
	C348.936310,229.228592 347.939117,224.539642 346.795624,219.487045 
	C351.292542,220.473572 354.342865,219.229065 355.284790,214.086731 
	C355.421631,213.339691 356.587341,212.781082 357.629456,212.066284 
z"/>
<path fill="#2A497B" opacity="1.000000" stroke="none" 
	d="
M225.936249,226.623291 
	C217.789337,230.997299 209.573502,235.060226 200.448837,239.572586 
	C201.924622,234.487366 203.108414,230.408218 204.560242,226.075867 
	C204.828278,228.659988 204.828278,231.497314 204.828278,235.032242 
	C210.542511,232.195145 216.056747,229.358994 221.674942,226.746368 
	C222.879272,226.186310 224.460007,226.435684 225.936249,226.623291 
z"/>
<path fill="#012A5F" opacity="1.000000" stroke="none" 
	d="
M327.849121,211.194580 
	C318.357819,211.334167 309.180359,211.347137 299.539124,211.362366 
	C300.221191,210.913498 301.362488,210.084747 302.513458,210.071060 
	C311.576965,209.963257 320.642334,210.011215 329.806854,210.546234 
	C329.258881,210.720154 328.710938,210.894073 327.849121,211.194580 
z"/>
<path fill="#2A497B" opacity="1.000000" stroke="none" 
	d="
M205.133255,225.843369 
	C205.106476,224.454926 205.425537,223.050446 205.908783,221.322449 
	C209.350433,223.035889 207.001053,224.380722 205.133255,225.843369 
z"/>
<path fill="#2A497B" opacity="1.000000" stroke="none" 
	d="
M281.770264,213.942719 
	C280.435547,213.819260 279.114227,213.348953 277.531464,212.641159 
	C278.774567,212.801071 280.279144,213.198471 281.770264,213.942719 
z"/>
<path fill="#2A497B" opacity="1.000000" stroke="none" 
	d="
M284.829956,215.968460 
	C283.941498,215.826996 283.025635,215.306702 281.924805,214.528717 
	C282.760712,214.710556 283.781647,215.150101 284.829956,215.968460 
z"/>
<path fill="#012A5F" opacity="1.000000" stroke="none" 
	d="
M321.009766,181.012726 
	C320.924988,181.047729 320.830963,181.071259 320.857422,181.038849 
	C320.977844,180.982925 321.000549,181.001236 321.009766,181.012726 
z"/>
<path fill="#254578" opacity="1.000000" stroke="none" 
	d="
M246.529938,238.935501 
	C248.957993,235.786789 250.847900,232.532730 253.581985,230.323349 
	C257.077637,227.498550 261.454468,226.609131 265.698853,229.015945 
	C269.849182,231.369431 268.127289,235.644348 268.029205,238.955200 
	C267.837860,245.416046 260.479706,251.913284 253.980484,252.191818 
	C247.709549,252.460541 245.638840,250.393921 245.967636,244.146698 
	C246.052887,242.526718 246.231262,240.911652 246.529938,238.935501 
z"/>
<path fill="#254578" opacity="1.000000" stroke="none" 
	d="
M413.126129,230.952652 
	C416.054230,236.636978 413.841400,241.559387 410.545685,246.080566 
	C407.200226,250.669998 402.586517,252.990021 396.746857,252.105194 
	C392.619965,251.479874 390.362335,247.953461 391.118195,243.151505 
	C391.982819,237.658401 394.762512,233.289230 399.936676,230.309784 
	C404.750946,230.688080 408.938538,230.820358 413.126129,230.952652 
z"/>
<path fill="#2A497B" opacity="1.000000" stroke="none" 
	d="
M348.914978,242.996964 
	C346.234314,251.921432 343.664459,260.471069 340.766724,270.111481 
	C337.782532,262.290161 335.182800,255.476440 332.480896,248.394943 
	C335.680511,246.629944 338.951141,245.094055 341.906860,243.093018 
	C343.635803,241.922516 344.808990,239.955521 346.336365,238.452713 
	C347.140533,237.661514 348.168549,237.097778 349.095459,236.431320 
	C349.354187,237.541992 349.807251,238.651764 349.812378,239.763611 
	C349.816772,240.715210 349.307739,241.669189 348.914978,242.996964 
z"/>
<path fill="#2F4C7A" opacity="1.000000" stroke="none" 
	d="
M319.028687,235.119324 
	C315.851746,234.737946 315.906525,233.230103 316.464111,230.891739 
	C317.100983,228.220764 318.473785,227.222855 320.933502,227.828094 
	C322.375641,228.182953 323.688141,229.064636 325.058960,229.709335 
	C323.983429,231.338562 323.015259,233.057510 321.771637,234.546326 
	C321.359894,235.039200 320.238739,234.939438 319.028687,235.119324 
z"/>
<path fill="#012A5F" opacity="1.000000" stroke="none" 
	d="
M413.014648,230.593384 
	C408.938538,230.820358 404.750946,230.688080 400.274719,230.257797 
	C404.351257,227.250229 408.671936,226.636810 413.014648,230.593384 
z"/>
<path fill="#2A497B" opacity="1.000000" stroke="none" 
	d="
M50.538311,248.955780 
	C51.940899,250.072388 53.952000,251.702362 53.744827,252.064957 
	C52.850754,253.629822 51.520550,255.469330 49.945919,255.990295 
	C47.931042,256.656921 45.528599,256.152130 43.198826,256.152130 
	C42.671383,250.304428 45.325550,248.492447 50.538311,248.955780 
z"/>
<path fill="#2A497B" opacity="1.000000" stroke="none" 
	d="
M92.751419,260.127136 
	C92.935165,258.929657 92.934402,257.749023 93.454796,257.436676 
	C95.877609,255.982376 98.444557,254.768219 100.959938,253.468155 
	C100.956482,255.719620 101.803009,258.530579 100.767929,260.102966 
	C98.776070,263.128815 95.626350,263.101257 92.751419,260.127136 
z"/>
<path fill="#012A5F" opacity="1.000000" stroke="none" 
	d="
M58.592850,231.125305 
	C55.753521,232.556686 53.184967,233.656479 49.396103,235.278793 
	C50.632004,231.316238 51.358177,228.987976 52.129013,226.516510 
	C54.271725,226.687378 56.456120,226.861588 59.081398,227.070953 
	C59.009407,228.301651 58.936520,229.547684 58.592850,231.125305 
z"/>
<path fill="#234677" opacity="1.000000" stroke="none" 
	d="
M53.896103,272.197571 
	C53.276169,272.501801 52.341003,272.726501 50.923450,272.832977 
	C51.487663,272.515869 52.534264,272.316956 53.896103,272.197571 
z"/>
<path fill="#002A5F" opacity="1.000000" stroke="none" 
	d="
M79.734604,233.629333 
	C79.805748,233.811768 79.622711,234.199646 79.190353,234.788773 
	C79.120827,234.604935 79.300629,234.219864 79.734604,233.629333 
z"/>
<path fill="#193363" opacity="1.000000" stroke="none" 
	d="
M149.800171,232.086823 
	C149.825241,232.057480 149.877548,232.169418 149.877548,232.169418 
	C149.877548,232.169418 149.878418,231.978760 149.806442,232.080261 
	C149.734467,232.181778 149.775101,232.116165 149.800171,232.086823 
z"/>
<path fill="#224577" opacity="1.000000" stroke="none" 
	d="
M174.237595,250.317703 
	C174.562027,250.446411 174.495285,250.692886 174.034332,250.906769 
	C173.883331,250.948425 174.089661,250.509720 174.237595,250.317703 
z"/>
</svg>